<svg class="qrCode" id="" version="1.1" xmlns="http://www.w3.org/2000/svg" viewBox="-5 -5 43 43"><path class="qrLight" fill="#1d2021" d="M-5,-5h43v43h-43Z"></path><g fill="#fabd2f" class="qrDark qrRounded qrModules"><rect x="8.1" y="7.099999904632568" width="0.800000011920929" height="0.800000011920929" rx="0.4000000059604645"></rect><rect x="10.1" y="7.099999904632568" width="0.800000011920929" height="0.800000011920929" rx="0.4000000059604645"></rect><rect x="11.1" y="7.099999904632568" width="0.800000011920929" height="0.800000011920929" rx="0.4000000059604645"></rect><rect x="12.1" y="7.099999904632568" width="0.800000011920929" height="0.800000011920929" rx="0.4000000059604645"></rect><rect x="16.1" y="7.099999904632568" width="0.800000011920929" height="0.800000011920929" rx="0.4000000059604645"></rect><rect x="19.1" y="7.099999904632568" width="0.800000011920929" height="0.800000011920929" rx="0.4000000059604645"></rect><rect x="20.1" y="7.099999904632568" width="0.800000011920929" height="0.800000011920929" rx="0.4000000059604645"></rect><rect x="21.1" y="7.099999904632568" width="0.800000011920929" height="0.800000011920929" rx="0.4000000059604645"></rect><rect x="24.1" y="7.099999904632568" width="0.800000011920929" height="0.800000011920929" rx="0.4000000059604645"></rect><rect x="4.1" y="8.100000381469727" width="0.800000011920929" height="0.800000011920929" rx="0.4000000059604645"></rect><rect x="5.1" y="8.100000381469727" width="0.800000011920929" height="0.800000011920929" rx="0.4000000059604645"></rect><rect x="6.1" y="8.100000381469727" width="0.800000011920929" height="0.800000011920929" rx="0.4000000059604645"></rect><rect x="7.1" y="8.100000381469727" width="0.800000011920929" height="0.800000011920929" rx="0.4000000059604645"></rect><rect x="11.1" y="8.100000381469727" width="0.800000011920929" height="0.800000011920929" rx="0.4000000059604645"></rect><rect x="13.1" y="8.100000381469727" width="0.800000011920929" height="0.800000011920929" rx="0.4000000059604645"></rect><rect x="14.1" y="8.100000381469727" width="0.800000011920929" height="0.800000011920929" rx="0.4000000059604645"></rect><rect x="16.1" y="8.100000381469727" width="0.800000011920929" height="0.800000011920929" rx="0.4000000059604645"></rect><rect x="17.1" y="8.100000381469727" width="0.800000011920929" height="0.800000011920929" rx="0.4000000059604645"></rect><rect x="18.1" y="8.100000381469727" width="0.800000011920929" height="0.800000011920929" rx="0.4000000059604645"></rect><rect x="19.1" y="8.100000381469727" width="0.800000011920929" height="0.800000011920929" rx="0.4000000059604645"></rect><rect x="21.1" y="8.100000381469727" width="0.800000011920929" height="0.800000011920929" rx="0.4000000059604645"></rect><rect x="22.1" y="8.100000381469727" width="0.800000011920929" height="0.800000011920929" rx="0.4000000059604645"></rect><rect x="23.1" y="8.100000381469727" width="0.800000011920929" height="0.800000011920929" rx="0.4000000059604645"></rect><rect x="24.1" y="8.100000381469727" width="0.800000011920929" height="0.800000011920929" rx="0.4000000059604645"></rect><rect x="26.1" y="8.100000381469727" width="0.800000011920929" height="0.800000011920929" rx="0.4000000059604645"></rect><rect x="27.1" y="8.100000381469727" width="0.800000011920929" height="0.800000011920929" rx="0.4000000059604645"></rect><rect x="31.1" y="8.100000381469727" width="0.800000011920929" height="0.800000011920929" rx="0.4000000059604645"></rect><rect x="1.1" y="9.100000381469727" width="0.800000011920929" height="0.800000011920929" rx="0.4000000059604645"></rect><rect x="2.1" y="9.100000381469727" width="0.800000011920929" height="0.800000011920929" rx="0.4000000059604645"></rect><rect x="3.1" y="9.100000381469727" width="0.800000011920929" height="0.800000011920929" rx="0.4000000059604645"></rect><rect x="4.1" y="9.100000381469727" width="0.800000011920929" height="0.800000011920929" rx="0.4000000059604645"></rect><rect x="10.1" y="9.100000381469727" width="0.800000011920929" height="0.800000011920929" rx="0.4000000059604645"></rect><rect x="11.1" y="9.100000381469727" width="0.800000011920929" height="0.800000011920929" rx="0.4000000059604645"></rect><rect x="20.1" y="9.100000381469727" width="0.800000011920929" height="0.800000011920929" rx="0.4000000059604645"></rect><rect x="21.1" y="9.100000381469727" width="0.800000011920929" height="0.800000011920929" rx="0.4000000059604645"></rect><rect x="22.1" y="9.100000381469727" width="0.800000011920929" height="0.800000011920929" rx="0.4000000059604645"></rect><rect x="23.1" y="9.100000381469727" width="0.800000011920929" height="0.800000011920929" rx="0.4000000059604645"></rect><rect x="27.1" y="9.100000381469727" width="0.800000011920929" height="0.800000011920929" rx="0.4000000059604645"></rect><rect x="29.1" y="9.100000381469727" width="0.800000011920929" height="0.800000011920929" rx="0.4000000059604645"></rect><rect x="31.1" y="9.100000381469727" width="0.800000011920929" height="0.800000011920929" rx="0.4000000059604645"></rect><rect x="0.1" y="10.10000038146973" width="0.800000011920929" height="0.800000011920929" rx="0.4000000059604645"></rect><rect x="1.1" y="10.10000038146973" width="0.800000011920929" height="0.800000011920929" rx="0.4000000059604645"></rect><rect x="3.1" y="10.10000038146973" width="0.800000011920929" height="0.800000011920929" rx="0.4000000059604645"></rect><rect x="4.1" y="10.10000038146973" width="0.800000011920929" height="0.800000011920929" rx="0.4000000059604645"></rect><rect x="6.1" y="10.10000038146973" width="0.800000011920929" height="0.800000011920929" rx="0.4000000059604645"></rect><rect x="7.1" y="10.10000038146973" width="0.800000011920929" height="0.800000011920929" rx="0.4000000059604645"></rect><rect x="8.1" y="10.10000038146973" width="0.800000011920929" height="0.800000011920929" rx="0.4000000059604645"></rect><rect x="9.1" y="10.10000038146973" width="0.800000011920929" height="0.800000011920929" rx="0.4000000059604645"></rect><rect x="11.1" y="10.10000038146973" width="0.800000011920929" height="0.800000011920929" rx="0.4000000059604645"></rect><rect x="12.1" y="10.10000038146973" width="0.800000011920929" height="0.800000011920929" rx="0.4000000059604645"></rect><rect x="14.1" y="10.10000038146973" width="0.800000011920929" height="0.800000011920929" rx="0.4000000059604645"></rect><rect x="16.1" y="10.10000038146973" width="0.800000011920929" height="0.800000011920929" rx="0.4000000059604645"></rect><rect x="19.1" y="10.10000038146973" width="0.800000011920929" height="0.800000011920929" rx="0.4000000059604645"></rect><rect x="23.1" y="10.10000038146973" width="0.800000011920929" height="0.800000011920929" rx="0.4000000059604645"></rect><rect x="26.1" y="10.10000038146973" width="0.800000011920929" height="0.800000011920929" rx="0.4000000059604645"></rect><rect x="27.1" y="10.10000038146973" width="0.800000011920929" height="0.800000011920929" rx="0.4000000059604645"></rect><rect x="28.1" y="10.10000038146973" width="0.800000011920929" height="0.800000011920929" rx="0.4000000059604645"></rect><rect x="31.1" y="10.10000038146973" width="0.800000011920929" height="0.800000011920929" rx="0.4000000059604645"></rect><rect x="1.1" y="11.10000038146973" width="0.800000011920929" height="0.800000011920929" rx="0.4000000059604645"></rect><rect x="2.1" y="11.10000038146973" width="0.800000011920929" height="0.800000011920929" rx="0.4000000059604645"></rect><rect x="3.1" y="11.10000038146973" width="0.800000011920929" height="0.800000011920929" rx="0.4000000059604645"></rect><rect x="9.1" y="11.10000038146973" width="0.800000011920929" height="0.800000011920929" rx="0.4000000059604645"></rect><rect x="10.1" y="11.10000038146973" width="0.800000011920929" height="0.800000011920929" rx="0.4000000059604645"></rect><rect x="11.1" y="11.10000038146973" width="0.800000011920929" height="0.800000011920929" rx="0.4000000059604645"></rect><rect x="14.1" y="11.10000038146973" width="0.800000011920929" height="0.800000011920929" rx="0.4000000059604645"></rect><rect x="15.1" y="11.10000038146973" width="0.800000011920929" height="0.800000011920929" rx="0.4000000059604645"></rect><rect x="17.1" y="11.10000038146973" width="0.800000011920929" height="0.800000011920929" rx="0.4000000059604645"></rect><rect x="18.1" y="11.10000038146973" width="0.800000011920929" height="0.800000011920929" rx="0.4000000059604645"></rect><rect x="19.1" y="11.10000038146973" width="0.800000011920929" height="0.800000011920929" rx="0.4000000059604645"></rect><rect x="20.1" y="11.10000038146973" width="0.800000011920929" height="0.800000011920929" rx="0.4000000059604645"></rect><rect x="22.1" y="11.10000038146973" width="0.800000011920929" height="0.800000011920929" rx="0.4000000059604645"></rect><rect x="28.1" y="11.10000038146973" width="0.800000011920929" height="0.800000011920929" rx="0.4000000059604645"></rect><rect x="29.1" y="11.10000038146973" width="0.800000011920929" height="0.800000011920929" rx="0.4000000059604645"></rect><rect x="31.1" y="11.10000038146973" width="0.800000011920929" height="0.800000011920929" rx="0.4000000059604645"></rect><rect x="32.1" y="11.10000038146973" width="0.800000011920929" height="0.800000011920929" rx="0.4000000059604645"></rect><rect x="0.1" y="12.10000038146973" width="0.800000011920929" height="0.800000011920929" rx="0.4000000059604645"></rect><rect x="2.1" y="12.10000038146973" width="0.800000011920929" height="0.800000011920929" rx="0.4000000059604645"></rect><rect x="5.1" y="12.10000038146973" width="0.800000011920929" height="0.800000011920929" rx="0.4000000059604645"></rect><rect x="6.1" y="12.10000038146973" width="0.800000011920929" height="0.800000011920929" rx="0.4000000059604645"></rect><rect x="7.1" y="12.10000038146973" width="0.800000011920929" height="0.800000011920929" rx="0.4000000059604645"></rect><rect x="10.1" y="12.10000038146973" width="0.800000011920929" height="0.800000011920929" rx="0.4000000059604645"></rect><rect x="13.1" y="12.10000038146973" width="0.800000011920929" height="0.800000011920929" rx="0.4000000059604645"></rect><rect x="16.1" y="12.10000038146973" width="0.800000011920929" height="0.800000011920929" rx="0.4000000059604645"></rect><rect x="22.1" y="12.10000038146973" width="0.800000011920929" height="0.800000011920929" rx="0.4000000059604645"></rect><rect x="23.1" y="12.10000038146973" width="0.800000011920929" height="0.800000011920929" rx="0.4000000059604645"></rect><rect x="24.1" y="12.10000038146973" width="0.800000011920929" height="0.800000011920929" rx="0.4000000059604645"></rect><rect x="26.1" y="12.10000038146973" width="0.800000011920929" height="0.800000011920929" rx="0.4000000059604645"></rect><rect x="28.1" y="12.10000038146973" width="0.800000011920929" height="0.800000011920929" rx="0.4000000059604645"></rect><rect x="32.1" y="12.10000038146973" width="0.800000011920929" height="0.800000011920929" rx="0.4000000059604645"></rect><rect x="1.1" y="13.10000038146973" width="0.800000011920929" height="0.800000011920929" rx="0.4000000059604645"></rect><rect x="7.1" y="13.10000038146973" width="0.800000011920929" height="0.800000011920929" rx="0.4000000059604645"></rect><rect x="9.1" y="13.10000038146973" width="0.800000011920929" height="0.800000011920929" rx="0.4000000059604645"></rect><rect x="11.1" y="13.10000038146973" width="0.800000011920929" height="0.800000011920929" rx="0.4000000059604645"></rect><rect x="13.1" y="13.10000038146973" width="0.800000011920929" height="0.800000011920929" rx="0.4000000059604645"></rect><rect x="15.1" y="13.10000038146973" width="0.800000011920929" height="0.800000011920929" rx="0.4000000059604645"></rect><rect x="16.1" y="13.10000038146973" width="0.800000011920929" height="0.800000011920929" rx="0.4000000059604645"></rect><rect x="17.1" y="13.10000038146973" width="0.800000011920929" height="0.800000011920929" rx="0.4000000059604645"></rect><rect x="19.1" y="13.10000038146973" width="0.800000011920929" height="0.800000011920929" rx="0.4000000059604645"></rect><rect x="21.1" y="13.10000038146973" width="0.800000011920929" height="0.800000011920929" rx="0.4000000059604645"></rect><rect x="23.1" y="13.10000038146973" width="0.800000011920929" height="0.800000011920929" rx="0.4000000059604645"></rect><rect x="24.1" y="13.10000038146973" width="0.800000011920929" height="0.800000011920929" rx="0.4000000059604645"></rect><rect x="27.1" y="13.10000038146973" width="0.800000011920929" height="0.800000011920929" rx="0.4000000059604645"></rect><rect x="29.1" y="13.10000038146973" width="0.800000011920929" height="0.800000011920929" rx="0.4000000059604645"></rect><rect x="31.1" y="13.10000038146973" width="0.800000011920929" height="0.800000011920929" rx="0.4000000059604645"></rect><rect x="3.1" y="14.10000038146973" width="0.800000011920929" height="0.800000011920929" rx="0.4000000059604645"></rect><rect x="4.1" y="14.10000038146973" width="0.800000011920929" height="0.800000011920929" rx="0.4000000059604645"></rect><rect x="5.1" y="14.10000038146973" width="0.800000011920929" height="0.800000011920929" rx="0.4000000059604645"></rect><rect x="6.1" y="14.10000038146973" width="0.800000011920929" height="0.800000011920929" rx="0.4000000059604645"></rect><rect x="10.1" y="14.10000038146973" width="0.800000011920929" height="0.800000011920929" rx="0.4000000059604645"></rect><rect x="12.1" y="14.10000038146973" width="0.800000011920929" height="0.800000011920929" rx="0.4000000059604645"></rect><rect x="14.1" y="14.10000038146973" width="0.800000011920929" height="0.800000011920929" rx="0.4000000059604645"></rect><rect x="17.1" y="14.10000038146973" width="0.800000011920929" height="0.800000011920929" rx="0.4000000059604645"></rect><rect x="18.1" y="14.10000038146973" width="0.800000011920929" height="0.800000011920929" rx="0.4000000059604645"></rect><rect x="19.1" y="14.10000038146973" width="0.800000011920929" height="0.800000011920929" rx="0.4000000059604645"></rect><rect x="23.1" y="14.10000038146973" width="0.800000011920929" height="0.800000011920929" rx="0.4000000059604645"></rect><rect x="27.1" y="14.10000038146973" width="0.800000011920929" height="0.800000011920929" rx="0.4000000059604645"></rect><rect x="30.1" y="14.10000038146973" width="0.800000011920929" height="0.800000011920929" rx="0.4000000059604645"></rect><rect x="31.1" y="14.10000038146973" width="0.800000011920929" height="0.800000011920929" rx="0.4000000059604645"></rect><rect x="1.1" y="15.10000038146973" width="0.800000011920929" height="0.800000011920929" rx="0.4000000059604645"></rect><rect x="2.1" y="15.10000038146973" width="0.800000011920929" height="0.800000011920929" rx="0.4000000059604645"></rect><rect x="3.1" y="15.10000038146973" width="0.800000011920929" height="0.800000011920929" rx="0.4000000059604645"></rect><rect x="7.1" y="15.10000038146973" width="0.800000011920929" height="0.800000011920929" rx="0.4000000059604645"></rect><rect x="8.1" y="15.10000038146973" width="0.800000011920929" height="0.800000011920929" rx="0.4000000059604645"></rect><rect x="12.1" y="15.10000038146973" width="0.800000011920929" height="0.800000011920929" rx="0.4000000059604645"></rect><rect x="13.1" y="15.10000038146973" width="0.800000011920929" height="0.800000011920929" rx="0.4000000059604645"></rect><rect x="14.1" y="15.10000038146973" width="0.800000011920929" height="0.800000011920929" rx="0.4000000059604645"></rect><rect x="15.1" y="15.10000038146973" width="0.800000011920929" height="0.800000011920929" rx="0.4000000059604645"></rect><rect x="16.1" y="15.10000038146973" width="0.800000011920929" height="0.800000011920929" rx="0.4000000059604645"></rect><rect x="17.1" y="15.10000038146973" width="0.800000011920929" height="0.800000011920929" rx="0.4000000059604645"></rect><rect x="19.1" y="15.10000038146973" width="0.800000011920929" height="0.800000011920929" rx="0.4000000059604645"></rect><rect x="20.1" y="15.10000038146973" width="0.800000011920929" height="0.800000011920929" rx="0.4000000059604645"></rect><rect x="21.1" y="15.10000038146973" width="0.800000011920929" height="0.800000011920929" rx="0.4000000059604645"></rect><rect x="26.1" y="15.10000038146973" width="0.800000011920929" height="0.800000011920929" rx="0.4000000059604645"></rect><rect x="27.1" y="15.10000038146973" width="0.800000011920929" height="0.800000011920929" rx="0.4000000059604645"></rect><rect x="28.1" y="15.10000038146973" width="0.800000011920929" height="0.800000011920929" rx="0.4000000059604645"></rect><rect x="2.1" y="16.10000038146973" width="0.800000011920929" height="0.800000011920929" rx="0.4000000059604645"></rect><rect x="6.1" y="16.10000038146973" width="0.800000011920929" height="0.800000011920929" rx="0.4000000059604645"></rect><rect x="7.1" y="16.10000038146973" width="0.800000011920929" height="0.800000011920929" rx="0.4000000059604645"></rect><rect x="9.1" y="16.10000038146973" width="0.800000011920929" height="0.800000011920929" rx="0.4000000059604645"></rect><rect x="13.1" y="16.10000038146973" width="0.800000011920929" height="0.800000011920929" rx="0.4000000059604645"></rect><rect x="21.1" y="16.10000038146973" width="0.800000011920929" height="0.800000011920929" rx="0.4000000059604645"></rect><rect x="26.1" y="16.10000038146973" width="0.800000011920929" height="0.800000011920929" rx="0.4000000059604645"></rect><rect x="27.1" y="16.10000038146973" width="0.800000011920929" height="0.800000011920929" rx="0.4000000059604645"></rect><rect x="28.1" y="16.10000038146973" width="0.800000011920929" height="0.800000011920929" rx="0.4000000059604645"></rect><rect x="29.1" y="16.10000038146973" width="0.800000011920929" height="0.800000011920929" rx="0.4000000059604645"></rect><rect x="30.1" y="16.10000038146973" width="0.800000011920929" height="0.800000011920929" rx="0.4000000059604645"></rect><rect x="31.1" y="16.10000038146973" width="0.800000011920929" height="0.800000011920929" rx="0.4000000059604645"></rect><rect x="32.1" y="16.10000038146973" width="0.800000011920929" height="0.800000011920929" rx="0.4000000059604645"></rect><rect x="0.1" y="17.10000038146973" width="0.800000011920929" height="0.800000011920929" rx="0.4000000059604645"></rect><rect x="7.1" y="17.10000038146973" width="0.800000011920929" height="0.800000011920929" rx="0.4000000059604645"></rect><rect x="8.1" y="17.10000038146973" width="0.800000011920929" height="0.800000011920929" rx="0.4000000059604645"></rect><rect x="10.1" y="17.10000038146973" width="0.800000011920929" height="0.800000011920929" rx="0.4000000059604645"></rect><rect x="11.1" y="17.10000038146973" width="0.800000011920929" height="0.800000011920929" rx="0.4000000059604645"></rect><rect x="14.1" y="17.10000038146973" width="0.800000011920929" height="0.800000011920929" rx="0.4000000059604645"></rect><rect x="17.1" y="17.10000038146973" width="0.800000011920929" height="0.800000011920929" rx="0.4000000059604645"></rect><rect x="19.1" y="17.10000038146973" width="0.800000011920929" height="0.800000011920929" rx="0.4000000059604645"></rect><rect x="20.1" y="17.10000038146973" width="0.800000011920929" height="0.800000011920929" rx="0.4000000059604645"></rect><rect x="23.1" y="17.10000038146973" width="0.800000011920929" height="0.800000011920929" rx="0.4000000059604645"></rect><rect x="24.1" y="17.10000038146973" width="0.800000011920929" height="0.800000011920929" rx="0.4000000059604645"></rect><rect x="27.1" y="17.10000038146973" width="0.800000011920929" height="0.800000011920929" rx="0.4000000059604645"></rect><rect x="31.1" y="17.10000038146973" width="0.800000011920929" height="0.800000011920929" rx="0.4000000059604645"></rect><rect x="1.1" y="18.10000038146973" width="0.800000011920929" height="0.800000011920929" rx="0.4000000059604645"></rect><rect x="2.1" y="18.10000038146973" width="0.800000011920929" height="0.800000011920929" rx="0.4000000059604645"></rect><rect x="3.1" y="18.10000038146973" width="0.800000011920929" height="0.800000011920929" rx="0.4000000059604645"></rect><rect x="6.1" y="18.10000038146973" width="0.800000011920929" height="0.800000011920929" rx="0.4000000059604645"></rect><rect x="8.1" y="18.10000038146973" width="0.800000011920929" height="0.800000011920929" rx="0.4000000059604645"></rect><rect x="9.1" y="18.10000038146973" width="0.800000011920929" height="0.800000011920929" rx="0.4000000059604645"></rect><rect x="11.1" y="18.10000038146973" width="0.800000011920929" height="0.800000011920929" rx="0.4000000059604645"></rect><rect x="17.1" y="18.10000038146973" width="0.800000011920929" height="0.800000011920929" rx="0.4000000059604645"></rect><rect x="22.1" y="18.10000038146973" width="0.800000011920929" height="0.800000011920929" rx="0.4000000059604645"></rect><rect x="23.1" y="18.10000038146973" width="0.800000011920929" height="0.800000011920929" rx="0.4000000059604645"></rect><rect x="24.1" y="18.10000038146973" width="0.800000011920929" height="0.800000011920929" rx="0.4000000059604645"></rect><rect x="25.1" y="18.10000038146973" width="0.800000011920929" height="0.800000011920929" rx="0.4000000059604645"></rect><rect x="28.1" y="18.10000038146973" width="0.800000011920929" height="0.800000011920929" rx="0.4000000059604645"></rect><rect x="29.1" y="18.10000038146973" width="0.800000011920929" height="0.800000011920929" rx="0.4000000059604645"></rect><rect x="2.1" y="19.10000038146973" width="0.800000011920929" height="0.800000011920929" rx="0.4000000059604645"></rect><rect x="3.1" y="19.10000038146973" width="0.800000011920929" height="0.800000011920929" rx="0.4000000059604645"></rect><rect x="5.1" y="19.10000038146973" width="0.800000011920929" height="0.800000011920929" rx="0.4000000059604645"></rect><rect x="7.1" y="19.10000038146973" width="0.800000011920929" height="0.800000011920929" rx="0.4000000059604645"></rect><rect x="8.1" y="19.10000038146973" width="0.800000011920929" height="0.800000011920929" rx="0.4000000059604645"></rect><rect x="9.1" y="19.10000038146973" width="0.800000011920929" height="0.800000011920929" rx="0.4000000059604645"></rect><rect x="10.1" y="19.10000038146973" width="0.800000011920929" height="0.800000011920929" rx="0.4000000059604645"></rect><rect x="11.1" y="19.10000038146973" width="0.800000011920929" height="0.800000011920929" rx="0.4000000059604645"></rect><rect x="16.1" y="19.10000038146973" width="0.800000011920929" height="0.800000011920929" rx="0.4000000059604645"></rect><rect x="18.1" y="19.10000038146973" width="0.800000011920929" height="0.800000011920929" rx="0.4000000059604645"></rect><rect x="19.1" y="19.10000038146973" width="0.800000011920929" height="0.800000011920929" rx="0.4000000059604645"></rect><rect x="21.1" y="19.10000038146973" width="0.800000011920929" height="0.800000011920929" rx="0.4000000059604645"></rect><rect x="25.1" y="19.10000038146973" width="0.800000011920929" height="0.800000011920929" rx="0.4000000059604645"></rect><rect x="26.1" y="19.10000038146973" width="0.800000011920929" height="0.800000011920929" rx="0.4000000059604645"></rect><rect x="27.1" y="19.10000038146973" width="0.800000011920929" height="0.800000011920929" rx="0.4000000059604645"></rect><rect x="28.1" y="19.10000038146973" width="0.800000011920929" height="0.800000011920929" rx="0.4000000059604645"></rect><rect x="31.1" y="19.10000038146973" width="0.800000011920929" height="0.800000011920929" rx="0.4000000059604645"></rect><rect x="3.1" y="20.10000038146973" width="0.800000011920929" height="0.800000011920929" rx="0.4000000059604645"></rect><rect x="4.1" y="20.10000038146973" width="0.800000011920929" height="0.800000011920929" rx="0.4000000059604645"></rect><rect x="6.1" y="20.10000038146973" width="0.800000011920929" height="0.800000011920929" rx="0.4000000059604645"></rect><rect x="7.1" y="20.10000038146973" width="0.800000011920929" height="0.800000011920929" rx="0.4000000059604645"></rect><rect x="8.1" y="20.10000038146973" width="0.800000011920929" height="0.800000011920929" rx="0.4000000059604645"></rect><rect x="9.1" y="20.10000038146973" width="0.800000011920929" height="0.800000011920929" rx="0.4000000059604645"></rect><rect x="14.1" y="20.10000038146973" width="0.800000011920929" height="0.800000011920929" rx="0.4000000059604645"></rect><rect x="15.1" y="20.10000038146973" width="0.800000011920929" height="0.800000011920929" rx="0.4000000059604645"></rect><rect x="16.1" y="20.10000038146973" width="0.800000011920929" height="0.800000011920929" rx="0.4000000059604645"></rect><rect x="17.1" y="20.10000038146973" width="0.800000011920929" height="0.800000011920929" rx="0.4000000059604645"></rect><rect x="18.1" y="20.10000038146973" width="0.800000011920929" height="0.800000011920929" rx="0.4000000059604645"></rect><rect x="19.1" y="20.10000038146973" width="0.800000011920929" height="0.800000011920929" rx="0.4000000059604645"></rect><rect x="20.1" y="20.10000038146973" width="0.800000011920929" height="0.800000011920929" rx="0.4000000059604645"></rect><rect x="21.1" y="20.10000038146973" width="0.800000011920929" height="0.800000011920929" rx="0.4000000059604645"></rect><rect x="22.1" y="20.10000038146973" width="0.800000011920929" height="0.800000011920929" rx="0.4000000059604645"></rect><rect x="24.1" y="20.10000038146973" width="0.800000011920929" height="0.800000011920929" rx="0.4000000059604645"></rect><rect x="26.1" y="20.10000038146973" width="0.800000011920929" height="0.800000011920929" rx="0.4000000059604645"></rect><rect x="28.1" y="20.10000038146973" width="0.800000011920929" height="0.800000011920929" rx="0.4000000059604645"></rect><rect x="29.1" y="20.10000038146973" width="0.800000011920929" height="0.800000011920929" rx="0.4000000059604645"></rect><rect x="31.1" y="20.10000038146973" width="0.800000011920929" height="0.800000011920929" rx="0.4000000059604645"></rect><rect x="32.1" y="20.10000038146973" width="0.800000011920929" height="0.800000011920929" rx="0.4000000059604645"></rect><rect x="0.1" y="21.10000038146973" width="0.800000011920929" height="0.800000011920929" rx="0.4000000059604645"></rect><rect x="3.1" y="21.10000038146973" width="0.800000011920929" height="0.800000011920929" rx="0.4000000059604645"></rect><rect x="4.1" y="21.10000038146973" width="0.800000011920929" height="0.800000011920929" rx="0.4000000059604645"></rect><rect x="7.1" y="21.10000038146973" width="0.800000011920929" height="0.800000011920929" rx="0.4000000059604645"></rect><rect x="11.1" y="21.10000038146973" width="0.800000011920929" height="0.800000011920929" rx="0.4000000059604645"></rect><rect x="13.1" y="21.10000038146973" width="0.800000011920929" height="0.800000011920929" rx="0.4000000059604645"></rect><rect x="16.1" y="21.10000038146973" width="0.800000011920929" height="0.800000011920929" rx="0.4000000059604645"></rect><rect x="17.1" y="21.10000038146973" width="0.800000011920929" height="0.800000011920929" rx="0.4000000059604645"></rect><rect x="19.1" y="21.10000038146973" width="0.800000011920929" height="0.800000011920929" rx="0.4000000059604645"></rect><rect x="20.1" y="21.10000038146973" width="0.800000011920929" height="0.800000011920929" rx="0.4000000059604645"></rect><rect x="23.1" y="21.10000038146973" width="0.800000011920929" height="0.800000011920929" rx="0.4000000059604645"></rect><rect x="25.1" y="21.10000038146973" width="0.800000011920929" height="0.800000011920929" rx="0.4000000059604645"></rect><rect x="27.1" y="21.10000038146973" width="0.800000011920929" height="0.800000011920929" rx="0.4000000059604645"></rect><rect x="31.1" y="21.10000038146973" width="0.800000011920929" height="0.800000011920929" rx="0.4000000059604645"></rect><rect x="2.1" y="22.10000038146973" width="0.800000011920929" height="0.800000011920929" rx="0.4000000059604645"></rect><rect x="6.1" y="22.10000038146973" width="0.800000011920929" height="0.800000011920929" rx="0.4000000059604645"></rect><rect x="10.1" y="22.10000038146973" width="0.800000011920929" height="0.800000011920929" rx="0.4000000059604645"></rect><rect x="11.1" y="22.10000038146973" width="0.800000011920929" height="0.800000011920929" rx="0.4000000059604645"></rect><rect x="12.1" y="22.10000038146973" width="0.800000011920929" height="0.800000011920929" rx="0.4000000059604645"></rect><rect x="13.1" y="22.10000038146973" width="0.800000011920929" height="0.800000011920929" rx="0.4000000059604645"></rect><rect x="14.1" y="22.10000038146973" width="0.800000011920929" height="0.800000011920929" rx="0.4000000059604645"></rect><rect x="17.1" y="22.10000038146973" width="0.800000011920929" height="0.800000011920929" rx="0.4000000059604645"></rect><rect x="19.1" y="22.10000038146973" width="0.800000011920929" height="0.800000011920929" rx="0.4000000059604645"></rect><rect x="20.1" y="22.10000038146973" width="0.800000011920929" height="0.800000011920929" rx="0.4000000059604645"></rect><rect x="21.1" y="22.10000038146973" width="0.800000011920929" height="0.800000011920929" rx="0.4000000059604645"></rect><rect x="23.1" y="22.10000038146973" width="0.800000011920929" height="0.800000011920929" rx="0.4000000059604645"></rect><rect x="24.1" y="22.10000038146973" width="0.800000011920929" height="0.800000011920929" rx="0.4000000059604645"></rect><rect x="27.1" y="22.10000038146973" width="0.800000011920929" height="0.800000011920929" rx="0.4000000059604645"></rect><rect x="28.1" y="22.10000038146973" width="0.800000011920929" height="0.800000011920929" rx="0.4000000059604645"></rect><rect x="31.1" y="22.10000038146973" width="0.800000011920929" height="0.800000011920929" rx="0.4000000059604645"></rect><rect x="2.1" y="23.10000038146973" width="0.800000011920929" height="0.800000011920929" rx="0.4000000059604645"></rect><rect x="3.1" y="23.10000038146973" width="0.800000011920929" height="0.800000011920929" rx="0.4000000059604645"></rect><rect x="4.1" y="23.10000038146973" width="0.800000011920929" height="0.800000011920929" rx="0.4000000059604645"></rect><rect x="8.1" y="23.10000038146973" width="0.800000011920929" height="0.800000011920929" rx="0.4000000059604645"></rect><rect x="11.1" y="23.10000038146973" width="0.800000011920929" height="0.800000011920929" rx="0.4000000059604645"></rect><rect x="12.1" y="23.10000038146973" width="0.800000011920929" height="0.800000011920929" rx="0.4000000059604645"></rect><rect x="13.1" y="23.10000038146973" width="0.800000011920929" height="0.800000011920929" rx="0.4000000059604645"></rect><rect x="14.1" y="23.10000038146973" width="0.800000011920929" height="0.800000011920929" rx="0.4000000059604645"></rect><rect x="16.1" y="23.10000038146973" width="0.800000011920929" height="0.800000011920929" rx="0.4000000059604645"></rect><rect x="21.1" y="23.10000038146973" width="0.800000011920929" height="0.800000011920929" rx="0.4000000059604645"></rect><rect x="22.1" y="23.10000038146973" width="0.800000011920929" height="0.800000011920929" rx="0.4000000059604645"></rect><rect x="23.1" y="23.10000038146973" width="0.800000011920929" height="0.800000011920929" rx="0.4000000059604645"></rect><rect x="24.1" y="23.10000038146973" width="0.800000011920929" height="0.800000011920929" rx="0.4000000059604645"></rect><rect x="28.1" y="23.10000038146973" width="0.800000011920929" height="0.800000011920929" rx="0.4000000059604645"></rect><rect x="31.1" y="23.10000038146973" width="0.800000011920929" height="0.800000011920929" rx="0.4000000059604645"></rect><rect x="32.1" y="23.10000038146973" width="0.800000011920929" height="0.800000011920929" rx="0.4000000059604645"></rect><rect x="0.1" y="24.10000038146973" width="0.800000011920929" height="0.800000011920929" rx="0.4000000059604645"></rect><rect x="1.1" y="24.10000038146973" width="0.800000011920929" height="0.800000011920929" rx="0.4000000059604645"></rect><rect x="2.1" y="24.10000038146973" width="0.800000011920929" height="0.800000011920929" rx="0.4000000059604645"></rect><rect x="5.1" y="24.10000038146973" width="0.800000011920929" height="0.800000011920929" rx="0.4000000059604645"></rect><rect x="6.1" y="24.10000038146973" width="0.800000011920929" height="0.800000011920929" rx="0.4000000059604645"></rect><rect x="8.1" y="24.10000038146973" width="0.800000011920929" height="0.800000011920929" rx="0.4000000059604645"></rect><rect x="9.1" y="24.10000038146973" width="0.800000011920929" height="0.800000011920929" rx="0.4000000059604645"></rect><rect x="12.1" y="24.10000038146973" width="0.800000011920929" height="0.800000011920929" rx="0.4000000059604645"></rect><rect x="13.1" y="24.10000038146973" width="0.800000011920929" height="0.800000011920929" rx="0.4000000059604645"></rect><rect x="14.1" y="24.10000038146973" width="0.800000011920929" height="0.800000011920929" rx="0.4000000059604645"></rect><rect x="18.1" y="24.10000038146973" width="0.800000011920929" height="0.800000011920929" rx="0.4000000059604645"></rect><rect x="19.1" y="24.10000038146973" width="0.800000011920929" height="0.800000011920929" rx="0.4000000059604645"></rect><rect x="20.1" y="24.10000038146973" width="0.800000011920929" height="0.800000011920929" rx="0.4000000059604645"></rect><rect x="21.1" y="24.10000038146973" width="0.800000011920929" height="0.800000011920929" rx="0.4000000059604645"></rect><rect x="22.1" y="24.10000038146973" width="0.800000011920929" height="0.800000011920929" rx="0.4000000059604645"></rect><rect x="24.1" y="24.10000038146973" width="0.800000011920929" height="0.800000011920929" rx="0.4000000059604645"></rect><rect x="25.1" y="24.10000038146973" width="0.800000011920929" height="0.800000011920929" rx="0.4000000059604645"></rect><rect x="26.1" y="24.10000038146973" width="0.800000011920929" height="0.800000011920929" rx="0.4000000059604645"></rect><rect x="27.1" y="24.10000038146973" width="0.800000011920929" height="0.800000011920929" rx="0.4000000059604645"></rect><rect x="28.1" y="24.10000038146973" width="0.800000011920929" height="0.800000011920929" rx="0.4000000059604645"></rect><rect x="29.1" y="24.10000038146973" width="0.800000011920929" height="0.800000011920929" rx="0.4000000059604645"></rect><rect x="8.1" y="25.10000038146973" width="0.800000011920929" height="0.800000011920929" rx="0.4000000059604645"></rect><rect x="10.1" y="25.10000038146973" width="0.800000011920929" height="0.800000011920929" rx="0.4000000059604645"></rect><rect x="12.1" y="25.10000038146973" width="0.800000011920929" height="0.800000011920929" rx="0.4000000059604645"></rect><rect x="13.1" y="25.10000038146973" width="0.800000011920929" height="0.800000011920929" rx="0.4000000059604645"></rect><rect x="14.1" y="25.10000038146973" width="0.800000011920929" height="0.800000011920929" rx="0.4000000059604645"></rect><rect x="16.1" y="25.10000038146973" width="0.800000011920929" height="0.800000011920929" rx="0.4000000059604645"></rect><rect x="17.1" y="25.10000038146973" width="0.800000011920929" height="0.800000011920929" rx="0.4000000059604645"></rect><rect x="19.1" y="25.10000038146973" width="0.800000011920929" height="0.800000011920929" rx="0.4000000059604645"></rect><rect x="23.1" y="25.10000038146973" width="0.800000011920929" height="0.800000011920929" rx="0.4000000059604645"></rect><rect x="24.1" y="25.10000038146973" width="0.800000011920929" height="0.800000011920929" rx="0.4000000059604645"></rect><rect x="28.1" y="25.10000038146973" width="0.800000011920929" height="0.800000011920929" rx="0.4000000059604645"></rect><rect x="29.1" y="25.10000038146973" width="0.800000011920929" height="0.800000011920929" rx="0.4000000059604645"></rect><rect x="31.1" y="25.10000038146973" width="0.800000011920929" height="0.800000011920929" rx="0.4000000059604645"></rect><rect x="9.1" y="0.1000000014901161" width="0.800000011920929" height="0.800000011920929" rx="0.4000000059604645"></rect><rect x="10.1" y="0.1000000014901161" width="0.800000011920929" height="0.800000011920929" rx="0.4000000059604645"></rect><rect x="14.1" y="0.1000000014901161" width="0.800000011920929" height="0.800000011920929" rx="0.4000000059604645"></rect><rect x="15.1" y="0.1000000014901161" width="0.800000011920929" height="0.800000011920929" rx="0.4000000059604645"></rect><rect x="16.1" y="0.1000000014901161" width="0.800000011920929" height="0.800000011920929" rx="0.4000000059604645"></rect><rect x="17.1" y="0.1000000014901161" width="0.800000011920929" height="0.800000011920929" rx="0.4000000059604645"></rect><rect x="18.1" y="0.1000000014901161" width="0.800000011920929" height="0.800000011920929" rx="0.4000000059604645"></rect><rect x="21.1" y="0.1000000014901161" width="0.800000011920929" height="0.800000011920929" rx="0.4000000059604645"></rect><rect x="23.1" y="0.1000000014901161" width="0.800000011920929" height="0.800000011920929" rx="0.4000000059604645"></rect><rect x="24.1" y="0.1000000014901161" width="0.800000011920929" height="0.800000011920929" rx="0.4000000059604645"></rect><rect x="8.1" y="1.100000023841858" width="0.800000011920929" height="0.800000011920929" rx="0.4000000059604645"></rect><rect x="9.1" y="1.100000023841858" width="0.800000011920929" height="0.800000011920929" rx="0.4000000059604645"></rect><rect x="12.1" y="1.100000023841858" width="0.800000011920929" height="0.800000011920929" rx="0.4000000059604645"></rect><rect x="13.1" y="1.100000023841858" width="0.800000011920929" height="0.800000011920929" rx="0.4000000059604645"></rect><rect x="14.1" y="1.100000023841858" width="0.800000011920929" height="0.800000011920929" rx="0.4000000059604645"></rect><rect x="15.1" y="1.100000023841858" width="0.800000011920929" height="0.800000011920929" rx="0.4000000059604645"></rect><rect x="16.1" y="1.100000023841858" width="0.800000011920929" height="0.800000011920929" rx="0.4000000059604645"></rect><rect x="17.1" y="1.100000023841858" width="0.800000011920929" height="0.800000011920929" rx="0.4000000059604645"></rect><rect x="20.1" y="1.100000023841858" width="0.800000011920929" height="0.800000011920929" rx="0.4000000059604645"></rect><rect x="21.1" y="1.100000023841858" width="0.800000011920929" height="0.800000011920929" rx="0.4000000059604645"></rect><rect x="22.1" y="1.100000023841858" width="0.800000011920929" height="0.800000011920929" rx="0.4000000059604645"></rect><rect x="24.1" y="1.100000023841858" width="0.800000011920929" height="0.800000011920929" rx="0.4000000059604645"></rect><rect x="9.1" y="2.099999904632568" width="0.800000011920929" height="0.800000011920929" rx="0.4000000059604645"></rect><rect x="11.1" y="2.099999904632568" width="0.800000011920929" height="0.800000011920929" rx="0.4000000059604645"></rect><rect x="14.1" y="2.099999904632568" width="0.800000011920929" height="0.800000011920929" rx="0.4000000059604645"></rect><rect x="17.1" y="2.099999904632568" width="0.800000011920929" height="0.800000011920929" rx="0.4000000059604645"></rect><rect x="21.1" y="2.099999904632568" width="0.800000011920929" height="0.800000011920929" rx="0.4000000059604645"></rect><rect x="22.1" y="2.099999904632568" width="0.800000011920929" height="0.800000011920929" rx="0.4000000059604645"></rect><rect x="9.1" y="3.099999904632568" width="0.800000011920929" height="0.800000011920929" rx="0.4000000059604645"></rect><rect x="10.1" y="3.099999904632568" width="0.800000011920929" height="0.800000011920929" rx="0.4000000059604645"></rect><rect x="11.1" y="3.099999904632568" width="0.800000011920929" height="0.800000011920929" rx="0.4000000059604645"></rect><rect x="14.1" y="3.099999904632568" width="0.800000011920929" height="0.800000011920929" rx="0.4000000059604645"></rect><rect x="15.1" y="3.099999904632568" width="0.800000011920929" height="0.800000011920929" rx="0.4000000059604645"></rect><rect x="18.1" y="3.099999904632568" width="0.800000011920929" height="0.800000011920929" rx="0.4000000059604645"></rect><rect x="19.1" y="3.099999904632568" width="0.800000011920929" height="0.800000011920929" rx="0.4000000059604645"></rect><rect x="10.1" y="4.099999904632568" width="0.800000011920929" height="0.800000011920929" rx="0.4000000059604645"></rect><rect x="15.1" y="4.099999904632568" width="0.800000011920929" height="0.800000011920929" rx="0.4000000059604645"></rect><rect x="17.1" y="4.099999904632568" width="0.800000011920929" height="0.800000011920929" rx="0.4000000059604645"></rect><rect x="18.1" y="4.099999904632568" width="0.800000011920929" height="0.800000011920929" rx="0.4000000059604645"></rect><rect x="19.1" y="4.099999904632568" width="0.800000011920929" height="0.800000011920929" rx="0.4000000059604645"></rect><rect x="20.1" y="4.099999904632568" width="0.800000011920929" height="0.800000011920929" rx="0.4000000059604645"></rect><rect x="24.1" y="4.099999904632568" width="0.800000011920929" height="0.800000011920929" rx="0.4000000059604645"></rect><rect x="8.1" y="5.099999904632568" width="0.800000011920929" height="0.800000011920929" rx="0.4000000059604645"></rect><rect x="9.1" y="5.099999904632568" width="0.800000011920929" height="0.800000011920929" rx="0.4000000059604645"></rect><rect x="12.1" y="5.099999904632568" width="0.800000011920929" height="0.800000011920929" rx="0.4000000059604645"></rect><rect x="13.1" y="5.099999904632568" width="0.800000011920929" height="0.800000011920929" rx="0.4000000059604645"></rect><rect x="17.1" y="5.099999904632568" width="0.800000011920929" height="0.800000011920929" rx="0.4000000059604645"></rect><rect x="20.1" y="5.099999904632568" width="0.800000011920929" height="0.800000011920929" rx="0.4000000059604645"></rect><rect x="22.1" y="5.099999904632568" width="0.800000011920929" height="0.800000011920929" rx="0.4000000059604645"></rect><rect x="24.1" y="5.099999904632568" width="0.800000011920929" height="0.800000011920929" rx="0.4000000059604645"></rect><rect x="8.1" y="6.099999904632568" width="0.800000011920929" height="0.800000011920929" rx="0.4000000059604645"></rect><rect x="10.1" y="6.099999904632568" width="0.800000011920929" height="0.800000011920929" rx="0.4000000059604645"></rect><rect x="12.1" y="6.099999904632568" width="0.800000011920929" height="0.800000011920929" rx="0.4000000059604645"></rect><rect x="14.1" y="6.099999904632568" width="0.800000011920929" height="0.800000011920929" rx="0.4000000059604645"></rect><rect x="16.1" y="6.099999904632568" width="0.800000011920929" height="0.800000011920929" rx="0.4000000059604645"></rect><rect x="18.1" y="6.099999904632568" width="0.800000011920929" height="0.800000011920929" rx="0.4000000059604645"></rect><rect x="20.1" y="6.099999904632568" width="0.800000011920929" height="0.800000011920929" rx="0.4000000059604645"></rect><rect x="22.1" y="6.099999904632568" width="0.800000011920929" height="0.800000011920929" rx="0.4000000059604645"></rect><rect x="24.1" y="6.099999904632568" width="0.800000011920929" height="0.800000011920929" rx="0.4000000059604645"></rect><rect x="8.1" y="26.10000038146973" width="0.800000011920929" height="0.800000011920929" rx="0.4000000059604645"></rect><rect x="9.1" y="26.10000038146973" width="0.800000011920929" height="0.800000011920929" rx="0.4000000059604645"></rect><rect x="10.1" y="26.10000038146973" width="0.800000011920929" height="0.800000011920929" rx="0.4000000059604645"></rect><rect x="11.1" y="26.10000038146973" width="0.800000011920929" height="0.800000011920929" rx="0.4000000059604645"></rect><rect x="12.1" y="26.10000038146973" width="0.800000011920929" height="0.800000011920929" rx="0.4000000059604645"></rect><rect x="13.1" y="26.10000038146973" width="0.800000011920929" height="0.800000011920929" rx="0.4000000059604645"></rect><rect x="14.1" y="26.10000038146973" width="0.800000011920929" height="0.800000011920929" rx="0.4000000059604645"></rect><rect x="15.1" y="26.10000038146973" width="0.800000011920929" height="0.800000011920929" rx="0.4000000059604645"></rect><rect x="19.1" y="26.10000038146973" width="0.800000011920929" height="0.800000011920929" rx="0.4000000059604645"></rect><rect x="21.1" y="26.10000038146973" width="0.800000011920929" height="0.800000011920929" rx="0.4000000059604645"></rect><rect x="22.1" y="26.10000038146973" width="0.800000011920929" height="0.800000011920929" rx="0.4000000059604645"></rect><rect x="23.1" y="26.10000038146973" width="0.800000011920929" height="0.800000011920929" rx="0.4000000059604645"></rect><rect x="24.1" y="26.10000038146973" width="0.800000011920929" height="0.800000011920929" rx="0.4000000059604645"></rect><rect x="26.1" y="26.10000038146973" width="0.800000011920929" height="0.800000011920929" rx="0.4000000059604645"></rect><rect x="28.1" y="26.10000038146973" width="0.800000011920929" height="0.800000011920929" rx="0.4000000059604645"></rect><rect x="30.1" y="26.10000038146973" width="0.800000011920929" height="0.800000011920929" rx="0.4000000059604645"></rect><rect x="31.1" y="26.10000038146973" width="0.800000011920929" height="0.800000011920929" rx="0.4000000059604645"></rect><rect x="8.1" y="27.10000038146973" width="0.800000011920929" height="0.800000011920929" rx="0.4000000059604645"></rect><rect x="10.1" y="27.10000038146973" width="0.800000011920929" height="0.800000011920929" rx="0.4000000059604645"></rect><rect x="12.1" y="27.10000038146973" width="0.800000011920929" height="0.800000011920929" rx="0.4000000059604645"></rect><rect x="13.1" y="27.10000038146973" width="0.800000011920929" height="0.800000011920929" rx="0.4000000059604645"></rect><rect x="15.1" y="27.10000038146973" width="0.800000011920929" height="0.800000011920929" rx="0.4000000059604645"></rect><rect x="18.1" y="27.10000038146973" width="0.800000011920929" height="0.800000011920929" rx="0.4000000059604645"></rect><rect x="21.1" y="27.10000038146973" width="0.800000011920929" height="0.800000011920929" rx="0.4000000059604645"></rect><rect x="24.1" y="27.10000038146973" width="0.800000011920929" height="0.800000011920929" rx="0.4000000059604645"></rect><rect x="28.1" y="27.10000038146973" width="0.800000011920929" height="0.800000011920929" rx="0.4000000059604645"></rect><rect x="31.1" y="27.10000038146973" width="0.800000011920929" height="0.800000011920929" rx="0.4000000059604645"></rect><rect x="32.1" y="27.10000038146973" width="0.800000011920929" height="0.800000011920929" rx="0.4000000059604645"></rect><rect x="8.1" y="28.10000038146973" width="0.800000011920929" height="0.800000011920929" rx="0.4000000059604645"></rect><rect x="9.1" y="28.10000038146973" width="0.800000011920929" height="0.800000011920929" rx="0.4000000059604645"></rect><rect x="10.1" y="28.10000038146973" width="0.800000011920929" height="0.800000011920929" rx="0.4000000059604645"></rect><rect x="13.1" y="28.10000038146973" width="0.800000011920929" height="0.800000011920929" rx="0.4000000059604645"></rect><rect x="14.1" y="28.10000038146973" width="0.800000011920929" height="0.800000011920929" rx="0.4000000059604645"></rect><rect x="16.1" y="28.10000038146973" width="0.800000011920929" height="0.800000011920929" rx="0.4000000059604645"></rect><rect x="19.1" y="28.10000038146973" width="0.800000011920929" height="0.800000011920929" rx="0.4000000059604645"></rect><rect x="20.1" y="28.10000038146973" width="0.800000011920929" height="0.800000011920929" rx="0.4000000059604645"></rect><rect x="24.1" y="28.10000038146973" width="0.800000011920929" height="0.800000011920929" rx="0.4000000059604645"></rect><rect x="25.1" y="28.10000038146973" width="0.800000011920929" height="0.800000011920929" rx="0.4000000059604645"></rect><rect x="26.1" y="28.10000038146973" width="0.800000011920929" height="0.800000011920929" rx="0.4000000059604645"></rect><rect x="27.1" y="28.10000038146973" width="0.800000011920929" height="0.800000011920929" rx="0.4000000059604645"></rect><rect x="28.1" y="28.10000038146973" width="0.800000011920929" height="0.800000011920929" rx="0.4000000059604645"></rect><rect x="9.1" y="29.10000038146973" width="0.800000011920929" height="0.800000011920929" rx="0.4000000059604645"></rect><rect x="10.1" y="29.10000038146973" width="0.800000011920929" height="0.800000011920929" rx="0.4000000059604645"></rect><rect x="11.1" y="29.10000038146973" width="0.800000011920929" height="0.800000011920929" rx="0.4000000059604645"></rect><rect x="12.1" y="29.10000038146973" width="0.800000011920929" height="0.800000011920929" rx="0.4000000059604645"></rect><rect x="13.1" y="29.10000038146973" width="0.800000011920929" height="0.800000011920929" rx="0.4000000059604645"></rect><rect x="14.1" y="29.10000038146973" width="0.800000011920929" height="0.800000011920929" rx="0.4000000059604645"></rect><rect x="16.1" y="29.10000038146973" width="0.800000011920929" height="0.800000011920929" rx="0.4000000059604645"></rect><rect x="17.1" y="29.10000038146973" width="0.800000011920929" height="0.800000011920929" rx="0.4000000059604645"></rect><rect x="20.1" y="29.10000038146973" width="0.800000011920929" height="0.800000011920929" rx="0.4000000059604645"></rect><rect x="22.1" y="29.10000038146973" width="0.800000011920929" height="0.800000011920929" rx="0.4000000059604645"></rect><rect x="23.1" y="29.10000038146973" width="0.800000011920929" height="0.800000011920929" rx="0.4000000059604645"></rect><rect x="24.1" y="29.10000038146973" width="0.800000011920929" height="0.800000011920929" rx="0.4000000059604645"></rect><rect x="26.1" y="29.10000038146973" width="0.800000011920929" height="0.800000011920929" rx="0.4000000059604645"></rect><rect x="27.1" y="29.10000038146973" width="0.800000011920929" height="0.800000011920929" rx="0.4000000059604645"></rect><rect x="28.1" y="29.10000038146973" width="0.800000011920929" height="0.800000011920929" rx="0.4000000059604645"></rect><rect x="30.1" y="29.10000038146973" width="0.800000011920929" height="0.800000011920929" rx="0.4000000059604645"></rect><rect x="31.1" y="29.10000038146973" width="0.800000011920929" height="0.800000011920929" rx="0.4000000059604645"></rect><rect x="9.1" y="30.10000038146973" width="0.800000011920929" height="0.800000011920929" rx="0.4000000059604645"></rect><rect x="11.1" y="30.10000038146973" width="0.800000011920929" height="0.800000011920929" rx="0.4000000059604645"></rect><rect x="12.1" y="30.10000038146973" width="0.800000011920929" height="0.800000011920929" rx="0.4000000059604645"></rect><rect x="13.1" y="30.10000038146973" width="0.800000011920929" height="0.800000011920929" rx="0.4000000059604645"></rect><rect x="14.1" y="30.10000038146973" width="0.800000011920929" height="0.800000011920929" rx="0.4000000059604645"></rect><rect x="15.1" y="30.10000038146973" width="0.800000011920929" height="0.800000011920929" rx="0.4000000059604645"></rect><rect x="17.1" y="30.10000038146973" width="0.800000011920929" height="0.800000011920929" rx="0.4000000059604645"></rect><rect x="18.1" y="30.10000038146973" width="0.800000011920929" height="0.800000011920929" rx="0.4000000059604645"></rect><rect x="20.1" y="30.10000038146973" width="0.800000011920929" height="0.800000011920929" rx="0.4000000059604645"></rect><rect x="21.1" y="30.10000038146973" width="0.800000011920929" height="0.800000011920929" rx="0.4000000059604645"></rect><rect x="25.1" y="30.10000038146973" width="0.800000011920929" height="0.800000011920929" rx="0.4000000059604645"></rect><rect x="26.1" y="30.10000038146973" width="0.800000011920929" height="0.800000011920929" rx="0.4000000059604645"></rect><rect x="28.1" y="30.10000038146973" width="0.800000011920929" height="0.800000011920929" rx="0.4000000059604645"></rect><rect x="10.1" y="31.10000038146973" width="0.800000011920929" height="0.800000011920929" rx="0.4000000059604645"></rect><rect x="11.1" y="31.10000038146973" width="0.800000011920929" height="0.800000011920929" rx="0.4000000059604645"></rect><rect x="12.1" y="31.10000038146973" width="0.800000011920929" height="0.800000011920929" rx="0.4000000059604645"></rect><rect x="15.1" y="31.10000038146973" width="0.800000011920929" height="0.800000011920929" rx="0.4000000059604645"></rect><rect x="16.1" y="31.10000038146973" width="0.800000011920929" height="0.800000011920929" rx="0.4000000059604645"></rect><rect x="18.1" y="31.10000038146973" width="0.800000011920929" height="0.800000011920929" rx="0.4000000059604645"></rect><rect x="19.1" y="31.10000038146973" width="0.800000011920929" height="0.800000011920929" rx="0.4000000059604645"></rect><rect x="20.1" y="31.10000038146973" width="0.800000011920929" height="0.800000011920929" rx="0.4000000059604645"></rect><rect x="21.1" y="31.10000038146973" width="0.800000011920929" height="0.800000011920929" rx="0.4000000059604645"></rect><rect x="23.1" y="31.10000038146973" width="0.800000011920929" height="0.800000011920929" rx="0.4000000059604645"></rect><rect x="24.1" y="31.10000038146973" width="0.800000011920929" height="0.800000011920929" rx="0.4000000059604645"></rect><rect x="25.1" y="31.10000038146973" width="0.800000011920929" height="0.800000011920929" rx="0.4000000059604645"></rect><rect x="27.1" y="31.10000038146973" width="0.800000011920929" height="0.800000011920929" rx="0.4000000059604645"></rect><rect x="28.1" y="31.10000038146973" width="0.800000011920929" height="0.800000011920929" rx="0.4000000059604645"></rect><rect x="10.1" y="32.09999847412109" width="0.800000011920929" height="0.800000011920929" rx="0.4000000059604645"></rect><rect x="11.1" y="32.09999847412109" width="0.800000011920929" height="0.800000011920929" rx="0.4000000059604645"></rect><rect x="14.1" y="32.09999847412109" width="0.800000011920929" height="0.800000011920929" rx="0.4000000059604645"></rect><rect x="16.1" y="32.09999847412109" width="0.800000011920929" height="0.800000011920929" rx="0.4000000059604645"></rect><rect x="17.1" y="32.09999847412109" width="0.800000011920929" height="0.800000011920929" rx="0.4000000059604645"></rect><rect x="19.1" y="32.09999847412109" width="0.800000011920929" height="0.800000011920929" rx="0.4000000059604645"></rect><rect x="20.1" y="32.09999847412109" width="0.800000011920929" height="0.800000011920929" rx="0.4000000059604645"></rect><rect x="23.1" y="32.09999847412109" width="0.800000011920929" height="0.800000011920929" rx="0.4000000059604645"></rect><rect x="24.1" y="32.09999847412109" width="0.800000011920929" height="0.800000011920929" rx="0.4000000059604645"></rect><rect x="26.1" y="32.09999847412109" width="0.800000011920929" height="0.800000011920929" rx="0.4000000059604645"></rect><rect x="27.1" y="32.09999847412109" width="0.800000011920929" height="0.800000011920929" rx="0.4000000059604645"></rect><rect x="29.1" y="32.09999847412109" width="0.800000011920929" height="0.800000011920929" rx="0.4000000059604645"></rect><rect x="30.1" y="32.09999847412109" width="0.800000011920929" height="0.800000011920929" rx="0.4000000059604645"></rect><rect x="32.1" y="32.09999847412109" width="0.800000011920929" height="0.800000011920929" rx="0.4000000059604645"></rect></g><g class="qrRounded qrAlPatterns"><g class="qrDark" fill="#fabd2f"><rect x="0" y="0" width="7.0" height="7.0" rx="3.5"></rect><rect x="26" y="0" width="7.0" height="7.0" rx="3.5"></rect><rect x="0" y="26" width="7.0" height="7.0" rx="3.5"></rect></g><g class="qrLight" fill="#1d2021"><rect x="1" y="1" width="5.0" height="5.0" rx="2.5"></rect><rect x="27" y="1" width="5.0" height="5.0" rx="2.5"></rect><rect x="1" y="27" width="5.0" height="5.0" rx="2.5"></rect></g><g class="qrDark" fill="#fabd2f"><rect x="2" y="2" width="3.0" height="3.0" rx="1.5"></rect><rect x="28" y="2" width="3.0" height="3.0" rx="1.5"></rect><rect x="2" y="28" width="3.0" height="3.0" rx="1.5"></rect></g></g><image x="11" y="11" width="11" height="11" href="data:image/svg+xml,%3c?xml version='1.0' encoding='UTF-8' standalone='no'?%3e%3csvg class='QRcode' version='1.1' viewBox='-5 -5 20 20' id='svg6492' width='20' height='20' xmlns='http://www.w3.org/2000/svg' xmlns:svg='http://www.w3.org/2000/svg'%3e %3cdefs id='defs6496' /%3e %3cg id='g4009' transform='matrix(2.2060376%2c0%2c0%2c2.2060332%2c-31.399617%2c-31.399529)'%3e %3cg id='layer1' transform='translate(-166.16447%2c-423.68742)'%3e %3crect style='fill:%231d2021%3bfill-opacity:1%3bstroke:%2398971a%3bstroke-width:0%3bstroke-linecap:round%3bstroke-linejoin:round%3bpaint-order:stroke markers fill' id='rect1316' width='9.0660276' height='9.0660458' x='178.13145' y='435.65439' ry='0' /%3e %3cpath style='fill:%23d79921%3bfill-opacity:1%3bstroke:none%3bstroke-width:0.0910309' d='m 182.66872%2c435.95381 c 0%2c0 -0.31044%2c0.24533 -0.62692%2c0.489 -0.32556%2c-0.0103 -0.96411%2c0.0625 -1.31011%2c0.18838 -0.31872%2c-0.20192 -0.59878%2c-0.42486 -0.59878%2c-0.42486 0%2c0 -0.23932%2c0.41171 -0.38982%2c0.65333 -0.2232%2c0.1187 -0.44729%2c0.25222 -0.64702%2c0.42887 -0.2323%2c-0.0922 -0.50159%2c-0.20471 -0.51037%2c-0.20842 0.30763%2c0.6205 0.51444%2c1.24183 1.07701%2c1.61528 0.89565%2c-1.41453 5.05766%2c-1.28416 5.97183%2c-0.008 0.59079%2c-0.30815 0.82056%2c-0.97113 1.0529%2c-1.58322 -0.0255%2c0.008 -0.34161%2c0.11423 -0.54654%2c0.1924 -0.12236%2c-0.13322 -0.41076%2c-0.33803 -0.57468%2c-0.43689 -0.15548%2c-0.28472 -0.38178%2c-0.66937 -0.38178%2c-0.66937 0%2c0 -0.26803%2c0.19935 -0.57869%2c0.41685 -0.41971%2c-0.0775 -0.92735%2c-0.17161 -1.35432%2c-0.1483 -0.29064%2c-0.2389 -0.58271%2c-0.50503 -0.58271%2c-0.50503 z' id='path3054' /%3e %3cpath style='fill:%23fabd2f%3bfill-opacity:1%3bstroke:none%3bstroke-width:0.0910309' d='m 178.90377%2c438.39878 c 0%2c0 0.43603%2c1.05576 0.73886%2c1.78938 1.28319%2c1.69292 4.55995%2c1.81062 5.98845%2c0.0328 0.33803%2c-0.76182 0.79409%2c-1.83244 0.79409%2c-1.83244 -0.36648%2c0.54292 -0.96291%2c0.9177 -1.33024%2c1.11958 -0.26101%2c0.14299 -0.86328%2c0.22942 -0.86328%2c0.22942 l -1.58117%2c-0.81937 -1.59025%2c0.80298 c 0%2c0 -0.59426%2c-0.0955 -0.86329%2c-0.22123 -0.54297%2c-0.28985 -0.90816%2c-0.63229 -1.29317%2c-1.1011 z' id='path3051' /%3e %3c/g%3e %3cg aria-label='QRgen' id='text41857' style='font-style:italic%3bfont-weight:900%3bfont-stretch:expanded%3bfont-size:40px%3bline-height:1.25%3bfont-family:Iosevka%3b-inkscape-font-specification:%22Iosevka%2c Heavy Italic Expanded%22%3bfill:%23d79921%3bfill-opacity:1' transform='translate(-0.00990297%2c-0.00992747)'%3e %3cpath d='m 13.477649%2c20.56333 q -0.06133%2c0 -0.122667%2c-0.01067 -0.05867%2c-0.008 -0.114667%2c-0.032 -0.05333%2c-0.024 -0.096%2c-0.064 -0.04267%2c-0.03733 -0.06667%2c-0.09333 -0.024%2c-0.05333 -0.02667%2c-0.114666 -0.0027%2c-0.06133 0.008%2c-0.122667 -0.06933%2c-0.016 -0.130666%2c-0.04533 -0.06133%2c-0.032 -0.109334%2c-0.07733 -0.04533%2c-0.048 -0.07733%2c-0.106667 -0.02933%2c-0.06133 -0.04533%2c-0.130667 -0.01333%2c-0.06933 -0.01067%2c-0.138666 0.0027%2c-0.072 0.01333%2c-0.144001 l 0.136%2c-0.813334 q 0.01333%2c-0.07467 0.04%2c-0.146667 0.02667%2c-0.07467 0.07467%2c-0.138667 0.048%2c-0.06667 0.114667%2c-0.114667 0.06667%2c-0.048 0.138667%2c-0.07733 0.07467%2c-0.02933 0.149333%2c-0.04267 0.07467%2c-0.016 0.152%2c-0.016 0.088%2c0 0.170667%2c0.02133 0.08267%2c0.01867 0.154667%2c0.05867 0.072%2c0.04 0.122667%2c0.104001 0.05333%2c0.064 0.08%2c0.144 0.02667%2c0.08 0.02667%2c0.168 0%2c0.08533 -0.01333%2c0.173333 l -0.136%2c0.813335 q -0.008%2c0.05867 -0.02667%2c0.117333 -0.01867%2c0.056 -0.048%2c0.109334 -0.02933%2c0.05067 -0.072%2c0.09867 -0.04267%2c0.04533 -0.09333%2c0.08267 -0.048%2c0.03467 -0.104%2c0.06133 -0.056%2c0.024 -0.114667%2c0.03733 -0.0027%2c0.01867 -0.0053%2c0.03467 -0.0027%2c0.01867 -0.0027%2c0.03467 0.0027%2c0.01867 0.01067%2c0.03467 0.008%2c0.016 0.024%2c0.016 h 0.165333 v 0.320001 z m -0.226667%2c-0.738668 q 0.05067%2c0 0.101333%2c-0.016 0.05067%2c-0.01867 0.088%2c-0.056 0.03733%2c-0.04 0.056%2c-0.088 0.02133%2c-0.05067 0.02933%2c-0.09867 l 0.136%2c-0.813334 q 0.008%2c-0.05333 0.008%2c-0.104 0%2c-0.05067 -0.02133%2c-0.096 -0.01867%2c-0.04533 -0.064%2c-0.06667 -0.04267%2c-0.024 -0.096%2c-0.024 -0.05067%2c0 -0.09867%2c0.01867 -0.048%2c0.01867 -0.08533%2c0.05867 -0.03733%2c0.03733 -0.05867%2c0.08533 -0.01867%2c0.048 -0.02667%2c0.096 l -0.136%2c0.813334 q -0.0053%2c0.03467 -0.008%2c0.06933 0%2c0.03467 0.0027%2c0.06667 0.0053%2c0.032 0.016%2c0.064 0.01333%2c0.02933 0.03467%2c0.05067 0.024%2c0.02133 0.056%2c0.032 0.032%2c0.008 0.06667%2c0.008 z' style='font-size:2.66667px%3bfill:%23d79921%3bfill-opacity:1' id='path61858' /%3e %3cpath d='m 14.216317%2c20.123329 0.322667%2c-1.960002 h 0.605335 q 0.064%2c0 0.125333%2c0.01067 0.06133%2c0.008 0.117334%2c0.032 0.05867%2c0.024 0.104%2c0.06133 0.04533%2c0.03733 0.07733%2c0.088 0.03467%2c0.05067 0.05333%2c0.109333 0.02133%2c0.056 0.02667%2c0.120001 0.008%2c0.06133 0.0053%2c0.125333 -0.0027%2c0.064 -0.01333%2c0.128 -0.016%2c0.08533 -0.04533%2c0.173334 -0.02933%2c0.08533 -0.08533%2c0.16 -0.05333%2c0.072 -0.133333%2c0.125333 -0.07733%2c0.05333 -0.165334%2c0.08 l 0.269334%2c0.746667 h -0.413334 l -0.261334%2c-0.722667 h -0.07733 l -0.12%2c0.722667 z m 0.562668%2c-1.042668 h 0.24 q 0.05067%2c0 0.096%2c-0.02933 0.04533%2c-0.02933 0.07467%2c-0.072 0.02933%2c-0.04533 0.04267%2c-0.09333 0.016%2c-0.048 0.024%2c-0.09867 0.0053%2c-0.02933 0.008%2c-0.06133 0.0027%2c-0.032 0%2c-0.064 0%2c-0.032 -0.0053%2c-0.06133 -0.0053%2c-0.032 -0.01867%2c-0.05867 -0.01333%2c-0.02667 -0.04%2c-0.04267 -0.024%2c-0.016 -0.056%2c-0.016 h -0.264001 z' style='font-size:2.66667px%3bfill:%23d79921%3bfill-opacity:1' id='path61860' /%3e %3cpath d='m 16.344321%2c20.717997 q -0.072%2c0 -0.146667%2c-0.01067 -0.072%2c-0.008 -0.138667%2c-0.032 -0.064%2c-0.02133 -0.12%2c-0.064 -0.056%2c-0.04 -0.09333%2c-0.09867 -0.03733%2c-0.056 -0.05333%2c-0.128 -0.01333%2c-0.072 -0.0027%2c-0.144 h 0.389334 q -0.0053%2c0.03467 0.0053%2c0.06667 0.01067%2c0.032 0.03467%2c0.05333 0.024%2c0.02133 0.056%2c0.02933 0.03467%2c0.008 0.06933%2c0.008 0.048%2c0 0.096%2c-0.016 0.048%2c-0.016 0.08267%2c-0.05333 0.03733%2c-0.03733 0.056%2c-0.08267 0.02133%2c-0.04533 0.02933%2c-0.09333 l 0.03467%2c-0.216001 q 0%2c0 0%2c0 0%2c0 0%2c0 -0.03467%2c0.05067 -0.08267%2c0.09067 -0.04533%2c0.04 -0.09867%2c0.06667 -0.05333%2c0.02667 -0.112%2c0.03733 -0.056%2c0.01333 -0.114667%2c0.01333 -0.072%2c0 -0.141334%2c-0.024 -0.06667%2c-0.024 -0.112%2c-0.07467 -0.04533%2c-0.05333 -0.06933%2c-0.12 -0.02133%2c-0.06667 -0.02933%2c-0.136001 -0.008%2c-0.072 -0.0027%2c-0.146666 0.0053%2c-0.07467 0.01867%2c-0.146667 l 0.04267%2c-0.266667 q 0.01067%2c-0.06667 0.02933%2c-0.130667 0.02133%2c-0.064 0.056%2c-0.122667 0.03733%2c-0.06133 0.08533%2c-0.112 0.05067%2c-0.05067 0.112%2c-0.08533 0.06133%2c-0.03467 0.128%2c-0.048 0.06667%2c-0.016 0.130667%2c-0.016 0.05867%2c0 0.114667%2c0.016 0.056%2c0.01333 0.096%2c0.05067 0.04267%2c0.03467 0.06933%2c0.08533 0.02667%2c0.048 0.04%2c0.101333 l 0.04%2c-0.232 h 0.392001 l -0.242667%2c1.466668 q -0.01333%2c0.07467 -0.04%2c0.144 -0.02667%2c0.072 -0.07467%2c0.133334 -0.04533%2c0.064 -0.109333%2c0.109333 -0.06133%2c0.048 -0.133334%2c0.07733 -0.06933%2c0.02933 -0.144%2c0.04 -0.072%2c0.01067 -0.146667%2c0.01067 z m 0.106667%2c-0.893335 q 0.04267%2c0 0.08533%2c-0.01067 0.04267%2c-0.01333 0.07733%2c-0.04 0.03467%2c-0.02933 0.05333%2c-0.06933 0.02133%2c-0.04 0.02933%2c-0.08267 l 0.04267%2c-0.266667 q 0.008%2c-0.03467 0.01067%2c-0.06933 0.0027%2c-0.03733 0%2c-0.072 -0.0027%2c-0.03467 -0.01067%2c-0.06667 -0.008%2c-0.032 -0.02667%2c-0.05867 -0.01867%2c-0.02933 -0.05067%2c-0.04 -0.032%2c-0.01333 -0.06667%2c-0.01333 -0.05067%2c0 -0.09867%2c0.01867 -0.048%2c0.016 -0.08533%2c0.05067 -0.03733%2c0.03467 -0.05867%2c0.08267 -0.01867%2c0.04533 -0.02667%2c0.09333 l -0.04533%2c0.266667 q -0.0053%2c0.03467 -0.008%2c0.06933 0%2c0.032 0.0053%2c0.064 0.0053%2c0.02933 0.01867%2c0.05867 0.01333%2c0.02933 0.03467%2c0.05067 0.024%2c0.01867 0.05333%2c0.02667 0.032%2c0.008 0.06667%2c0.008 z' style='font-size:2.66667px%3bfill:%23d79921%3bfill-opacity:1' id='path61862' /%3e %3cpath d='m 18.098991%2c20.144663 q -0.06933%2c0 -0.136%2c-0.008 -0.06667%2c-0.0053 -0.130667%2c-0.024 -0.06133%2c-0.01867 -0.117333%2c-0.05067 -0.056%2c-0.032 -0.101334%2c-0.07733 -0.04267%2c-0.04533 -0.072%2c-0.101333 -0.02933%2c-0.056 -0.04533%2c-0.12 -0.01333%2c-0.064 -0.01333%2c-0.130667 0.0027%2c-0.06933 0.016%2c-0.136 l 0.04267%2c-0.266667 q 0.01333%2c-0.07467 0.04%2c-0.146667 0.02933%2c-0.07467 0.07733%2c-0.136 0.05067%2c-0.064 0.114667%2c-0.109334 0.06667%2c-0.048 0.141334%2c-0.07467 0.07467%2c-0.02933 0.149333%2c-0.03733 0.07467%2c-0.01067 0.149334%2c-0.01067 0.07467%2c0 0.149333%2c0.01067 0.07733%2c0.01067 0.144001%2c0.03733 0.06667%2c0.024 0.122666%2c0.06667 0.05867%2c0.04267 0.096%2c0.104 0.03733%2c0.06133 0.05067%2c0.136 0.01333%2c0.07467 0%2c0.149334 -0.008%2c0.06133 -0.04%2c0.122667 -0.032%2c0.05867 -0.08%2c0.106667 -0.048%2c0.048 -0.109333%2c0.08 -0.05867%2c0.02933 -0.122667%2c0.048 -0.06133%2c0.016 -0.125334%2c0.02133 -0.064%2c0.0053 -0.125333%2c0.0053 -0.02933%2c0 -0.06133%2c0 -0.02933%2c0 -0.05867%2c-0.0027 h -0.0027 q -0.05067%2c0 -0.104%2c-0.0027 -0.05067%2c-0.0027 -0.101334%2c-0.008 -0.0027%2c0.05333 0.01067%2c0.106667 0.01333%2c0.05067 0.048%2c0.088 0.03733%2c0.03467 0.088%2c0.05067 0.05067%2c0.01333 0.106667%2c0.01333 0.04%2c0 0.08%2c-0.0053 0.04267%2c-0.008 0.08%2c-0.02667 0.04%2c-0.01867 0.072%2c-0.048 0.03467%2c-0.02933 0.05867%2c-0.06667 l 0.322667%2c0.133334 q -0.05067%2c0.07467 -0.122667%2c0.138667 -0.06933%2c0.06133 -0.152%2c0.101333 -0.08%2c0.04 -0.168%2c0.05333 -0.08533%2c0.016 -0.170667%2c0.016 z m 0.101334%2c-0.829335 q 0.03467%2c0 0.06933%2c-0.0053 0.03467%2c-0.008 0.06667%2c-0.024 0.032%2c-0.01867 0.056%2c-0.048 0.024%2c-0.02933 0.032%2c-0.064 0.0053%2c-0.04 -0.01333%2c-0.07467 -0.016%2c-0.03467 -0.05067%2c-0.05333 -0.032%2c-0.02133 -0.072%2c-0.02667 -0.03733%2c-0.008 -0.07733%2c-0.008 -0.03467%2c0 -0.072%2c0.0053 -0.03733%2c0.0053 -0.072%2c0.02133 -0.03467%2c0.016 -0.06667%2c0.04267 -0.02933%2c0.024 -0.05067%2c0.056 -0.02133%2c0.032 -0.03467%2c0.06933 -0.01067%2c0.03467 -0.01867%2c0.072 l -0.0027%2c0.016 q 0.04%2c0.0053 0.07733%2c0.008 0.03733%2c0 0.07467%2c0.0027 0.04%2c0.0027 0.07733%2c0.008 0.04%2c0.0027 0.07733%2c0.0027 z' style='font-size:2.66667px%3bfill:%23d79921%3bfill-opacity:1' id='path61864' /%3e %3cpath d='m 19.016327%2c20.123329 0.229333%2c-1.386668 h 0.392001 l -0.02667%2c0.152 q 0.02667%2c-0.04 0.06133%2c-0.07467 0.03467%2c-0.03467 0.07733%2c-0.05867 0.04267%2c-0.024 0.088%2c-0.032 0.048%2c-0.008 0.09067%2c-0.008 0.07733%2c0 0.149333%2c0.024 0.072%2c0.02133 0.125334%2c0.06933 0.056%2c0.04533 0.088%2c0.112 0.032%2c0.06667 0.04533%2c0.138667 0.01333%2c0.072 0.01067%2c0.149333 -0.0027%2c0.07733 -0.016%2c0.154667 l -0.125333%2c0.760001 h -0.392001 q 0.032%2c-0.202667 0.06667%2c-0.405334 0.03467%2c-0.202667 0.06667%2c-0.405334 0.0053%2c-0.032 0.008%2c-0.064 0.0027%2c-0.032 -0.0027%2c-0.06133 -0.0027%2c-0.032 -0.01333%2c-0.06133 -0.01067%2c-0.02933 -0.032%2c-0.05067 -0.01867%2c-0.02133 -0.048%2c-0.02933 -0.02933%2c-0.01067 -0.06133%2c-0.01067 -0.04267%2c0 -0.08533%2c0.01333 -0.04267%2c0.01067 -0.07733%2c0.04 -0.03467%2c0.02667 -0.056%2c0.06667 -0.01867%2c0.04 -0.024%2c0.08267 l -0.146667%2c0.885334 z' style='font-size:2.66667px%3bfill:%23d79921%3bfill-opacity:1' id='path61866' /%3e %3c/g%3e %3c/g%3e%3c/svg%3e"/></svg>