<?xml version="1.0" encoding="UTF-8" standalone="no"?>
<svg
   class="QRcode"
   version="1.1"
   viewBox="-5 -5 43 43"
   id="svg918"
   xmlns="http://www.w3.org/2000/svg"
   xmlns:svg="http://www.w3.org/2000/svg">
  <defs
     id="defs922" />
  <path
     class="QRlight"
     fill="#1d2021"
     d="M-5,-5h43v43h-43Z"
     id="path914" />
  <path
     class="QRdark"
     fill="#98971a"
     d="M0,0h1v1h-1ZM1,0h1v1h-1ZM2,0h1v1h-1ZM3,0h1v1h-1ZM4,0h1v1h-1ZM5,0h1v1h-1ZM6,0h1v1h-1ZM9,0h1v1h-1ZM10,0h1v1h-1ZM14,0h1v1h-1ZM15,0h1v1h-1ZM16,0h1v1h-1ZM17,0h1v1h-1ZM18,0h1v1h-1ZM21,0h1v1h-1ZM23,0h1v1h-1ZM24,0h1v1h-1ZM26,0h1v1h-1ZM27,0h1v1h-1ZM28,0h1v1h-1ZM29,0h1v1h-1ZM30,0h1v1h-1ZM31,0h1v1h-1ZM32,0h1v1h-1ZM0,1h1v1h-1ZM6,1h1v1h-1ZM8,1h1v1h-1ZM9,1h1v1h-1ZM12,1h1v1h-1ZM13,1h1v1h-1ZM14,1h1v1h-1ZM15,1h1v1h-1ZM16,1h1v1h-1ZM17,1h1v1h-1ZM20,1h1v1h-1ZM21,1h1v1h-1ZM22,1h1v1h-1ZM24,1h1v1h-1ZM26,1h1v1h-1ZM32,1h1v1h-1ZM0,2h1v1h-1ZM2,2h1v1h-1ZM3,2h1v1h-1ZM4,2h1v1h-1ZM6,2h1v1h-1ZM9,2h1v1h-1ZM11,2h1v1h-1ZM14,2h1v1h-1ZM17,2h1v1h-1ZM21,2h1v1h-1ZM22,2h1v1h-1ZM26,2h1v1h-1ZM28,2h1v1h-1ZM29,2h1v1h-1ZM30,2h1v1h-1ZM32,2h1v1h-1ZM0,3h1v1h-1ZM2,3h1v1h-1ZM3,3h1v1h-1ZM4,3h1v1h-1ZM6,3h1v1h-1ZM9,3h1v1h-1ZM10,3h1v1h-1ZM11,3h1v1h-1ZM14,3h1v1h-1ZM15,3h1v1h-1ZM18,3h1v1h-1ZM19,3h1v1h-1ZM26,3h1v1h-1ZM28,3h1v1h-1ZM29,3h1v1h-1ZM30,3h1v1h-1ZM32,3h1v1h-1ZM0,4h1v1h-1ZM2,4h1v1h-1ZM3,4h1v1h-1ZM4,4h1v1h-1ZM6,4h1v1h-1ZM10,4h1v1h-1ZM15,4h1v1h-1ZM17,4h1v1h-1ZM18,4h1v1h-1ZM19,4h1v1h-1ZM20,4h1v1h-1ZM24,4h1v1h-1ZM26,4h1v1h-1ZM28,4h1v1h-1ZM29,4h1v1h-1ZM30,4h1v1h-1ZM32,4h1v1h-1ZM0,5h1v1h-1ZM6,5h1v1h-1ZM8,5h1v1h-1ZM9,5h1v1h-1ZM12,5h1v1h-1ZM13,5h1v1h-1ZM17,5h1v1h-1ZM20,5h1v1h-1ZM22,5h1v1h-1ZM24,5h1v1h-1ZM26,5h1v1h-1ZM32,5h1v1h-1ZM0,6h1v1h-1ZM1,6h1v1h-1ZM2,6h1v1h-1ZM3,6h1v1h-1ZM4,6h1v1h-1ZM5,6h1v1h-1ZM6,6h1v1h-1ZM8,6h1v1h-1ZM10,6h1v1h-1ZM12,6h1v1h-1ZM14,6h1v1h-1ZM16,6h1v1h-1ZM18,6h1v1h-1ZM20,6h1v1h-1ZM22,6h1v1h-1ZM24,6h1v1h-1ZM26,6h1v1h-1ZM27,6h1v1h-1ZM28,6h1v1h-1ZM29,6h1v1h-1ZM30,6h1v1h-1ZM31,6h1v1h-1ZM32,6h1v1h-1ZM8,7h1v1h-1ZM10,7h1v1h-1ZM11,7h1v1h-1ZM12,7h1v1h-1ZM16,7h1v1h-1ZM19,7h1v1h-1ZM20,7h1v1h-1ZM21,7h1v1h-1ZM24,7h1v1h-1ZM4,8h1v1h-1ZM5,8h1v1h-1ZM6,8h1v1h-1ZM7,8h1v1h-1ZM11,8h1v1h-1ZM13,8h1v1h-1ZM14,8h1v1h-1ZM16,8h1v1h-1ZM17,8h1v1h-1ZM18,8h1v1h-1ZM19,8h1v1h-1ZM21,8h1v1h-1ZM22,8h1v1h-1ZM23,8h1v1h-1ZM24,8h1v1h-1ZM26,8h1v1h-1ZM27,8h1v1h-1ZM31,8h1v1h-1ZM1,9h1v1h-1ZM2,9h1v1h-1ZM3,9h1v1h-1ZM4,9h1v1h-1ZM10,9h1v1h-1ZM11,9h1v1h-1ZM20,9h1v1h-1ZM21,9h1v1h-1ZM22,9h1v1h-1ZM23,9h1v1h-1ZM27,9h1v1h-1ZM29,9h1v1h-1ZM31,9h1v1h-1ZM0,10h1v1h-1ZM1,10h1v1h-1ZM3,10h1v1h-1ZM4,10h1v1h-1ZM6,10h1v1h-1ZM7,10h1v1h-1ZM8,10h1v1h-1ZM9,10h1v1h-1ZM11,10h1v1h-1ZM12,10h1v1h-1ZM14,10h1v1h-1ZM16,10h1v1h-1ZM19,10h1v1h-1ZM23,10h1v1h-1ZM26,10h1v1h-1ZM27,10h1v1h-1ZM28,10h1v1h-1ZM31,10h1v1h-1ZM1,11h1v1h-1ZM2,11h1v1h-1ZM3,11h1v1h-1ZM9,11h1v1h-1ZM10,11h1v1h-1ZM11,11h1v1h-1ZM14,11h1v1h-1ZM15,11h1v1h-1ZM17,11h1v1h-1ZM18,11h1v1h-1ZM19,11h1v1h-1ZM20,11h1v1h-1ZM22,11h1v1h-1ZM28,11h1v1h-1ZM29,11h1v1h-1ZM31,11h1v1h-1ZM32,11h1v1h-1ZM0,12h1v1h-1ZM2,12h1v1h-1ZM5,12h1v1h-1ZM6,12h1v1h-1ZM7,12h1v1h-1ZM10,12h1v1h-1ZM13,12h1v1h-1ZM16,12h1v1h-1ZM22,12h1v1h-1ZM23,12h1v1h-1ZM24,12h1v1h-1ZM26,12h1v1h-1ZM28,12h1v1h-1ZM32,12h1v1h-1ZM1,13h1v1h-1ZM7,13h1v1h-1ZM9,13h1v1h-1ZM11,13h1v1h-1ZM13,13h1v1h-1ZM15,13h1v1h-1ZM16,13h1v1h-1ZM17,13h1v1h-1ZM19,13h1v1h-1ZM21,13h1v1h-1ZM23,13h1v1h-1ZM24,13h1v1h-1ZM27,13h1v1h-1ZM29,13h1v1h-1ZM31,13h1v1h-1ZM3,14h1v1h-1ZM4,14h1v1h-1ZM5,14h1v1h-1ZM6,14h1v1h-1ZM10,14h1v1h-1ZM12,14h1v1h-1ZM14,14h1v1h-1ZM17,14h1v1h-1ZM18,14h1v1h-1ZM19,14h1v1h-1ZM23,14h1v1h-1ZM27,14h1v1h-1ZM30,14h1v1h-1ZM31,14h1v1h-1ZM1,15h1v1h-1ZM2,15h1v1h-1ZM3,15h1v1h-1ZM7,15h1v1h-1ZM8,15h1v1h-1ZM12,15h1v1h-1ZM13,15h1v1h-1ZM14,15h1v1h-1ZM15,15h1v1h-1ZM16,15h1v1h-1ZM17,15h1v1h-1ZM19,15h1v1h-1ZM20,15h1v1h-1ZM21,15h1v1h-1ZM26,15h1v1h-1ZM27,15h1v1h-1ZM28,15h1v1h-1ZM2,16h1v1h-1ZM6,16h1v1h-1ZM7,16h1v1h-1ZM9,16h1v1h-1ZM13,16h1v1h-1ZM21,16h1v1h-1ZM26,16h1v1h-1ZM27,16h1v1h-1ZM28,16h1v1h-1ZM29,16h1v1h-1ZM30,16h1v1h-1ZM31,16h1v1h-1ZM32,16h1v1h-1ZM0,17h1v1h-1ZM7,17h1v1h-1ZM8,17h1v1h-1ZM10,17h1v1h-1ZM11,17h1v1h-1ZM14,17h1v1h-1ZM17,17h1v1h-1ZM19,17h1v1h-1ZM20,17h1v1h-1ZM23,17h1v1h-1ZM24,17h1v1h-1ZM27,17h1v1h-1ZM31,17h1v1h-1ZM1,18h1v1h-1ZM2,18h1v1h-1ZM3,18h1v1h-1ZM6,18h1v1h-1ZM8,18h1v1h-1ZM9,18h1v1h-1ZM11,18h1v1h-1ZM17,18h1v1h-1ZM22,18h1v1h-1ZM23,18h1v1h-1ZM24,18h1v1h-1ZM25,18h1v1h-1ZM28,18h1v1h-1ZM29,18h1v1h-1ZM2,19h1v1h-1ZM3,19h1v1h-1ZM5,19h1v1h-1ZM7,19h1v1h-1ZM8,19h1v1h-1ZM9,19h1v1h-1ZM10,19h1v1h-1ZM11,19h1v1h-1ZM16,19h1v1h-1ZM18,19h1v1h-1ZM19,19h1v1h-1ZM21,19h1v1h-1ZM25,19h1v1h-1ZM26,19h1v1h-1ZM27,19h1v1h-1ZM28,19h1v1h-1ZM31,19h1v1h-1ZM3,20h1v1h-1ZM4,20h1v1h-1ZM6,20h1v1h-1ZM7,20h1v1h-1ZM8,20h1v1h-1ZM9,20h1v1h-1ZM14,20h1v1h-1ZM15,20h1v1h-1ZM16,20h1v1h-1ZM17,20h1v1h-1ZM18,20h1v1h-1ZM19,20h1v1h-1ZM20,20h1v1h-1ZM21,20h1v1h-1ZM22,20h1v1h-1ZM24,20h1v1h-1ZM26,20h1v1h-1ZM28,20h1v1h-1ZM29,20h1v1h-1ZM31,20h1v1h-1ZM32,20h1v1h-1ZM0,21h1v1h-1ZM3,21h1v1h-1ZM4,21h1v1h-1ZM7,21h1v1h-1ZM11,21h1v1h-1ZM13,21h1v1h-1ZM16,21h1v1h-1ZM17,21h1v1h-1ZM19,21h1v1h-1ZM20,21h1v1h-1ZM23,21h1v1h-1ZM25,21h1v1h-1ZM27,21h1v1h-1ZM31,21h1v1h-1ZM2,22h1v1h-1ZM6,22h1v1h-1ZM10,22h1v1h-1ZM11,22h1v1h-1ZM12,22h1v1h-1ZM13,22h1v1h-1ZM14,22h1v1h-1ZM17,22h1v1h-1ZM19,22h1v1h-1ZM20,22h1v1h-1ZM21,22h1v1h-1ZM23,22h1v1h-1ZM24,22h1v1h-1ZM27,22h1v1h-1ZM28,22h1v1h-1ZM31,22h1v1h-1ZM2,23h1v1h-1ZM3,23h1v1h-1ZM4,23h1v1h-1ZM8,23h1v1h-1ZM11,23h1v1h-1ZM12,23h1v1h-1ZM13,23h1v1h-1ZM14,23h1v1h-1ZM16,23h1v1h-1ZM21,23h1v1h-1ZM22,23h1v1h-1ZM23,23h1v1h-1ZM24,23h1v1h-1ZM28,23h1v1h-1ZM31,23h1v1h-1ZM32,23h1v1h-1ZM0,24h1v1h-1ZM1,24h1v1h-1ZM2,24h1v1h-1ZM5,24h1v1h-1ZM6,24h1v1h-1ZM8,24h1v1h-1ZM9,24h1v1h-1ZM12,24h1v1h-1ZM13,24h1v1h-1ZM14,24h1v1h-1ZM18,24h1v1h-1ZM19,24h1v1h-1ZM20,24h1v1h-1ZM21,24h1v1h-1ZM22,24h1v1h-1ZM24,24h1v1h-1ZM25,24h1v1h-1ZM26,24h1v1h-1ZM27,24h1v1h-1ZM28,24h1v1h-1ZM29,24h1v1h-1ZM8,25h1v1h-1ZM10,25h1v1h-1ZM12,25h1v1h-1ZM13,25h1v1h-1ZM14,25h1v1h-1ZM16,25h1v1h-1ZM17,25h1v1h-1ZM19,25h1v1h-1ZM23,25h1v1h-1ZM24,25h1v1h-1ZM28,25h1v1h-1ZM29,25h1v1h-1ZM31,25h1v1h-1ZM0,26h1v1h-1ZM1,26h1v1h-1ZM2,26h1v1h-1ZM3,26h1v1h-1ZM4,26h1v1h-1ZM5,26h1v1h-1ZM6,26h1v1h-1ZM8,26h1v1h-1ZM9,26h1v1h-1ZM10,26h1v1h-1ZM11,26h1v1h-1ZM12,26h1v1h-1ZM13,26h1v1h-1ZM14,26h1v1h-1ZM15,26h1v1h-1ZM19,26h1v1h-1ZM21,26h1v1h-1ZM22,26h1v1h-1ZM23,26h1v1h-1ZM24,26h1v1h-1ZM26,26h1v1h-1ZM28,26h1v1h-1ZM30,26h1v1h-1ZM31,26h1v1h-1ZM0,27h1v1h-1ZM6,27h1v1h-1ZM8,27h1v1h-1ZM10,27h1v1h-1ZM12,27h1v1h-1ZM13,27h1v1h-1ZM15,27h1v1h-1ZM18,27h1v1h-1ZM21,27h1v1h-1ZM24,27h1v1h-1ZM28,27h1v1h-1ZM31,27h1v1h-1ZM32,27h1v1h-1ZM0,28h1v1h-1ZM2,28h1v1h-1ZM3,28h1v1h-1ZM4,28h1v1h-1ZM6,28h1v1h-1ZM8,28h1v1h-1ZM9,28h1v1h-1ZM10,28h1v1h-1ZM13,28h1v1h-1ZM14,28h1v1h-1ZM16,28h1v1h-1ZM19,28h1v1h-1ZM20,28h1v1h-1ZM24,28h1v1h-1ZM25,28h1v1h-1ZM26,28h1v1h-1ZM27,28h1v1h-1ZM28,28h1v1h-1ZM0,29h1v1h-1ZM2,29h1v1h-1ZM3,29h1v1h-1ZM4,29h1v1h-1ZM6,29h1v1h-1ZM9,29h1v1h-1ZM10,29h1v1h-1ZM11,29h1v1h-1ZM12,29h1v1h-1ZM13,29h1v1h-1ZM14,29h1v1h-1ZM16,29h1v1h-1ZM17,29h1v1h-1ZM20,29h1v1h-1ZM22,29h1v1h-1ZM23,29h1v1h-1ZM24,29h1v1h-1ZM26,29h1v1h-1ZM27,29h1v1h-1ZM28,29h1v1h-1ZM30,29h1v1h-1ZM31,29h1v1h-1ZM0,30h1v1h-1ZM2,30h1v1h-1ZM3,30h1v1h-1ZM4,30h1v1h-1ZM6,30h1v1h-1ZM9,30h1v1h-1ZM11,30h1v1h-1ZM12,30h1v1h-1ZM13,30h1v1h-1ZM14,30h1v1h-1ZM15,30h1v1h-1ZM17,30h1v1h-1ZM18,30h1v1h-1ZM20,30h1v1h-1ZM21,30h1v1h-1ZM25,30h1v1h-1ZM26,30h1v1h-1ZM28,30h1v1h-1ZM0,31h1v1h-1ZM6,31h1v1h-1ZM10,31h1v1h-1ZM11,31h1v1h-1ZM12,31h1v1h-1ZM15,31h1v1h-1ZM16,31h1v1h-1ZM18,31h1v1h-1ZM19,31h1v1h-1ZM20,31h1v1h-1ZM21,31h1v1h-1ZM23,31h1v1h-1ZM24,31h1v1h-1ZM25,31h1v1h-1ZM27,31h1v1h-1ZM28,31h1v1h-1ZM0,32h1v1h-1ZM1,32h1v1h-1ZM2,32h1v1h-1ZM3,32h1v1h-1ZM4,32h1v1h-1ZM5,32h1v1h-1ZM6,32h1v1h-1ZM10,32h1v1h-1ZM11,32h1v1h-1ZM14,32h1v1h-1ZM16,32h1v1h-1ZM17,32h1v1h-1ZM19,32h1v1h-1ZM20,32h1v1h-1ZM23,32h1v1h-1ZM24,32h1v1h-1ZM26,32h1v1h-1ZM27,32h1v1h-1ZM29,32h1v1h-1ZM30,32h1v1h-1ZM32,32h1v1h-1Z"
     id="path916"
     style="fill:#fabd2f;fill-opacity:1" />
  <g
     id="layer1"
     transform="translate(-166.16447,-423.68742)">
    <rect
       style="fill:#1d2021;fill-opacity:1;stroke:#98971a;stroke-width:0;stroke-linecap:round;stroke-linejoin:round;paint-order:stroke markers fill"
       id="rect1316"
       width="9.0660276"
       height="9.0660458"
       x="178.13145"
       y="435.65439"
       ry="0" />
    <path
       style="fill:#d79921;fill-opacity:1;stroke:none;stroke-width:0.0910309"
       d="m 182.66872,435.95381 c 0,0 -0.31044,0.24533 -0.62692,0.489 -0.32556,-0.0103 -0.96411,0.0625 -1.31011,0.18838 -0.31872,-0.20192 -0.59878,-0.42486 -0.59878,-0.42486 0,0 -0.23932,0.41171 -0.38982,0.65333 -0.2232,0.1187 -0.44729,0.25222 -0.64702,0.42887 -0.2323,-0.0922 -0.50159,-0.20471 -0.51037,-0.20842 0.30763,0.6205 0.51444,1.24183 1.07701,1.61528 0.89565,-1.41453 5.05766,-1.28416 5.97183,-0.008 0.59079,-0.30815 0.82056,-0.97113 1.0529,-1.58322 -0.0255,0.008 -0.34161,0.11423 -0.54654,0.1924 -0.12236,-0.13322 -0.41076,-0.33803 -0.57468,-0.43689 -0.15548,-0.28472 -0.38178,-0.66937 -0.38178,-0.66937 0,0 -0.26803,0.19935 -0.57869,0.41685 -0.41971,-0.0775 -0.92735,-0.17161 -1.35432,-0.1483 -0.29064,-0.2389 -0.58271,-0.50503 -0.58271,-0.50503 z"
       id="path3054" />
    <path
       style="fill:#fabd2f;fill-opacity:1;stroke:none;stroke-width:0.0910309"
       d="m 178.90377,438.39878 c 0,0 0.43603,1.05576 0.73886,1.78938 1.28319,1.69292 4.55995,1.81062 5.98845,0.0328 0.33803,-0.76182 0.79409,-1.83244 0.79409,-1.83244 -0.36648,0.54292 -0.96291,0.9177 -1.33024,1.11958 -0.26101,0.14299 -0.86328,0.22942 -0.86328,0.22942 l -1.58117,-0.81937 -1.59025,0.80298 c 0,0 -0.59426,-0.0955 -0.86329,-0.22123 -0.54297,-0.28985 -0.90816,-0.63229 -1.29317,-1.1011 z"
       id="path3051" />
  </g>
  <g
     aria-label="QRgen"
     id="text41857"
     style="font-style:italic;font-weight:900;font-stretch:expanded;font-size:40px;line-height:1.25;font-family:Iosevka;-inkscape-font-specification:'Iosevka, Heavy Italic Expanded';fill:#d79921;fill-opacity:1"
     transform="translate(-0.00990297,-0.00992747)">
    <path
       d="m 13.477649,20.56333 q -0.06133,0 -0.122667,-0.01067 -0.05867,-0.008 -0.114667,-0.032 -0.05333,-0.024 -0.096,-0.064 -0.04267,-0.03733 -0.06667,-0.09333 -0.024,-0.05333 -0.02667,-0.114666 -0.0027,-0.06133 0.008,-0.122667 -0.06933,-0.016 -0.130666,-0.04533 -0.06133,-0.032 -0.109334,-0.07733 -0.04533,-0.048 -0.07733,-0.106667 -0.02933,-0.06133 -0.04533,-0.130667 -0.01333,-0.06933 -0.01067,-0.138666 0.0027,-0.072 0.01333,-0.144001 l 0.136,-0.813334 q 0.01333,-0.07467 0.04,-0.146667 0.02667,-0.07467 0.07467,-0.138667 0.048,-0.06667 0.114667,-0.114667 0.06667,-0.048 0.138667,-0.07733 0.07467,-0.02933 0.149333,-0.04267 0.07467,-0.016 0.152,-0.016 0.088,0 0.170667,0.02133 0.08267,0.01867 0.154667,0.05867 0.072,0.04 0.122667,0.104001 0.05333,0.064 0.08,0.144 0.02667,0.08 0.02667,0.168 0,0.08533 -0.01333,0.173333 l -0.136,0.813335 q -0.008,0.05867 -0.02667,0.117333 -0.01867,0.056 -0.048,0.109334 -0.02933,0.05067 -0.072,0.09867 -0.04267,0.04533 -0.09333,0.08267 -0.048,0.03467 -0.104,0.06133 -0.056,0.024 -0.114667,0.03733 -0.0027,0.01867 -0.0053,0.03467 -0.0027,0.01867 -0.0027,0.03467 0.0027,0.01867 0.01067,0.03467 0.008,0.016 0.024,0.016 h 0.165333 v 0.320001 z m -0.226667,-0.738668 q 0.05067,0 0.101333,-0.016 0.05067,-0.01867 0.088,-0.056 0.03733,-0.04 0.056,-0.088 0.02133,-0.05067 0.02933,-0.09867 l 0.136,-0.813334 q 0.008,-0.05333 0.008,-0.104 0,-0.05067 -0.02133,-0.096 -0.01867,-0.04533 -0.064,-0.06667 -0.04267,-0.024 -0.096,-0.024 -0.05067,0 -0.09867,0.01867 -0.048,0.01867 -0.08533,0.05867 -0.03733,0.03733 -0.05867,0.08533 -0.01867,0.048 -0.02667,0.096 l -0.136,0.813334 q -0.0053,0.03467 -0.008,0.06933 0,0.03467 0.0027,0.06667 0.0053,0.032 0.016,0.064 0.01333,0.02933 0.03467,0.05067 0.024,0.02133 0.056,0.032 0.032,0.008 0.06667,0.008 z"
       style="font-size:2.66667px;fill:#d79921;fill-opacity:1"
       id="path61858" />
    <path
       d="m 14.216317,20.123329 0.322667,-1.960002 h 0.605335 q 0.064,0 0.125333,0.01067 0.06133,0.008 0.117334,0.032 0.05867,0.024 0.104,0.06133 0.04533,0.03733 0.07733,0.088 0.03467,0.05067 0.05333,0.109333 0.02133,0.056 0.02667,0.120001 0.008,0.06133 0.0053,0.125333 -0.0027,0.064 -0.01333,0.128 -0.016,0.08533 -0.04533,0.173334 -0.02933,0.08533 -0.08533,0.16 -0.05333,0.072 -0.133333,0.125333 -0.07733,0.05333 -0.165334,0.08 l 0.269334,0.746667 h -0.413334 l -0.261334,-0.722667 h -0.07733 l -0.12,0.722667 z m 0.562668,-1.042668 h 0.24 q 0.05067,0 0.096,-0.02933 0.04533,-0.02933 0.07467,-0.072 0.02933,-0.04533 0.04267,-0.09333 0.016,-0.048 0.024,-0.09867 0.0053,-0.02933 0.008,-0.06133 0.0027,-0.032 0,-0.064 0,-0.032 -0.0053,-0.06133 -0.0053,-0.032 -0.01867,-0.05867 -0.01333,-0.02667 -0.04,-0.04267 -0.024,-0.016 -0.056,-0.016 h -0.264001 z"
       style="font-size:2.66667px;fill:#d79921;fill-opacity:1"
       id="path61860" />
    <path
       d="m 16.344321,20.717997 q -0.072,0 -0.146667,-0.01067 -0.072,-0.008 -0.138667,-0.032 -0.064,-0.02133 -0.12,-0.064 -0.056,-0.04 -0.09333,-0.09867 -0.03733,-0.056 -0.05333,-0.128 -0.01333,-0.072 -0.0027,-0.144 h 0.389334 q -0.0053,0.03467 0.0053,0.06667 0.01067,0.032 0.03467,0.05333 0.024,0.02133 0.056,0.02933 0.03467,0.008 0.06933,0.008 0.048,0 0.096,-0.016 0.048,-0.016 0.08267,-0.05333 0.03733,-0.03733 0.056,-0.08267 0.02133,-0.04533 0.02933,-0.09333 l 0.03467,-0.216001 q 0,0 0,0 0,0 0,0 -0.03467,0.05067 -0.08267,0.09067 -0.04533,0.04 -0.09867,0.06667 -0.05333,0.02667 -0.112,0.03733 -0.056,0.01333 -0.114667,0.01333 -0.072,0 -0.141334,-0.024 -0.06667,-0.024 -0.112,-0.07467 -0.04533,-0.05333 -0.06933,-0.12 -0.02133,-0.06667 -0.02933,-0.136001 -0.008,-0.072 -0.0027,-0.146666 0.0053,-0.07467 0.01867,-0.146667 l 0.04267,-0.266667 q 0.01067,-0.06667 0.02933,-0.130667 0.02133,-0.064 0.056,-0.122667 0.03733,-0.06133 0.08533,-0.112 0.05067,-0.05067 0.112,-0.08533 0.06133,-0.03467 0.128,-0.048 0.06667,-0.016 0.130667,-0.016 0.05867,0 0.114667,0.016 0.056,0.01333 0.096,0.05067 0.04267,0.03467 0.06933,0.08533 0.02667,0.048 0.04,0.101333 l 0.04,-0.232 h 0.392001 l -0.242667,1.466668 q -0.01333,0.07467 -0.04,0.144 -0.02667,0.072 -0.07467,0.133334 -0.04533,0.064 -0.109333,0.109333 -0.06133,0.048 -0.133334,0.07733 -0.06933,0.02933 -0.144,0.04 -0.072,0.01067 -0.146667,0.01067 z m 0.106667,-0.893335 q 0.04267,0 0.08533,-0.01067 0.04267,-0.01333 0.07733,-0.04 0.03467,-0.02933 0.05333,-0.06933 0.02133,-0.04 0.02933,-0.08267 l 0.04267,-0.266667 q 0.008,-0.03467 0.01067,-0.06933 0.0027,-0.03733 0,-0.072 -0.0027,-0.03467 -0.01067,-0.06667 -0.008,-0.032 -0.02667,-0.05867 -0.01867,-0.02933 -0.05067,-0.04 -0.032,-0.01333 -0.06667,-0.01333 -0.05067,0 -0.09867,0.01867 -0.048,0.016 -0.08533,0.05067 -0.03733,0.03467 -0.05867,0.08267 -0.01867,0.04533 -0.02667,0.09333 l -0.04533,0.266667 q -0.0053,0.03467 -0.008,0.06933 0,0.032 0.0053,0.064 0.0053,0.02933 0.01867,0.05867 0.01333,0.02933 0.03467,0.05067 0.024,0.01867 0.05333,0.02667 0.032,0.008 0.06667,0.008 z"
       style="font-size:2.66667px;fill:#d79921;fill-opacity:1"
       id="path61862" />
    <path
       d="m 18.098991,20.144663 q -0.06933,0 -0.136,-0.008 -0.06667,-0.0053 -0.130667,-0.024 -0.06133,-0.01867 -0.117333,-0.05067 -0.056,-0.032 -0.101334,-0.07733 -0.04267,-0.04533 -0.072,-0.101333 -0.02933,-0.056 -0.04533,-0.12 -0.01333,-0.064 -0.01333,-0.130667 0.0027,-0.06933 0.016,-0.136 l 0.04267,-0.266667 q 0.01333,-0.07467 0.04,-0.146667 0.02933,-0.07467 0.07733,-0.136 0.05067,-0.064 0.114667,-0.109334 0.06667,-0.048 0.141334,-0.07467 0.07467,-0.02933 0.149333,-0.03733 0.07467,-0.01067 0.149334,-0.01067 0.07467,0 0.149333,0.01067 0.07733,0.01067 0.144001,0.03733 0.06667,0.024 0.122666,0.06667 0.05867,0.04267 0.096,0.104 0.03733,0.06133 0.05067,0.136 0.01333,0.07467 0,0.149334 -0.008,0.06133 -0.04,0.122667 -0.032,0.05867 -0.08,0.106667 -0.048,0.048 -0.109333,0.08 -0.05867,0.02933 -0.122667,0.048 -0.06133,0.016 -0.125334,0.02133 -0.064,0.0053 -0.125333,0.0053 -0.02933,0 -0.06133,0 -0.02933,0 -0.05867,-0.0027 h -0.0027 q -0.05067,0 -0.104,-0.0027 -0.05067,-0.0027 -0.101334,-0.008 -0.0027,0.05333 0.01067,0.106667 0.01333,0.05067 0.048,0.088 0.03733,0.03467 0.088,0.05067 0.05067,0.01333 0.106667,0.01333 0.04,0 0.08,-0.0053 0.04267,-0.008 0.08,-0.02667 0.04,-0.01867 0.072,-0.048 0.03467,-0.02933 0.05867,-0.06667 l 0.322667,0.133334 q -0.05067,0.07467 -0.122667,0.138667 -0.06933,0.06133 -0.152,0.101333 -0.08,0.04 -0.168,0.05333 -0.08533,0.016 -0.170667,0.016 z m 0.101334,-0.829335 q 0.03467,0 0.06933,-0.0053 0.03467,-0.008 0.06667,-0.024 0.032,-0.01867 0.056,-0.048 0.024,-0.02933 0.032,-0.064 0.0053,-0.04 -0.01333,-0.07467 -0.016,-0.03467 -0.05067,-0.05333 -0.032,-0.02133 -0.072,-0.02667 -0.03733,-0.008 -0.07733,-0.008 -0.03467,0 -0.072,0.0053 -0.03733,0.0053 -0.072,0.02133 -0.03467,0.016 -0.06667,0.04267 -0.02933,0.024 -0.05067,0.056 -0.02133,0.032 -0.03467,0.06933 -0.01067,0.03467 -0.01867,0.072 l -0.0027,0.016 q 0.04,0.0053 0.07733,0.008 0.03733,0 0.07467,0.0027 0.04,0.0027 0.07733,0.008 0.04,0.0027 0.07733,0.0027 z"
       style="font-size:2.66667px;fill:#d79921;fill-opacity:1"
       id="path61864" />
    <path
       d="m 19.016327,20.123329 0.229333,-1.386668 h 0.392001 l -0.02667,0.152 q 0.02667,-0.04 0.06133,-0.07467 0.03467,-0.03467 0.07733,-0.05867 0.04267,-0.024 0.088,-0.032 0.048,-0.008 0.09067,-0.008 0.07733,0 0.149333,0.024 0.072,0.02133 0.125334,0.06933 0.056,0.04533 0.088,0.112 0.032,0.06667 0.04533,0.138667 0.01333,0.072 0.01067,0.149333 -0.0027,0.07733 -0.016,0.154667 l -0.125333,0.760001 h -0.392001 q 0.032,-0.202667 0.06667,-0.405334 0.03467,-0.202667 0.06667,-0.405334 0.0053,-0.032 0.008,-0.064 0.0027,-0.032 -0.0027,-0.06133 -0.0027,-0.032 -0.01333,-0.06133 -0.01067,-0.02933 -0.032,-0.05067 -0.01867,-0.02133 -0.048,-0.02933 -0.02933,-0.01067 -0.06133,-0.01067 -0.04267,0 -0.08533,0.01333 -0.04267,0.01067 -0.07733,0.04 -0.03467,0.02667 -0.056,0.06667 -0.01867,0.04 -0.024,0.08267 l -0.146667,0.885334 z"
       style="font-size:2.66667px;fill:#d79921;fill-opacity:1"
       id="path61866" />
  </g>
</svg>
