<svg class="qrCode" id="" version="1.1" xmlns="http://www.w3.org/2000/svg" viewBox="-5 -5 43 43"><path class="qrLight" fill="#1d2021" d="M-5,-5h43v43h-43Z"></path><g fill="#fabd2f" class="qrDark qrRounded qrModules"><rect x="8.1" y="7.099999904632568" width="0.800000011920929" height="0.800000011920929" rx="0.4000000059604645"></rect><rect x="10.1" y="7.099999904632568" width="0.800000011920929" height="0.800000011920929" rx="0.4000000059604645"></rect><rect x="11.1" y="7.099999904632568" width="0.800000011920929" height="0.800000011920929" rx="0.4000000059604645"></rect><rect x="12.1" y="7.099999904632568" width="0.800000011920929" height="0.800000011920929" rx="0.4000000059604645"></rect><rect x="16.1" y="7.099999904632568" width="0.800000011920929" height="0.800000011920929" rx="0.4000000059604645"></rect><rect x="19.1" y="7.099999904632568" width="0.800000011920929" height="0.800000011920929" rx="0.4000000059604645"></rect><rect x="20.1" y="7.099999904632568" width="0.800000011920929" height="0.800000011920929" rx="0.4000000059604645"></rect><rect x="21.1" y="7.099999904632568" width="0.800000011920929" height="0.800000011920929" rx="0.4000000059604645"></rect><rect x="24.1" y="7.099999904632568" width="0.800000011920929" height="0.800000011920929" rx="0.4000000059604645"></rect><rect x="4.1" y="8.100000381469727" width="0.800000011920929" height="0.800000011920929" rx="0.4000000059604645"></rect><rect x="5.1" y="8.100000381469727" width="0.800000011920929" height="0.800000011920929" rx="0.4000000059604645"></rect><rect x="6.1" y="8.100000381469727" width="0.800000011920929" height="0.800000011920929" rx="0.4000000059604645"></rect><rect x="7.1" y="8.100000381469727" width="0.800000011920929" height="0.800000011920929" rx="0.4000000059604645"></rect><rect x="11.1" y="8.100000381469727" width="0.800000011920929" height="0.800000011920929" rx="0.4000000059604645"></rect><rect x="13.1" y="8.100000381469727" width="0.800000011920929" height="0.800000011920929" rx="0.4000000059604645"></rect><rect x="14.1" y="8.100000381469727" width="0.800000011920929" height="0.800000011920929" rx="0.4000000059604645"></rect><rect x="16.1" y="8.100000381469727" width="0.800000011920929" height="0.800000011920929" rx="0.4000000059604645"></rect><rect x="17.1" y="8.100000381469727" width="0.800000011920929" height="0.800000011920929" rx="0.4000000059604645"></rect><rect x="18.1" y="8.100000381469727" width="0.800000011920929" height="0.800000011920929" rx="0.4000000059604645"></rect><rect x="19.1" y="8.100000381469727" width="0.800000011920929" height="0.800000011920929" rx="0.4000000059604645"></rect><rect x="21.1" y="8.100000381469727" width="0.800000011920929" height="0.800000011920929" rx="0.4000000059604645"></rect><rect x="22.1" y="8.100000381469727" width="0.800000011920929" height="0.800000011920929" rx="0.4000000059604645"></rect><rect x="23.1" y="8.100000381469727" width="0.800000011920929" height="0.800000011920929" rx="0.4000000059604645"></rect><rect x="24.1" y="8.100000381469727" width="0.800000011920929" height="0.800000011920929" rx="0.4000000059604645"></rect><rect x="26.1" y="8.100000381469727" width="0.800000011920929" height="0.800000011920929" rx="0.4000000059604645"></rect><rect x="27.1" y="8.100000381469727" width="0.800000011920929" height="0.800000011920929" rx="0.4000000059604645"></rect><rect x="31.1" y="8.100000381469727" width="0.800000011920929" height="0.800000011920929" rx="0.4000000059604645"></rect><rect x="1.1" y="9.100000381469727" width="0.800000011920929" height="0.800000011920929" rx="0.4000000059604645"></rect><rect x="2.1" y="9.100000381469727" width="0.800000011920929" height="0.800000011920929" rx="0.4000000059604645"></rect><rect x="3.1" y="9.100000381469727" width="0.800000011920929" height="0.800000011920929" rx="0.4000000059604645"></rect><rect x="4.1" y="9.100000381469727" width="0.800000011920929" height="0.800000011920929" rx="0.4000000059604645"></rect><rect x="10.1" y="9.100000381469727" width="0.800000011920929" height="0.800000011920929" rx="0.4000000059604645"></rect><rect x="11.1" y="9.100000381469727" width="0.800000011920929" height="0.800000011920929" rx="0.4000000059604645"></rect><rect x="20.1" y="9.100000381469727" width="0.800000011920929" height="0.800000011920929" rx="0.4000000059604645"></rect><rect x="21.1" y="9.100000381469727" width="0.800000011920929" height="0.800000011920929" rx="0.4000000059604645"></rect><rect x="22.1" y="9.100000381469727" width="0.800000011920929" height="0.800000011920929" rx="0.4000000059604645"></rect><rect x="23.1" y="9.100000381469727" width="0.800000011920929" height="0.800000011920929" rx="0.4000000059604645"></rect><rect x="27.1" y="9.100000381469727" width="0.800000011920929" height="0.800000011920929" rx="0.4000000059604645"></rect><rect x="29.1" y="9.100000381469727" width="0.800000011920929" height="0.800000011920929" rx="0.4000000059604645"></rect><rect x="31.1" y="9.100000381469727" width="0.800000011920929" height="0.800000011920929" rx="0.4000000059604645"></rect><rect x="0.1" y="10.10000038146973" width="0.800000011920929" height="0.800000011920929" rx="0.4000000059604645"></rect><rect x="1.1" y="10.10000038146973" width="0.800000011920929" height="0.800000011920929" rx="0.4000000059604645"></rect><rect x="3.1" y="10.10000038146973" width="0.800000011920929" height="0.800000011920929" rx="0.4000000059604645"></rect><rect x="4.1" y="10.10000038146973" width="0.800000011920929" height="0.800000011920929" rx="0.4000000059604645"></rect><rect x="6.1" y="10.10000038146973" width="0.800000011920929" height="0.800000011920929" rx="0.4000000059604645"></rect><rect x="7.1" y="10.10000038146973" width="0.800000011920929" height="0.800000011920929" rx="0.4000000059604645"></rect><rect x="8.1" y="10.10000038146973" width="0.800000011920929" height="0.800000011920929" rx="0.4000000059604645"></rect><rect x="9.1" y="10.10000038146973" width="0.800000011920929" height="0.800000011920929" rx="0.4000000059604645"></rect><rect x="11.1" y="10.10000038146973" width="0.800000011920929" height="0.800000011920929" rx="0.4000000059604645"></rect><rect x="12.1" y="10.10000038146973" width="0.800000011920929" height="0.800000011920929" rx="0.4000000059604645"></rect><rect x="14.1" y="10.10000038146973" width="0.800000011920929" height="0.800000011920929" rx="0.4000000059604645"></rect><rect x="16.1" y="10.10000038146973" width="0.800000011920929" height="0.800000011920929" rx="0.4000000059604645"></rect><rect x="19.1" y="10.10000038146973" width="0.800000011920929" height="0.800000011920929" rx="0.4000000059604645"></rect><rect x="23.1" y="10.10000038146973" width="0.800000011920929" height="0.800000011920929" rx="0.4000000059604645"></rect><rect x="26.1" y="10.10000038146973" width="0.800000011920929" height="0.800000011920929" rx="0.4000000059604645"></rect><rect x="27.1" y="10.10000038146973" width="0.800000011920929" height="0.800000011920929" rx="0.4000000059604645"></rect><rect x="28.1" y="10.10000038146973" width="0.800000011920929" height="0.800000011920929" rx="0.4000000059604645"></rect><rect x="31.1" y="10.10000038146973" width="0.800000011920929" height="0.800000011920929" rx="0.4000000059604645"></rect><rect x="1.1" y="11.10000038146973" width="0.800000011920929" height="0.800000011920929" rx="0.4000000059604645"></rect><rect x="2.1" y="11.10000038146973" width="0.800000011920929" height="0.800000011920929" rx="0.4000000059604645"></rect><rect x="3.1" y="11.10000038146973" width="0.800000011920929" height="0.800000011920929" rx="0.4000000059604645"></rect><rect x="9.1" y="11.10000038146973" width="0.800000011920929" height="0.800000011920929" rx="0.4000000059604645"></rect><rect x="10.1" y="11.10000038146973" width="0.800000011920929" height="0.800000011920929" rx="0.4000000059604645"></rect><rect x="11.1" y="11.10000038146973" width="0.800000011920929" height="0.800000011920929" rx="0.4000000059604645"></rect><rect x="14.1" y="11.10000038146973" width="0.800000011920929" height="0.800000011920929" rx="0.4000000059604645"></rect><rect x="15.1" y="11.10000038146973" width="0.800000011920929" height="0.800000011920929" rx="0.4000000059604645"></rect><rect x="17.1" y="11.10000038146973" width="0.800000011920929" height="0.800000011920929" rx="0.4000000059604645"></rect><rect x="18.1" y="11.10000038146973" width="0.800000011920929" height="0.800000011920929" rx="0.4000000059604645"></rect><rect x="19.1" y="11.10000038146973" width="0.800000011920929" height="0.800000011920929" rx="0.4000000059604645"></rect><rect x="20.1" y="11.10000038146973" width="0.800000011920929" height="0.800000011920929" rx="0.4000000059604645"></rect><rect x="22.1" y="11.10000038146973" width="0.800000011920929" height="0.800000011920929" rx="0.4000000059604645"></rect><rect x="28.1" y="11.10000038146973" width="0.800000011920929" height="0.800000011920929" rx="0.4000000059604645"></rect><rect x="29.1" y="11.10000038146973" width="0.800000011920929" height="0.800000011920929" rx="0.4000000059604645"></rect><rect x="31.1" y="11.10000038146973" width="0.800000011920929" height="0.800000011920929" rx="0.4000000059604645"></rect><rect x="32.1" y="11.10000038146973" width="0.800000011920929" height="0.800000011920929" rx="0.4000000059604645"></rect><rect x="0.1" y="12.10000038146973" width="0.800000011920929" height="0.800000011920929" rx="0.4000000059604645"></rect><rect x="2.1" y="12.10000038146973" width="0.800000011920929" height="0.800000011920929" rx="0.4000000059604645"></rect><rect x="5.1" y="12.10000038146973" width="0.800000011920929" height="0.800000011920929" rx="0.4000000059604645"></rect><rect x="6.1" y="12.10000038146973" width="0.800000011920929" height="0.800000011920929" rx="0.4000000059604645"></rect><rect x="7.1" y="12.10000038146973" width="0.800000011920929" height="0.800000011920929" rx="0.4000000059604645"></rect><rect x="10.1" y="12.10000038146973" width="0.800000011920929" height="0.800000011920929" rx="0.4000000059604645"></rect><rect x="13.1" y="12.10000038146973" width="0.800000011920929" height="0.800000011920929" rx="0.4000000059604645"></rect><rect x="16.1" y="12.10000038146973" width="0.800000011920929" height="0.800000011920929" rx="0.4000000059604645"></rect><rect x="22.1" y="12.10000038146973" width="0.800000011920929" height="0.800000011920929" rx="0.4000000059604645"></rect><rect x="23.1" y="12.10000038146973" width="0.800000011920929" height="0.800000011920929" rx="0.4000000059604645"></rect><rect x="24.1" y="12.10000038146973" width="0.800000011920929" height="0.800000011920929" rx="0.4000000059604645"></rect><rect x="26.1" y="12.10000038146973" width="0.800000011920929" height="0.800000011920929" rx="0.4000000059604645"></rect><rect x="28.1" y="12.10000038146973" width="0.800000011920929" height="0.800000011920929" rx="0.4000000059604645"></rect><rect x="32.1" y="12.10000038146973" width="0.800000011920929" height="0.800000011920929" rx="0.4000000059604645"></rect><rect x="1.1" y="13.10000038146973" width="0.800000011920929" height="0.800000011920929" rx="0.4000000059604645"></rect><rect x="7.1" y="13.10000038146973" width="0.800000011920929" height="0.800000011920929" rx="0.4000000059604645"></rect><rect x="9.1" y="13.10000038146973" width="0.800000011920929" height="0.800000011920929" rx="0.4000000059604645"></rect><rect x="11.1" y="13.10000038146973" width="0.800000011920929" height="0.800000011920929" rx="0.4000000059604645"></rect><rect x="13.1" y="13.10000038146973" width="0.800000011920929" height="0.800000011920929" rx="0.4000000059604645"></rect><rect x="15.1" y="13.10000038146973" width="0.800000011920929" height="0.800000011920929" rx="0.4000000059604645"></rect><rect x="16.1" y="13.10000038146973" width="0.800000011920929" height="0.800000011920929" rx="0.4000000059604645"></rect><rect x="17.1" y="13.10000038146973" width="0.800000011920929" height="0.800000011920929" rx="0.4000000059604645"></rect><rect x="19.1" y="13.10000038146973" width="0.800000011920929" height="0.800000011920929" rx="0.4000000059604645"></rect><rect x="21.1" y="13.10000038146973" width="0.800000011920929" height="0.800000011920929" rx="0.4000000059604645"></rect><rect x="23.1" y="13.10000038146973" width="0.800000011920929" height="0.800000011920929" rx="0.4000000059604645"></rect><rect x="24.1" y="13.10000038146973" width="0.800000011920929" height="0.800000011920929" rx="0.4000000059604645"></rect><rect x="27.1" y="13.10000038146973" width="0.800000011920929" height="0.800000011920929" rx="0.4000000059604645"></rect><rect x="29.1" y="13.10000038146973" width="0.800000011920929" height="0.800000011920929" rx="0.4000000059604645"></rect><rect x="31.1" y="13.10000038146973" width="0.800000011920929" height="0.800000011920929" rx="0.4000000059604645"></rect><rect x="3.1" y="14.10000038146973" width="0.800000011920929" height="0.800000011920929" rx="0.4000000059604645"></rect><rect x="4.1" y="14.10000038146973" width="0.800000011920929" height="0.800000011920929" rx="0.4000000059604645"></rect><rect x="5.1" y="14.10000038146973" width="0.800000011920929" height="0.800000011920929" rx="0.4000000059604645"></rect><rect x="6.1" y="14.10000038146973" width="0.800000011920929" height="0.800000011920929" rx="0.4000000059604645"></rect><rect x="10.1" y="14.10000038146973" width="0.800000011920929" height="0.800000011920929" rx="0.4000000059604645"></rect><rect x="12.1" y="14.10000038146973" width="0.800000011920929" height="0.800000011920929" rx="0.4000000059604645"></rect><rect x="14.1" y="14.10000038146973" width="0.800000011920929" height="0.800000011920929" rx="0.4000000059604645"></rect><rect x="17.1" y="14.10000038146973" width="0.800000011920929" height="0.800000011920929" rx="0.4000000059604645"></rect><rect x="18.1" y="14.10000038146973" width="0.800000011920929" height="0.800000011920929" rx="0.4000000059604645"></rect><rect x="19.1" y="14.10000038146973" width="0.800000011920929" height="0.800000011920929" rx="0.4000000059604645"></rect><rect x="23.1" y="14.10000038146973" width="0.800000011920929" height="0.800000011920929" rx="0.4000000059604645"></rect><rect x="27.1" y="14.10000038146973" width="0.800000011920929" height="0.800000011920929" rx="0.4000000059604645"></rect><rect x="30.1" y="14.10000038146973" width="0.800000011920929" height="0.800000011920929" rx="0.4000000059604645"></rect><rect x="31.1" y="14.10000038146973" width="0.800000011920929" height="0.800000011920929" rx="0.4000000059604645"></rect><rect x="1.1" y="15.10000038146973" width="0.800000011920929" height="0.800000011920929" rx="0.4000000059604645"></rect><rect x="2.1" y="15.10000038146973" width="0.800000011920929" height="0.800000011920929" rx="0.4000000059604645"></rect><rect x="3.1" y="15.10000038146973" width="0.800000011920929" height="0.800000011920929" rx="0.4000000059604645"></rect><rect x="7.1" y="15.10000038146973" width="0.800000011920929" height="0.800000011920929" rx="0.4000000059604645"></rect><rect x="8.1" y="15.10000038146973" width="0.800000011920929" height="0.800000011920929" rx="0.4000000059604645"></rect><rect x="12.1" y="15.10000038146973" width="0.800000011920929" height="0.800000011920929" rx="0.4000000059604645"></rect><rect x="13.1" y="15.10000038146973" width="0.800000011920929" height="0.800000011920929" rx="0.4000000059604645"></rect><rect x="14.1" y="15.10000038146973" width="0.800000011920929" height="0.800000011920929" rx="0.4000000059604645"></rect><rect x="15.1" y="15.10000038146973" width="0.800000011920929" height="0.800000011920929" rx="0.4000000059604645"></rect><rect x="16.1" y="15.10000038146973" width="0.800000011920929" height="0.800000011920929" rx="0.4000000059604645"></rect><rect x="17.1" y="15.10000038146973" width="0.800000011920929" height="0.800000011920929" rx="0.4000000059604645"></rect><rect x="19.1" y="15.10000038146973" width="0.800000011920929" height="0.800000011920929" rx="0.4000000059604645"></rect><rect x="20.1" y="15.10000038146973" width="0.800000011920929" height="0.800000011920929" rx="0.4000000059604645"></rect><rect x="21.1" y="15.10000038146973" width="0.800000011920929" height="0.800000011920929" rx="0.4000000059604645"></rect><rect x="26.1" y="15.10000038146973" width="0.800000011920929" height="0.800000011920929" rx="0.4000000059604645"></rect><rect x="27.1" y="15.10000038146973" width="0.800000011920929" height="0.800000011920929" rx="0.4000000059604645"></rect><rect x="28.1" y="15.10000038146973" width="0.800000011920929" height="0.800000011920929" rx="0.4000000059604645"></rect><rect x="2.1" y="16.10000038146973" width="0.800000011920929" height="0.800000011920929" rx="0.4000000059604645"></rect><rect x="6.1" y="16.10000038146973" width="0.800000011920929" height="0.800000011920929" rx="0.4000000059604645"></rect><rect x="7.1" y="16.10000038146973" width="0.800000011920929" height="0.800000011920929" rx="0.4000000059604645"></rect><rect x="9.1" y="16.10000038146973" width="0.800000011920929" height="0.800000011920929" rx="0.4000000059604645"></rect><rect x="13.1" y="16.10000038146973" width="0.800000011920929" height="0.800000011920929" rx="0.4000000059604645"></rect><rect x="21.1" y="16.10000038146973" width="0.800000011920929" height="0.800000011920929" rx="0.4000000059604645"></rect><rect x="26.1" y="16.10000038146973" width="0.800000011920929" height="0.800000011920929" rx="0.4000000059604645"></rect><rect x="27.1" y="16.10000038146973" width="0.800000011920929" height="0.800000011920929" rx="0.4000000059604645"></rect><rect x="28.1" y="16.10000038146973" width="0.800000011920929" height="0.800000011920929" rx="0.4000000059604645"></rect><rect x="29.1" y="16.10000038146973" width="0.800000011920929" height="0.800000011920929" rx="0.4000000059604645"></rect><rect x="30.1" y="16.10000038146973" width="0.800000011920929" height="0.800000011920929" rx="0.4000000059604645"></rect><rect x="31.1" y="16.10000038146973" width="0.800000011920929" height="0.800000011920929" rx="0.4000000059604645"></rect><rect x="32.1" y="16.10000038146973" width="0.800000011920929" height="0.800000011920929" rx="0.4000000059604645"></rect><rect x="0.1" y="17.10000038146973" width="0.800000011920929" height="0.800000011920929" rx="0.4000000059604645"></rect><rect x="7.1" y="17.10000038146973" width="0.800000011920929" height="0.800000011920929" rx="0.4000000059604645"></rect><rect x="8.1" y="17.10000038146973" width="0.800000011920929" height="0.800000011920929" rx="0.4000000059604645"></rect><rect x="10.1" y="17.10000038146973" width="0.800000011920929" height="0.800000011920929" rx="0.4000000059604645"></rect><rect x="11.1" y="17.10000038146973" width="0.800000011920929" height="0.800000011920929" rx="0.4000000059604645"></rect><rect x="14.1" y="17.10000038146973" width="0.800000011920929" height="0.800000011920929" rx="0.4000000059604645"></rect><rect x="17.1" y="17.10000038146973" width="0.800000011920929" height="0.800000011920929" rx="0.4000000059604645"></rect><rect x="19.1" y="17.10000038146973" width="0.800000011920929" height="0.800000011920929" rx="0.4000000059604645"></rect><rect x="20.1" y="17.10000038146973" width="0.800000011920929" height="0.800000011920929" rx="0.4000000059604645"></rect><rect x="23.1" y="17.10000038146973" width="0.800000011920929" height="0.800000011920929" rx="0.4000000059604645"></rect><rect x="24.1" y="17.10000038146973" width="0.800000011920929" height="0.800000011920929" rx="0.4000000059604645"></rect><rect x="27.1" y="17.10000038146973" width="0.800000011920929" height="0.800000011920929" rx="0.4000000059604645"></rect><rect x="31.1" y="17.10000038146973" width="0.800000011920929" height="0.800000011920929" rx="0.4000000059604645"></rect><rect x="1.1" y="18.10000038146973" width="0.800000011920929" height="0.800000011920929" rx="0.4000000059604645"></rect><rect x="2.1" y="18.10000038146973" width="0.800000011920929" height="0.800000011920929" rx="0.4000000059604645"></rect><rect x="3.1" y="18.10000038146973" width="0.800000011920929" height="0.800000011920929" rx="0.4000000059604645"></rect><rect x="6.1" y="18.10000038146973" width="0.800000011920929" height="0.800000011920929" rx="0.4000000059604645"></rect><rect x="8.1" y="18.10000038146973" width="0.800000011920929" height="0.800000011920929" rx="0.4000000059604645"></rect><rect x="9.1" y="18.10000038146973" width="0.800000011920929" height="0.800000011920929" rx="0.4000000059604645"></rect><rect x="11.1" y="18.10000038146973" width="0.800000011920929" height="0.800000011920929" rx="0.4000000059604645"></rect><rect x="17.1" y="18.10000038146973" width="0.800000011920929" height="0.800000011920929" rx="0.4000000059604645"></rect><rect x="22.1" y="18.10000038146973" width="0.800000011920929" height="0.800000011920929" rx="0.4000000059604645"></rect><rect x="23.1" y="18.10000038146973" width="0.800000011920929" height="0.800000011920929" rx="0.4000000059604645"></rect><rect x="24.1" y="18.10000038146973" width="0.800000011920929" height="0.800000011920929" rx="0.4000000059604645"></rect><rect x="25.1" y="18.10000038146973" width="0.800000011920929" height="0.800000011920929" rx="0.4000000059604645"></rect><rect x="28.1" y="18.10000038146973" width="0.800000011920929" height="0.800000011920929" rx="0.4000000059604645"></rect><rect x="29.1" y="18.10000038146973" width="0.800000011920929" height="0.800000011920929" rx="0.4000000059604645"></rect><rect x="2.1" y="19.10000038146973" width="0.800000011920929" height="0.800000011920929" rx="0.4000000059604645"></rect><rect x="3.1" y="19.10000038146973" width="0.800000011920929" height="0.800000011920929" rx="0.4000000059604645"></rect><rect x="5.1" y="19.10000038146973" width="0.800000011920929" height="0.800000011920929" rx="0.4000000059604645"></rect><rect x="7.1" y="19.10000038146973" width="0.800000011920929" height="0.800000011920929" rx="0.4000000059604645"></rect><rect x="8.1" y="19.10000038146973" width="0.800000011920929" height="0.800000011920929" rx="0.4000000059604645"></rect><rect x="9.1" y="19.10000038146973" width="0.800000011920929" height="0.800000011920929" rx="0.4000000059604645"></rect><rect x="10.1" y="19.10000038146973" width="0.800000011920929" height="0.800000011920929" rx="0.4000000059604645"></rect><rect x="11.1" y="19.10000038146973" width="0.800000011920929" height="0.800000011920929" rx="0.4000000059604645"></rect><rect x="16.1" y="19.10000038146973" width="0.800000011920929" height="0.800000011920929" rx="0.4000000059604645"></rect><rect x="18.1" y="19.10000038146973" width="0.800000011920929" height="0.800000011920929" rx="0.4000000059604645"></rect><rect x="19.1" y="19.10000038146973" width="0.800000011920929" height="0.800000011920929" rx="0.4000000059604645"></rect><rect x="21.1" y="19.10000038146973" width="0.800000011920929" height="0.800000011920929" rx="0.4000000059604645"></rect><rect x="25.1" y="19.10000038146973" width="0.800000011920929" height="0.800000011920929" rx="0.4000000059604645"></rect><rect x="26.1" y="19.10000038146973" width="0.800000011920929" height="0.800000011920929" rx="0.4000000059604645"></rect><rect x="27.1" y="19.10000038146973" width="0.800000011920929" height="0.800000011920929" rx="0.4000000059604645"></rect><rect x="28.1" y="19.10000038146973" width="0.800000011920929" height="0.800000011920929" rx="0.4000000059604645"></rect><rect x="31.1" y="19.10000038146973" width="0.800000011920929" height="0.800000011920929" rx="0.4000000059604645"></rect><rect x="3.1" y="20.10000038146973" width="0.800000011920929" height="0.800000011920929" rx="0.4000000059604645"></rect><rect x="4.1" y="20.10000038146973" width="0.800000011920929" height="0.800000011920929" rx="0.4000000059604645"></rect><rect x="6.1" y="20.10000038146973" width="0.800000011920929" height="0.800000011920929" rx="0.4000000059604645"></rect><rect x="7.1" y="20.10000038146973" width="0.800000011920929" height="0.800000011920929" rx="0.4000000059604645"></rect><rect x="8.1" y="20.10000038146973" width="0.800000011920929" height="0.800000011920929" rx="0.4000000059604645"></rect><rect x="9.1" y="20.10000038146973" width="0.800000011920929" height="0.800000011920929" rx="0.4000000059604645"></rect><rect x="14.1" y="20.10000038146973" width="0.800000011920929" height="0.800000011920929" rx="0.4000000059604645"></rect><rect x="15.1" y="20.10000038146973" width="0.800000011920929" height="0.800000011920929" rx="0.4000000059604645"></rect><rect x="16.1" y="20.10000038146973" width="0.800000011920929" height="0.800000011920929" rx="0.4000000059604645"></rect><rect x="17.1" y="20.10000038146973" width="0.800000011920929" height="0.800000011920929" rx="0.4000000059604645"></rect><rect x="18.1" y="20.10000038146973" width="0.800000011920929" height="0.800000011920929" rx="0.4000000059604645"></rect><rect x="19.1" y="20.10000038146973" width="0.800000011920929" height="0.800000011920929" rx="0.4000000059604645"></rect><rect x="20.1" y="20.10000038146973" width="0.800000011920929" height="0.800000011920929" rx="0.4000000059604645"></rect><rect x="21.1" y="20.10000038146973" width="0.800000011920929" height="0.800000011920929" rx="0.4000000059604645"></rect><rect x="22.1" y="20.10000038146973" width="0.800000011920929" height="0.800000011920929" rx="0.4000000059604645"></rect><rect x="24.1" y="20.10000038146973" width="0.800000011920929" height="0.800000011920929" rx="0.4000000059604645"></rect><rect x="26.1" y="20.10000038146973" width="0.800000011920929" height="0.800000011920929" rx="0.4000000059604645"></rect><rect x="28.1" y="20.10000038146973" width="0.800000011920929" height="0.800000011920929" rx="0.4000000059604645"></rect><rect x="29.1" y="20.10000038146973" width="0.800000011920929" height="0.800000011920929" rx="0.4000000059604645"></rect><rect x="31.1" y="20.10000038146973" width="0.800000011920929" height="0.800000011920929" rx="0.4000000059604645"></rect><rect x="32.1" y="20.10000038146973" width="0.800000011920929" height="0.800000011920929" rx="0.4000000059604645"></rect><rect x="0.1" y="21.10000038146973" width="0.800000011920929" height="0.800000011920929" rx="0.4000000059604645"></rect><rect x="3.1" y="21.10000038146973" width="0.800000011920929" height="0.800000011920929" rx="0.4000000059604645"></rect><rect x="4.1" y="21.10000038146973" width="0.800000011920929" height="0.800000011920929" rx="0.4000000059604645"></rect><rect x="7.1" y="21.10000038146973" width="0.800000011920929" height="0.800000011920929" rx="0.4000000059604645"></rect><rect x="11.1" y="21.10000038146973" width="0.800000011920929" height="0.800000011920929" rx="0.4000000059604645"></rect><rect x="13.1" y="21.10000038146973" width="0.800000011920929" height="0.800000011920929" rx="0.4000000059604645"></rect><rect x="16.1" y="21.10000038146973" width="0.800000011920929" height="0.800000011920929" rx="0.4000000059604645"></rect><rect x="17.1" y="21.10000038146973" width="0.800000011920929" height="0.800000011920929" rx="0.4000000059604645"></rect><rect x="19.1" y="21.10000038146973" width="0.800000011920929" height="0.800000011920929" rx="0.4000000059604645"></rect><rect x="20.1" y="21.10000038146973" width="0.800000011920929" height="0.800000011920929" rx="0.4000000059604645"></rect><rect x="23.1" y="21.10000038146973" width="0.800000011920929" height="0.800000011920929" rx="0.4000000059604645"></rect><rect x="25.1" y="21.10000038146973" width="0.800000011920929" height="0.800000011920929" rx="0.4000000059604645"></rect><rect x="27.1" y="21.10000038146973" width="0.800000011920929" height="0.800000011920929" rx="0.4000000059604645"></rect><rect x="31.1" y="21.10000038146973" width="0.800000011920929" height="0.800000011920929" rx="0.4000000059604645"></rect><rect x="2.1" y="22.10000038146973" width="0.800000011920929" height="0.800000011920929" rx="0.4000000059604645"></rect><rect x="6.1" y="22.10000038146973" width="0.800000011920929" height="0.800000011920929" rx="0.4000000059604645"></rect><rect x="10.1" y="22.10000038146973" width="0.800000011920929" height="0.800000011920929" rx="0.4000000059604645"></rect><rect x="11.1" y="22.10000038146973" width="0.800000011920929" height="0.800000011920929" rx="0.4000000059604645"></rect><rect x="12.1" y="22.10000038146973" width="0.800000011920929" height="0.800000011920929" rx="0.4000000059604645"></rect><rect x="13.1" y="22.10000038146973" width="0.800000011920929" height="0.800000011920929" rx="0.4000000059604645"></rect><rect x="14.1" y="22.10000038146973" width="0.800000011920929" height="0.800000011920929" rx="0.4000000059604645"></rect><rect x="17.1" y="22.10000038146973" width="0.800000011920929" height="0.800000011920929" rx="0.4000000059604645"></rect><rect x="19.1" y="22.10000038146973" width="0.800000011920929" height="0.800000011920929" rx="0.4000000059604645"></rect><rect x="20.1" y="22.10000038146973" width="0.800000011920929" height="0.800000011920929" rx="0.4000000059604645"></rect><rect x="21.1" y="22.10000038146973" width="0.800000011920929" height="0.800000011920929" rx="0.4000000059604645"></rect><rect x="23.1" y="22.10000038146973" width="0.800000011920929" height="0.800000011920929" rx="0.4000000059604645"></rect><rect x="24.1" y="22.10000038146973" width="0.800000011920929" height="0.800000011920929" rx="0.4000000059604645"></rect><rect x="27.1" y="22.10000038146973" width="0.800000011920929" height="0.800000011920929" rx="0.4000000059604645"></rect><rect x="28.1" y="22.10000038146973" width="0.800000011920929" height="0.800000011920929" rx="0.4000000059604645"></rect><rect x="31.1" y="22.10000038146973" width="0.800000011920929" height="0.800000011920929" rx="0.4000000059604645"></rect><rect x="2.1" y="23.10000038146973" width="0.800000011920929" height="0.800000011920929" rx="0.4000000059604645"></rect><rect x="3.1" y="23.10000038146973" width="0.800000011920929" height="0.800000011920929" rx="0.4000000059604645"></rect><rect x="4.1" y="23.10000038146973" width="0.800000011920929" height="0.800000011920929" rx="0.4000000059604645"></rect><rect x="8.1" y="23.10000038146973" width="0.800000011920929" height="0.800000011920929" rx="0.4000000059604645"></rect><rect x="11.1" y="23.10000038146973" width="0.800000011920929" height="0.800000011920929" rx="0.4000000059604645"></rect><rect x="12.1" y="23.10000038146973" width="0.800000011920929" height="0.800000011920929" rx="0.4000000059604645"></rect><rect x="13.1" y="23.10000038146973" width="0.800000011920929" height="0.800000011920929" rx="0.4000000059604645"></rect><rect x="14.1" y="23.10000038146973" width="0.800000011920929" height="0.800000011920929" rx="0.4000000059604645"></rect><rect x="16.1" y="23.10000038146973" width="0.800000011920929" height="0.800000011920929" rx="0.4000000059604645"></rect><rect x="21.1" y="23.10000038146973" width="0.800000011920929" height="0.800000011920929" rx="0.4000000059604645"></rect><rect x="22.1" y="23.10000038146973" width="0.800000011920929" height="0.800000011920929" rx="0.4000000059604645"></rect><rect x="23.1" y="23.10000038146973" width="0.800000011920929" height="0.800000011920929" rx="0.4000000059604645"></rect><rect x="24.1" y="23.10000038146973" width="0.800000011920929" height="0.800000011920929" rx="0.4000000059604645"></rect><rect x="28.1" y="23.10000038146973" width="0.800000011920929" height="0.800000011920929" rx="0.4000000059604645"></rect><rect x="31.1" y="23.10000038146973" width="0.800000011920929" height="0.800000011920929" rx="0.4000000059604645"></rect><rect x="32.1" y="23.10000038146973" width="0.800000011920929" height="0.800000011920929" rx="0.4000000059604645"></rect><rect x="0.1" y="24.10000038146973" width="0.800000011920929" height="0.800000011920929" rx="0.4000000059604645"></rect><rect x="1.1" y="24.10000038146973" width="0.800000011920929" height="0.800000011920929" rx="0.4000000059604645"></rect><rect x="2.1" y="24.10000038146973" width="0.800000011920929" height="0.800000011920929" rx="0.4000000059604645"></rect><rect x="5.1" y="24.10000038146973" width="0.800000011920929" height="0.800000011920929" rx="0.4000000059604645"></rect><rect x="6.1" y="24.10000038146973" width="0.800000011920929" height="0.800000011920929" rx="0.4000000059604645"></rect><rect x="8.1" y="24.10000038146973" width="0.800000011920929" height="0.800000011920929" rx="0.4000000059604645"></rect><rect x="9.1" y="24.10000038146973" width="0.800000011920929" height="0.800000011920929" rx="0.4000000059604645"></rect><rect x="12.1" y="24.10000038146973" width="0.800000011920929" height="0.800000011920929" rx="0.4000000059604645"></rect><rect x="13.1" y="24.10000038146973" width="0.800000011920929" height="0.800000011920929" rx="0.4000000059604645"></rect><rect x="14.1" y="24.10000038146973" width="0.800000011920929" height="0.800000011920929" rx="0.4000000059604645"></rect><rect x="18.1" y="24.10000038146973" width="0.800000011920929" height="0.800000011920929" rx="0.4000000059604645"></rect><rect x="19.1" y="24.10000038146973" width="0.800000011920929" height="0.800000011920929" rx="0.4000000059604645"></rect><rect x="20.1" y="24.10000038146973" width="0.800000011920929" height="0.800000011920929" rx="0.4000000059604645"></rect><rect x="21.1" y="24.10000038146973" width="0.800000011920929" height="0.800000011920929" rx="0.4000000059604645"></rect><rect x="22.1" y="24.10000038146973" width="0.800000011920929" height="0.800000011920929" rx="0.4000000059604645"></rect><rect x="24.1" y="24.10000038146973" width="0.800000011920929" height="0.800000011920929" rx="0.4000000059604645"></rect><rect x="25.1" y="24.10000038146973" width="0.800000011920929" height="0.800000011920929" rx="0.4000000059604645"></rect><rect x="26.1" y="24.10000038146973" width="0.800000011920929" height="0.800000011920929" rx="0.4000000059604645"></rect><rect x="27.1" y="24.10000038146973" width="0.800000011920929" height="0.800000011920929" rx="0.4000000059604645"></rect><rect x="28.1" y="24.10000038146973" width="0.800000011920929" height="0.800000011920929" rx="0.4000000059604645"></rect><rect x="29.1" y="24.10000038146973" width="0.800000011920929" height="0.800000011920929" rx="0.4000000059604645"></rect><rect x="8.1" y="25.10000038146973" width="0.800000011920929" height="0.800000011920929" rx="0.4000000059604645"></rect><rect x="10.1" y="25.10000038146973" width="0.800000011920929" height="0.800000011920929" rx="0.4000000059604645"></rect><rect x="12.1" y="25.10000038146973" width="0.800000011920929" height="0.800000011920929" rx="0.4000000059604645"></rect><rect x="13.1" y="25.10000038146973" width="0.800000011920929" height="0.800000011920929" rx="0.4000000059604645"></rect><rect x="14.1" y="25.10000038146973" width="0.800000011920929" height="0.800000011920929" rx="0.4000000059604645"></rect><rect x="16.1" y="25.10000038146973" width="0.800000011920929" height="0.800000011920929" rx="0.4000000059604645"></rect><rect x="17.1" y="25.10000038146973" width="0.800000011920929" height="0.800000011920929" rx="0.4000000059604645"></rect><rect x="19.1" y="25.10000038146973" width="0.800000011920929" height="0.800000011920929" rx="0.4000000059604645"></rect><rect x="23.1" y="25.10000038146973" width="0.800000011920929" height="0.800000011920929" rx="0.4000000059604645"></rect><rect x="24.1" y="25.10000038146973" width="0.800000011920929" height="0.800000011920929" rx="0.4000000059604645"></rect><rect x="28.1" y="25.10000038146973" width="0.800000011920929" height="0.800000011920929" rx="0.4000000059604645"></rect><rect x="29.1" y="25.10000038146973" width="0.800000011920929" height="0.800000011920929" rx="0.4000000059604645"></rect><rect x="31.1" y="25.10000038146973" width="0.800000011920929" height="0.800000011920929" rx="0.4000000059604645"></rect><rect x="9.1" y="0.1000000014901161" width="0.800000011920929" height="0.800000011920929" rx="0.4000000059604645"></rect><rect x="10.1" y="0.1000000014901161" width="0.800000011920929" height="0.800000011920929" rx="0.4000000059604645"></rect><rect x="14.1" y="0.1000000014901161" width="0.800000011920929" height="0.800000011920929" rx="0.4000000059604645"></rect><rect x="15.1" y="0.1000000014901161" width="0.800000011920929" height="0.800000011920929" rx="0.4000000059604645"></rect><rect x="16.1" y="0.1000000014901161" width="0.800000011920929" height="0.800000011920929" rx="0.4000000059604645"></rect><rect x="17.1" y="0.1000000014901161" width="0.800000011920929" height="0.800000011920929" rx="0.4000000059604645"></rect><rect x="18.1" y="0.1000000014901161" width="0.800000011920929" height="0.800000011920929" rx="0.4000000059604645"></rect><rect x="21.1" y="0.1000000014901161" width="0.800000011920929" height="0.800000011920929" rx="0.4000000059604645"></rect><rect x="23.1" y="0.1000000014901161" width="0.800000011920929" height="0.800000011920929" rx="0.4000000059604645"></rect><rect x="24.1" y="0.1000000014901161" width="0.800000011920929" height="0.800000011920929" rx="0.4000000059604645"></rect><rect x="8.1" y="1.100000023841858" width="0.800000011920929" height="0.800000011920929" rx="0.4000000059604645"></rect><rect x="9.1" y="1.100000023841858" width="0.800000011920929" height="0.800000011920929" rx="0.4000000059604645"></rect><rect x="12.1" y="1.100000023841858" width="0.800000011920929" height="0.800000011920929" rx="0.4000000059604645"></rect><rect x="13.1" y="1.100000023841858" width="0.800000011920929" height="0.800000011920929" rx="0.4000000059604645"></rect><rect x="14.1" y="1.100000023841858" width="0.800000011920929" height="0.800000011920929" rx="0.4000000059604645"></rect><rect x="15.1" y="1.100000023841858" width="0.800000011920929" height="0.800000011920929" rx="0.4000000059604645"></rect><rect x="16.1" y="1.100000023841858" width="0.800000011920929" height="0.800000011920929" rx="0.4000000059604645"></rect><rect x="17.1" y="1.100000023841858" width="0.800000011920929" height="0.800000011920929" rx="0.4000000059604645"></rect><rect x="20.1" y="1.100000023841858" width="0.800000011920929" height="0.800000011920929" rx="0.4000000059604645"></rect><rect x="21.1" y="1.100000023841858" width="0.800000011920929" height="0.800000011920929" rx="0.4000000059604645"></rect><rect x="22.1" y="1.100000023841858" width="0.800000011920929" height="0.800000011920929" rx="0.4000000059604645"></rect><rect x="24.1" y="1.100000023841858" width="0.800000011920929" height="0.800000011920929" rx="0.4000000059604645"></rect><rect x="9.1" y="2.099999904632568" width="0.800000011920929" height="0.800000011920929" rx="0.4000000059604645"></rect><rect x="11.1" y="2.099999904632568" width="0.800000011920929" height="0.800000011920929" rx="0.4000000059604645"></rect><rect x="14.1" y="2.099999904632568" width="0.800000011920929" height="0.800000011920929" rx="0.4000000059604645"></rect><rect x="17.1" y="2.099999904632568" width="0.800000011920929" height="0.800000011920929" rx="0.4000000059604645"></rect><rect x="21.1" y="2.099999904632568" width="0.800000011920929" height="0.800000011920929" rx="0.4000000059604645"></rect><rect x="22.1" y="2.099999904632568" width="0.800000011920929" height="0.800000011920929" rx="0.4000000059604645"></rect><rect x="9.1" y="3.099999904632568" width="0.800000011920929" height="0.800000011920929" rx="0.4000000059604645"></rect><rect x="10.1" y="3.099999904632568" width="0.800000011920929" height="0.800000011920929" rx="0.4000000059604645"></rect><rect x="11.1" y="3.099999904632568" width="0.800000011920929" height="0.800000011920929" rx="0.4000000059604645"></rect><rect x="14.1" y="3.099999904632568" width="0.800000011920929" height="0.800000011920929" rx="0.4000000059604645"></rect><rect x="15.1" y="3.099999904632568" width="0.800000011920929" height="0.800000011920929" rx="0.4000000059604645"></rect><rect x="18.1" y="3.099999904632568" width="0.800000011920929" height="0.800000011920929" rx="0.4000000059604645"></rect><rect x="19.1" y="3.099999904632568" width="0.800000011920929" height="0.800000011920929" rx="0.4000000059604645"></rect><rect x="10.1" y="4.099999904632568" width="0.800000011920929" height="0.800000011920929" rx="0.4000000059604645"></rect><rect x="15.1" y="4.099999904632568" width="0.800000011920929" height="0.800000011920929" rx="0.4000000059604645"></rect><rect x="17.1" y="4.099999904632568" width="0.800000011920929" height="0.800000011920929" rx="0.4000000059604645"></rect><rect x="18.1" y="4.099999904632568" width="0.800000011920929" height="0.800000011920929" rx="0.4000000059604645"></rect><rect x="19.1" y="4.099999904632568" width="0.800000011920929" height="0.800000011920929" rx="0.4000000059604645"></rect><rect x="20.1" y="4.099999904632568" width="0.800000011920929" height="0.800000011920929" rx="0.4000000059604645"></rect><rect x="24.1" y="4.099999904632568" width="0.800000011920929" height="0.800000011920929" rx="0.4000000059604645"></rect><rect x="8.1" y="5.099999904632568" width="0.800000011920929" height="0.800000011920929" rx="0.4000000059604645"></rect><rect x="9.1" y="5.099999904632568" width="0.800000011920929" height="0.800000011920929" rx="0.4000000059604645"></rect><rect x="12.1" y="5.099999904632568" width="0.800000011920929" height="0.800000011920929" rx="0.4000000059604645"></rect><rect x="13.1" y="5.099999904632568" width="0.800000011920929" height="0.800000011920929" rx="0.4000000059604645"></rect><rect x="17.1" y="5.099999904632568" width="0.800000011920929" height="0.800000011920929" rx="0.4000000059604645"></rect><rect x="20.1" y="5.099999904632568" width="0.800000011920929" height="0.800000011920929" rx="0.4000000059604645"></rect><rect x="22.1" y="5.099999904632568" width="0.800000011920929" height="0.800000011920929" rx="0.4000000059604645"></rect><rect x="24.1" y="5.099999904632568" width="0.800000011920929" height="0.800000011920929" rx="0.4000000059604645"></rect><rect x="8.1" y="6.099999904632568" width="0.800000011920929" height="0.800000011920929" rx="0.4000000059604645"></rect><rect x="10.1" y="6.099999904632568" width="0.800000011920929" height="0.800000011920929" rx="0.4000000059604645"></rect><rect x="12.1" y="6.099999904632568" width="0.800000011920929" height="0.800000011920929" rx="0.4000000059604645"></rect><rect x="14.1" y="6.099999904632568" width="0.800000011920929" height="0.800000011920929" rx="0.4000000059604645"></rect><rect x="16.1" y="6.099999904632568" width="0.800000011920929" height="0.800000011920929" rx="0.4000000059604645"></rect><rect x="18.1" y="6.099999904632568" width="0.800000011920929" height="0.800000011920929" rx="0.4000000059604645"></rect><rect x="20.1" y="6.099999904632568" width="0.800000011920929" height="0.800000011920929" rx="0.4000000059604645"></rect><rect x="22.1" y="6.099999904632568" width="0.800000011920929" height="0.800000011920929" rx="0.4000000059604645"></rect><rect x="24.1" y="6.099999904632568" width="0.800000011920929" height="0.800000011920929" rx="0.4000000059604645"></rect><rect x="8.1" y="26.10000038146973" width="0.800000011920929" height="0.800000011920929" rx="0.4000000059604645"></rect><rect x="9.1" y="26.10000038146973" width="0.800000011920929" height="0.800000011920929" rx="0.4000000059604645"></rect><rect x="10.1" y="26.10000038146973" width="0.800000011920929" height="0.800000011920929" rx="0.4000000059604645"></rect><rect x="11.1" y="26.10000038146973" width="0.800000011920929" height="0.800000011920929" rx="0.4000000059604645"></rect><rect x="12.1" y="26.10000038146973" width="0.800000011920929" height="0.800000011920929" rx="0.4000000059604645"></rect><rect x="13.1" y="26.10000038146973" width="0.800000011920929" height="0.800000011920929" rx="0.4000000059604645"></rect><rect x="14.1" y="26.10000038146973" width="0.800000011920929" height="0.800000011920929" rx="0.4000000059604645"></rect><rect x="15.1" y="26.10000038146973" width="0.800000011920929" height="0.800000011920929" rx="0.4000000059604645"></rect><rect x="19.1" y="26.10000038146973" width="0.800000011920929" height="0.800000011920929" rx="0.4000000059604645"></rect><rect x="21.1" y="26.10000038146973" width="0.800000011920929" height="0.800000011920929" rx="0.4000000059604645"></rect><rect x="22.1" y="26.10000038146973" width="0.800000011920929" height="0.800000011920929" rx="0.4000000059604645"></rect><rect x="23.1" y="26.10000038146973" width="0.800000011920929" height="0.800000011920929" rx="0.4000000059604645"></rect><rect x="24.1" y="26.10000038146973" width="0.800000011920929" height="0.800000011920929" rx="0.4000000059604645"></rect><rect x="26.1" y="26.10000038146973" width="0.800000011920929" height="0.800000011920929" rx="0.4000000059604645"></rect><rect x="28.1" y="26.10000038146973" width="0.800000011920929" height="0.800000011920929" rx="0.4000000059604645"></rect><rect x="30.1" y="26.10000038146973" width="0.800000011920929" height="0.800000011920929" rx="0.4000000059604645"></rect><rect x="31.1" y="26.10000038146973" width="0.800000011920929" height="0.800000011920929" rx="0.4000000059604645"></rect><rect x="8.1" y="27.10000038146973" width="0.800000011920929" height="0.800000011920929" rx="0.4000000059604645"></rect><rect x="10.1" y="27.10000038146973" width="0.800000011920929" height="0.800000011920929" rx="0.4000000059604645"></rect><rect x="12.1" y="27.10000038146973" width="0.800000011920929" height="0.800000011920929" rx="0.4000000059604645"></rect><rect x="13.1" y="27.10000038146973" width="0.800000011920929" height="0.800000011920929" rx="0.4000000059604645"></rect><rect x="15.1" y="27.10000038146973" width="0.800000011920929" height="0.800000011920929" rx="0.4000000059604645"></rect><rect x="18.1" y="27.10000038146973" width="0.800000011920929" height="0.800000011920929" rx="0.4000000059604645"></rect><rect x="21.1" y="27.10000038146973" width="0.800000011920929" height="0.800000011920929" rx="0.4000000059604645"></rect><rect x="24.1" y="27.10000038146973" width="0.800000011920929" height="0.800000011920929" rx="0.4000000059604645"></rect><rect x="28.1" y="27.10000038146973" width="0.800000011920929" height="0.800000011920929" rx="0.4000000059604645"></rect><rect x="31.1" y="27.10000038146973" width="0.800000011920929" height="0.800000011920929" rx="0.4000000059604645"></rect><rect x="32.1" y="27.10000038146973" width="0.800000011920929" height="0.800000011920929" rx="0.4000000059604645"></rect><rect x="8.1" y="28.10000038146973" width="0.800000011920929" height="0.800000011920929" rx="0.4000000059604645"></rect><rect x="9.1" y="28.10000038146973" width="0.800000011920929" height="0.800000011920929" rx="0.4000000059604645"></rect><rect x="10.1" y="28.10000038146973" width="0.800000011920929" height="0.800000011920929" rx="0.4000000059604645"></rect><rect x="13.1" y="28.10000038146973" width="0.800000011920929" height="0.800000011920929" rx="0.4000000059604645"></rect><rect x="14.1" y="28.10000038146973" width="0.800000011920929" height="0.800000011920929" rx="0.4000000059604645"></rect><rect x="16.1" y="28.10000038146973" width="0.800000011920929" height="0.800000011920929" rx="0.4000000059604645"></rect><rect x="19.1" y="28.10000038146973" width="0.800000011920929" height="0.800000011920929" rx="0.4000000059604645"></rect><rect x="20.1" y="28.10000038146973" width="0.800000011920929" height="0.800000011920929" rx="0.4000000059604645"></rect><rect x="24.1" y="28.10000038146973" width="0.800000011920929" height="0.800000011920929" rx="0.4000000059604645"></rect><rect x="25.1" y="28.10000038146973" width="0.800000011920929" height="0.800000011920929" rx="0.4000000059604645"></rect><rect x="26.1" y="28.10000038146973" width="0.800000011920929" height="0.800000011920929" rx="0.4000000059604645"></rect><rect x="27.1" y="28.10000038146973" width="0.800000011920929" height="0.800000011920929" rx="0.4000000059604645"></rect><rect x="28.1" y="28.10000038146973" width="0.800000011920929" height="0.800000011920929" rx="0.4000000059604645"></rect><rect x="9.1" y="29.10000038146973" width="0.800000011920929" height="0.800000011920929" rx="0.4000000059604645"></rect><rect x="10.1" y="29.10000038146973" width="0.800000011920929" height="0.800000011920929" rx="0.4000000059604645"></rect><rect x="11.1" y="29.10000038146973" width="0.800000011920929" height="0.800000011920929" rx="0.4000000059604645"></rect><rect x="12.1" y="29.10000038146973" width="0.800000011920929" height="0.800000011920929" rx="0.4000000059604645"></rect><rect x="13.1" y="29.10000038146973" width="0.800000011920929" height="0.800000011920929" rx="0.4000000059604645"></rect><rect x="14.1" y="29.10000038146973" width="0.800000011920929" height="0.800000011920929" rx="0.4000000059604645"></rect><rect x="16.1" y="29.10000038146973" width="0.800000011920929" height="0.800000011920929" rx="0.4000000059604645"></rect><rect x="17.1" y="29.10000038146973" width="0.800000011920929" height="0.800000011920929" rx="0.4000000059604645"></rect><rect x="20.1" y="29.10000038146973" width="0.800000011920929" height="0.800000011920929" rx="0.4000000059604645"></rect><rect x="22.1" y="29.10000038146973" width="0.800000011920929" height="0.800000011920929" rx="0.4000000059604645"></rect><rect x="23.1" y="29.10000038146973" width="0.800000011920929" height="0.800000011920929" rx="0.4000000059604645"></rect><rect x="24.1" y="29.10000038146973" width="0.800000011920929" height="0.800000011920929" rx="0.4000000059604645"></rect><rect x="26.1" y="29.10000038146973" width="0.800000011920929" height="0.800000011920929" rx="0.4000000059604645"></rect><rect x="27.1" y="29.10000038146973" width="0.800000011920929" height="0.800000011920929" rx="0.4000000059604645"></rect><rect x="28.1" y="29.10000038146973" width="0.800000011920929" height="0.800000011920929" rx="0.4000000059604645"></rect><rect x="30.1" y="29.10000038146973" width="0.800000011920929" height="0.800000011920929" rx="0.4000000059604645"></rect><rect x="31.1" y="29.10000038146973" width="0.800000011920929" height="0.800000011920929" rx="0.4000000059604645"></rect><rect x="9.1" y="30.10000038146973" width="0.800000011920929" height="0.800000011920929" rx="0.4000000059604645"></rect><rect x="11.1" y="30.10000038146973" width="0.800000011920929" height="0.800000011920929" rx="0.4000000059604645"></rect><rect x="12.1" y="30.10000038146973" width="0.800000011920929" height="0.800000011920929" rx="0.4000000059604645"></rect><rect x="13.1" y="30.10000038146973" width="0.800000011920929" height="0.800000011920929" rx="0.4000000059604645"></rect><rect x="14.1" y="30.10000038146973" width="0.800000011920929" height="0.800000011920929" rx="0.4000000059604645"></rect><rect x="15.1" y="30.10000038146973" width="0.800000011920929" height="0.800000011920929" rx="0.4000000059604645"></rect><rect x="17.1" y="30.10000038146973" width="0.800000011920929" height="0.800000011920929" rx="0.4000000059604645"></rect><rect x="18.1" y="30.10000038146973" width="0.800000011920929" height="0.800000011920929" rx="0.4000000059604645"></rect><rect x="20.1" y="30.10000038146973" width="0.800000011920929" height="0.800000011920929" rx="0.4000000059604645"></rect><rect x="21.1" y="30.10000038146973" width="0.800000011920929" height="0.800000011920929" rx="0.4000000059604645"></rect><rect x="25.1" y="30.10000038146973" width="0.800000011920929" height="0.800000011920929" rx="0.4000000059604645"></rect><rect x="26.1" y="30.10000038146973" width="0.800000011920929" height="0.800000011920929" rx="0.4000000059604645"></rect><rect x="28.1" y="30.10000038146973" width="0.800000011920929" height="0.800000011920929" rx="0.4000000059604645"></rect><rect x="10.1" y="31.10000038146973" width="0.800000011920929" height="0.800000011920929" rx="0.4000000059604645"></rect><rect x="11.1" y="31.10000038146973" width="0.800000011920929" height="0.800000011920929" rx="0.4000000059604645"></rect><rect x="12.1" y="31.10000038146973" width="0.800000011920929" height="0.800000011920929" rx="0.4000000059604645"></rect><rect x="15.1" y="31.10000038146973" width="0.800000011920929" height="0.800000011920929" rx="0.4000000059604645"></rect><rect x="16.1" y="31.10000038146973" width="0.800000011920929" height="0.800000011920929" rx="0.4000000059604645"></rect><rect x="18.1" y="31.10000038146973" width="0.800000011920929" height="0.800000011920929" rx="0.4000000059604645"></rect><rect x="19.1" y="31.10000038146973" width="0.800000011920929" height="0.800000011920929" rx="0.4000000059604645"></rect><rect x="20.1" y="31.10000038146973" width="0.800000011920929" height="0.800000011920929" rx="0.4000000059604645"></rect><rect x="21.1" y="31.10000038146973" width="0.800000011920929" height="0.800000011920929" rx="0.4000000059604645"></rect><rect x="23.1" y="31.10000038146973" width="0.800000011920929" height="0.800000011920929" rx="0.4000000059604645"></rect><rect x="24.1" y="31.10000038146973" width="0.800000011920929" height="0.800000011920929" rx="0.4000000059604645"></rect><rect x="25.1" y="31.10000038146973" width="0.800000011920929" height="0.800000011920929" rx="0.4000000059604645"></rect><rect x="27.1" y="31.10000038146973" width="0.800000011920929" height="0.800000011920929" rx="0.4000000059604645"></rect><rect x="28.1" y="31.10000038146973" width="0.800000011920929" height="0.800000011920929" rx="0.4000000059604645"></rect><rect x="10.1" y="32.09999847412109" width="0.800000011920929" height="0.800000011920929" rx="0.4000000059604645"></rect><rect x="11.1" y="32.09999847412109" width="0.800000011920929" height="0.800000011920929" rx="0.4000000059604645"></rect><rect x="14.1" y="32.09999847412109" width="0.800000011920929" height="0.800000011920929" rx="0.4000000059604645"></rect><rect x="16.1" y="32.09999847412109" width="0.800000011920929" height="0.800000011920929" rx="0.4000000059604645"></rect><rect x="17.1" y="32.09999847412109" width="0.800000011920929" height="0.800000011920929" rx="0.4000000059604645"></rect><rect x="19.1" y="32.09999847412109" width="0.800000011920929" height="0.800000011920929" rx="0.4000000059604645"></rect><rect x="20.1" y="32.09999847412109" width="0.800000011920929" height="0.800000011920929" rx="0.4000000059604645"></rect><rect x="23.1" y="32.09999847412109" width="0.800000011920929" height="0.800000011920929" rx="0.4000000059604645"></rect><rect x="24.1" y="32.09999847412109" width="0.800000011920929" height="0.800000011920929" rx="0.4000000059604645"></rect><rect x="26.1" y="32.09999847412109" width="0.800000011920929" height="0.800000011920929" rx="0.4000000059604645"></rect><rect x="27.1" y="32.09999847412109" width="0.800000011920929" height="0.800000011920929" rx="0.4000000059604645"></rect><rect x="29.1" y="32.09999847412109" width="0.800000011920929" height="0.800000011920929" rx="0.4000000059604645"></rect><rect x="30.1" y="32.09999847412109" width="0.800000011920929" height="0.800000011920929" rx="0.4000000059604645"></rect><rect x="32.1" y="32.09999847412109" width="0.800000011920929" height="0.800000011920929" rx="0.4000000059604645"></rect></g><g class="qrRounded qrAlPatterns"><g class="qrDark" fill="#fabd2f"><rect x="0" y="0" width="7.0" height="7.0" rx="3.5"></rect><rect x="26" y="0" width="7.0" height="7.0" rx="3.5"></rect><rect x="0" y="26" width="7.0" height="7.0" rx="3.5"></rect></g><g class="qrLight" fill="#1d2021"><rect x="1" y="1" width="5.0" height="5.0" rx="2.5"></rect><rect x="27" y="1" width="5.0" height="5.0" rx="2.5"></rect><rect x="1" y="27" width="5.0" height="5.0" rx="2.5"></rect></g><g class="qrDark" fill="#fabd2f"><rect x="2" y="2" width="3.0" height="3.0" rx="1.5"></rect><rect x="28" y="2" width="3.0" height="3.0" rx="1.5"></rect><rect x="2" y="28" width="3.0" height="3.0" rx="1.5"></rect></g></g><image x="11" y="11" width="11" height="11" href="data:image/svg+xml,%3c?xml version='1.0' encoding='UTF-8' standalone='no'?%3e%3csvg width='2.9104173mm' height='2.9104173mm' viewBox='0 0 2.9104173 2.9104173' version='1.1' id='svg1257' xmlns='http://www.w3.org/2000/svg' xmlns:svg='http://www.w3.org/2000/svg'%3e %3cdefs id='defs4991' /%3e %3crect style='opacity:1%3bfill:%231d2021%3bfill-opacity:1%3bstroke:%2398971a%3bstroke-width:0%3bstroke-linecap:round%3bstroke-linejoin:round%3bpaint-order:stroke markers fill' id='rect5072' width='2.9104164' height='2.9104164' x='9.5503026e-07' y='9.5503026e-07' ry='0' /%3e %3cg id='layer1' transform='translate(5.3060999%2c-116.47834)'%3e %3cpath style='fill:%23d79921%3bfill-opacity:1%3bstroke:none%3bstroke-width:0.0292231' d='m -3.8495263%2c116.57446 c 0%2c0 -0.099659%2c0.0788 -0.2012566%2c0.15698 -0.1045127%2c-0.003 -0.3095029%2c0.0201 -0.4205773%2c0.0605 -0.1023169%2c-0.0648 -0.192223%2c-0.13639 -0.192223%2c-0.13639 0%2c0 -0.076828%2c0.13217 -0.1251418%2c0.20973 -0.071653%2c0.0381 -0.143591%2c0.081 -0.2077092%2c0.13768 -0.074574%2c-0.0296 -0.1610227%2c-0.0657 -0.1638413%2c-0.0669 0.098757%2c0.1992 0.1651479%2c0.39866 0.3457466%2c0.51855 0.2875255%2c-0.4541 1.6236324%2c-0.41225 1.9171033%2c-0.003 0.189658%2c-0.0989 0.2634198%2c-0.31176 0.3380066%2c-0.50825 -0.00819%2c0.003 -0.1096651%2c0.0367 -0.1754527%2c0.0618 -0.039281%2c-0.0428 -0.131864%2c-0.10852 -0.1844863%2c-0.14025 -0.049913%2c-0.0914 -0.1225607%2c-0.21489 -0.1225607%2c-0.21489 0%2c0 -0.086044%2c0.064 -0.1857736%2c0.13382 -0.1347372%2c-0.0249 -0.297702%2c-0.0551 -0.4347698%2c-0.0476 -0.093303%2c-0.0767 -0.1870642%2c-0.16213 -0.1870642%2c-0.16213 z' id='path3054' /%3e %3cpath style='fill:%23fabd2f%3bfill-opacity:1%3bstroke:none%3bstroke-width:0.0292231' d='m -5.0581672%2c117.35936 c 0%2c0 0.1399763%2c0.33892 0.2371921%2c0.57443 0.4119353%2c0.54347 1.4638553%2c0.58125 1.9224387%2c0.0105 0.1085159%2c-0.24456 0.2549223%2c-0.58826 0.2549223%2c-0.58826 -0.117649%2c0.17429 -0.3091176%2c0.29461 -0.4270395%2c0.35941 -0.083791%2c0.0459 -0.277134%2c0.0737 -0.277134%2c0.0737 l -0.5075942%2c-0.26303 -0.5105091%2c0.25777 c 0%2c0 -0.1907719%2c-0.0307 -0.2771371%2c-0.071 -0.1743067%2c-0.0931 -0.2915416%2c-0.20298 -0.4151392%2c-0.35348 z' id='path3051' /%3e %3cg aria-label='QRgen' id='text41857' fill='%23d79921' transform='matrix(0.32102443%2c0%2c0%2c0.3210238%2c-9.1509731%2c112.63347)'%3e %3cpath d='m 13.477649%2c20.56333 q -0.06133%2c0 -0.122667%2c-0.01067 -0.05867%2c-0.008 -0.114667%2c-0.032 -0.05333%2c-0.024 -0.096%2c-0.064 -0.04267%2c-0.03733 -0.06667%2c-0.09333 -0.024%2c-0.05333 -0.02667%2c-0.114666 -0.0027%2c-0.06133 0.008%2c-0.122667 -0.06933%2c-0.016 -0.130666%2c-0.04533 -0.06133%2c-0.032 -0.109334%2c-0.07733 -0.04533%2c-0.048 -0.07733%2c-0.106667 -0.02933%2c-0.06133 -0.04533%2c-0.130667 -0.01333%2c-0.06933 -0.01067%2c-0.138666 0.0027%2c-0.072 0.01333%2c-0.144001 l 0.136%2c-0.813334 q 0.01333%2c-0.07467 0.04%2c-0.146667 0.02667%2c-0.07467 0.07467%2c-0.138667 0.048%2c-0.06667 0.114667%2c-0.114667 0.06667%2c-0.048 0.138667%2c-0.07733 0.07467%2c-0.02933 0.149333%2c-0.04267 0.07467%2c-0.016 0.152%2c-0.016 0.088%2c0 0.170667%2c0.02133 0.08267%2c0.01867 0.154667%2c0.05867 0.072%2c0.04 0.122667%2c0.104001 0.05333%2c0.064 0.08%2c0.144 0.02667%2c0.08 0.02667%2c0.168 0%2c0.08533 -0.01333%2c0.173333 l -0.136%2c0.813335 q -0.008%2c0.05867 -0.02667%2c0.117333 -0.01867%2c0.056 -0.048%2c0.109334 -0.02933%2c0.05067 -0.072%2c0.09867 -0.04267%2c0.04533 -0.09333%2c0.08267 -0.048%2c0.03467 -0.104%2c0.06133 -0.056%2c0.024 -0.114667%2c0.03733 -0.0027%2c0.01867 -0.0053%2c0.03467 -0.0027%2c0.01867 -0.0027%2c0.03467 0.0027%2c0.01867 0.01067%2c0.03467 0.008%2c0.016 0.024%2c0.016 h 0.165333 v 0.320001 z m -0.226667%2c-0.738668 q 0.05067%2c0 0.101333%2c-0.016 0.05067%2c-0.01867 0.088%2c-0.056 0.03733%2c-0.04 0.056%2c-0.088 0.02133%2c-0.05067 0.02933%2c-0.09867 l 0.136%2c-0.813334 q 0.008%2c-0.05333 0.008%2c-0.104 0%2c-0.05067 -0.02133%2c-0.096 -0.01867%2c-0.04533 -0.064%2c-0.06667 -0.04267%2c-0.024 -0.096%2c-0.024 -0.05067%2c0 -0.09867%2c0.01867 -0.048%2c0.01867 -0.08533%2c0.05867 -0.03733%2c0.03733 -0.05867%2c0.08533 -0.01867%2c0.048 -0.02667%2c0.096 l -0.136%2c0.813334 q -0.0053%2c0.03467 -0.008%2c0.06933 0%2c0.03467 0.0027%2c0.06667 0.0053%2c0.032 0.016%2c0.064 0.01333%2c0.02933 0.03467%2c0.05067 0.024%2c0.02133 0.056%2c0.032 0.032%2c0.008 0.06667%2c0.008 z' id='path61858' /%3e %3cpath d='m 14.216317%2c20.123329 0.322667%2c-1.960002 h 0.605335 q 0.064%2c0 0.125333%2c0.01067 0.06133%2c0.008 0.117334%2c0.032 0.05867%2c0.024 0.104%2c0.06133 0.04533%2c0.03733 0.07733%2c0.088 0.03467%2c0.05067 0.05333%2c0.109333 0.02133%2c0.056 0.02667%2c0.120001 0.008%2c0.06133 0.0053%2c0.125333 -0.0027%2c0.064 -0.01333%2c0.128 -0.016%2c0.08533 -0.04533%2c0.173334 -0.02933%2c0.08533 -0.08533%2c0.16 -0.05333%2c0.072 -0.133333%2c0.125333 -0.07733%2c0.05333 -0.165334%2c0.08 l 0.269334%2c0.746667 h -0.413334 l -0.261334%2c-0.722667 h -0.07733 l -0.12%2c0.722667 z m 0.562668%2c-1.042668 h 0.24 q 0.05067%2c0 0.096%2c-0.02933 0.04533%2c-0.02933 0.07467%2c-0.072 0.02933%2c-0.04533 0.04267%2c-0.09333 0.016%2c-0.048 0.024%2c-0.09867 0.0053%2c-0.02933 0.008%2c-0.06133 0.0027%2c-0.032 0%2c-0.064 0%2c-0.032 -0.0053%2c-0.06133 -0.0053%2c-0.032 -0.01867%2c-0.05867 -0.01333%2c-0.02667 -0.04%2c-0.04267 -0.024%2c-0.016 -0.056%2c-0.016 h -0.264001 z' id='path61860' /%3e %3cpath d='m 16.344321%2c20.717997 q -0.072%2c0 -0.146667%2c-0.01067 -0.072%2c-0.008 -0.138667%2c-0.032 -0.064%2c-0.02133 -0.12%2c-0.064 -0.056%2c-0.04 -0.09333%2c-0.09867 -0.03733%2c-0.056 -0.05333%2c-0.128 -0.01333%2c-0.072 -0.0027%2c-0.144 h 0.389334 q -0.0053%2c0.03467 0.0053%2c0.06667 0.01067%2c0.032 0.03467%2c0.05333 0.024%2c0.02133 0.056%2c0.02933 0.03467%2c0.008 0.06933%2c0.008 0.048%2c0 0.096%2c-0.016 0.048%2c-0.016 0.08267%2c-0.05333 0.03733%2c-0.03733 0.056%2c-0.08267 0.02133%2c-0.04533 0.02933%2c-0.09333 l 0.03467%2c-0.216001 q 0%2c0 0%2c0 0%2c0 0%2c0 -0.03467%2c0.05067 -0.08267%2c0.09067 -0.04533%2c0.04 -0.09867%2c0.06667 -0.05333%2c0.02667 -0.112%2c0.03733 -0.056%2c0.01333 -0.114667%2c0.01333 -0.072%2c0 -0.141334%2c-0.024 -0.06667%2c-0.024 -0.112%2c-0.07467 -0.04533%2c-0.05333 -0.06933%2c-0.12 -0.02133%2c-0.06667 -0.02933%2c-0.136001 -0.008%2c-0.072 -0.0027%2c-0.146666 0.0053%2c-0.07467 0.01867%2c-0.146667 l 0.04267%2c-0.266667 q 0.01067%2c-0.06667 0.02933%2c-0.130667 0.02133%2c-0.064 0.056%2c-0.122667 0.03733%2c-0.06133 0.08533%2c-0.112 0.05067%2c-0.05067 0.112%2c-0.08533 0.06133%2c-0.03467 0.128%2c-0.048 0.06667%2c-0.016 0.130667%2c-0.016 0.05867%2c0 0.114667%2c0.016 0.056%2c0.01333 0.096%2c0.05067 0.04267%2c0.03467 0.06933%2c0.08533 0.02667%2c0.048 0.04%2c0.101333 l 0.04%2c-0.232 h 0.392001 l -0.242667%2c1.466668 q -0.01333%2c0.07467 -0.04%2c0.144 -0.02667%2c0.072 -0.07467%2c0.133334 -0.04533%2c0.064 -0.109333%2c0.109333 -0.06133%2c0.048 -0.133334%2c0.07733 -0.06933%2c0.02933 -0.144%2c0.04 -0.072%2c0.01067 -0.146667%2c0.01067 z m 0.106667%2c-0.893335 q 0.04267%2c0 0.08533%2c-0.01067 0.04267%2c-0.01333 0.07733%2c-0.04 0.03467%2c-0.02933 0.05333%2c-0.06933 0.02133%2c-0.04 0.02933%2c-0.08267 l 0.04267%2c-0.266667 q 0.008%2c-0.03467 0.01067%2c-0.06933 0.0027%2c-0.03733 0%2c-0.072 -0.0027%2c-0.03467 -0.01067%2c-0.06667 -0.008%2c-0.032 -0.02667%2c-0.05867 -0.01867%2c-0.02933 -0.05067%2c-0.04 -0.032%2c-0.01333 -0.06667%2c-0.01333 -0.05067%2c0 -0.09867%2c0.01867 -0.048%2c0.016 -0.08533%2c0.05067 -0.03733%2c0.03467 -0.05867%2c0.08267 -0.01867%2c0.04533 -0.02667%2c0.09333 l -0.04533%2c0.266667 q -0.0053%2c0.03467 -0.008%2c0.06933 0%2c0.032 0.0053%2c0.064 0.0053%2c0.02933 0.01867%2c0.05867 0.01333%2c0.02933 0.03467%2c0.05067 0.024%2c0.01867 0.05333%2c0.02667 0.032%2c0.008 0.06667%2c0.008 z' id='path61862' /%3e %3cpath d='m 18.098991%2c20.144663 q -0.06933%2c0 -0.136%2c-0.008 -0.06667%2c-0.0053 -0.130667%2c-0.024 -0.06133%2c-0.01867 -0.117333%2c-0.05067 -0.056%2c-0.032 -0.101334%2c-0.07733 -0.04267%2c-0.04533 -0.072%2c-0.101333 -0.02933%2c-0.056 -0.04533%2c-0.12 -0.01333%2c-0.064 -0.01333%2c-0.130667 0.0027%2c-0.06933 0.016%2c-0.136 l 0.04267%2c-0.266667 q 0.01333%2c-0.07467 0.04%2c-0.146667 0.02933%2c-0.07467 0.07733%2c-0.136 0.05067%2c-0.064 0.114667%2c-0.109334 0.06667%2c-0.048 0.141334%2c-0.07467 0.07467%2c-0.02933 0.149333%2c-0.03733 0.07467%2c-0.01067 0.149334%2c-0.01067 0.07467%2c0 0.149333%2c0.01067 0.07733%2c0.01067 0.144001%2c0.03733 0.06667%2c0.024 0.122666%2c0.06667 0.05867%2c0.04267 0.096%2c0.104 0.03733%2c0.06133 0.05067%2c0.136 0.01333%2c0.07467 0%2c0.149334 -0.008%2c0.06133 -0.04%2c0.122667 -0.032%2c0.05867 -0.08%2c0.106667 -0.048%2c0.048 -0.109333%2c0.08 -0.05867%2c0.02933 -0.122667%2c0.048 -0.06133%2c0.016 -0.125334%2c0.02133 -0.064%2c0.0053 -0.125333%2c0.0053 -0.02933%2c0 -0.06133%2c0 -0.02933%2c0 -0.05867%2c-0.0027 h -0.0027 q -0.05067%2c0 -0.104%2c-0.0027 -0.05067%2c-0.0027 -0.101334%2c-0.008 -0.0027%2c0.05333 0.01067%2c0.106667 0.01333%2c0.05067 0.048%2c0.088 0.03733%2c0.03467 0.088%2c0.05067 0.05067%2c0.01333 0.106667%2c0.01333 0.04%2c0 0.08%2c-0.0053 0.04267%2c-0.008 0.08%2c-0.02667 0.04%2c-0.01867 0.072%2c-0.048 0.03467%2c-0.02933 0.05867%2c-0.06667 l 0.322667%2c0.133334 q -0.05067%2c0.07467 -0.122667%2c0.138667 -0.06933%2c0.06133 -0.152%2c0.101333 -0.08%2c0.04 -0.168%2c0.05333 -0.08533%2c0.016 -0.170667%2c0.016 z m 0.101334%2c-0.829335 q 0.03467%2c0 0.06933%2c-0.0053 0.03467%2c-0.008 0.06667%2c-0.024 0.032%2c-0.01867 0.056%2c-0.048 0.024%2c-0.02933 0.032%2c-0.064 0.0053%2c-0.04 -0.01333%2c-0.07467 -0.016%2c-0.03467 -0.05067%2c-0.05333 -0.032%2c-0.02133 -0.072%2c-0.02667 -0.03733%2c-0.008 -0.07733%2c-0.008 -0.03467%2c0 -0.072%2c0.0053 -0.03733%2c0.0053 -0.072%2c0.02133 -0.03467%2c0.016 -0.06667%2c0.04267 -0.02933%2c0.024 -0.05067%2c0.056 -0.02133%2c0.032 -0.03467%2c0.06933 -0.01067%2c0.03467 -0.01867%2c0.072 l -0.0027%2c0.016 q 0.04%2c0.0053 0.07733%2c0.008 0.03733%2c0 0.07467%2c0.0027 0.04%2c0.0027 0.07733%2c0.008 0.04%2c0.0027 0.07733%2c0.0027 z' id='path61864' /%3e %3cpath d='m 19.016327%2c20.123329 0.229333%2c-1.386668 h 0.392001 l -0.02667%2c0.152 q 0.02667%2c-0.04 0.06133%2c-0.07467 0.03467%2c-0.03467 0.07733%2c-0.05867 0.04267%2c-0.024 0.088%2c-0.032 0.048%2c-0.008 0.09067%2c-0.008 0.07733%2c0 0.149333%2c0.024 0.072%2c0.02133 0.125334%2c0.06933 0.056%2c0.04533 0.088%2c0.112 0.032%2c0.06667 0.04533%2c0.138667 0.01333%2c0.072 0.01067%2c0.149333 -0.0027%2c0.07733 -0.016%2c0.154667 l -0.125333%2c0.760001 h -0.392001 q 0.032%2c-0.202667 0.06667%2c-0.405334 0.03467%2c-0.202667 0.06667%2c-0.405334 0.0053%2c-0.032 0.008%2c-0.064 0.0027%2c-0.032 -0.0027%2c-0.06133 -0.0027%2c-0.032 -0.01333%2c-0.06133 -0.01067%2c-0.02933 -0.032%2c-0.05067 -0.01867%2c-0.02133 -0.048%2c-0.02933 -0.02933%2c-0.01067 -0.06133%2c-0.01067 -0.04267%2c0 -0.08533%2c0.01333 -0.04267%2c0.01067 -0.07733%2c0.04 -0.03467%2c0.02667 -0.056%2c0.06667 -0.01867%2c0.04 -0.024%2c0.08267 l -0.146667%2c0.885334 z' id='path61866' /%3e %3c/g%3e %3c/g%3e%3c/svg%3e"/></svg>