<svg class="QRcode" version="1.1" xmlns="http://www.w3.org/2000/svg" viewBox="-5 -5 39 39"><path class="QRlight" fill="#1d2021" d="M-5,-5h39v39h-39Z"></path><rect class="QRdark QRrounded QRmodule" fill="#98971a" x="8.1" y="7.1" width="0.8" height="0.8" rx="0.4000000059604645"></rect><rect class="QRdark QRrounded QRmodule" fill="#98971a" x="10.1" y="7.1" width="0.8" height="0.8" rx="0.4000000059604645"></rect><rect class="QRdark QRrounded QRmodule" fill="#98971a" x="11.1" y="7.1" width="0.8" height="0.8" rx="0.4000000059604645"></rect><rect class="QRdark QRrounded QRmodule" fill="#98971a" x="12.1" y="7.1" width="0.8" height="0.8" rx="0.4000000059604645"></rect><rect class="QRdark QRrounded QRmodule" fill="#98971a" x="14.1" y="7.1" width="0.8" height="0.8" rx="0.4000000059604645"></rect><rect class="QRdark QRrounded QRmodule" fill="#98971a" x="15.1" y="7.1" width="0.8" height="0.8" rx="0.4000000059604645"></rect><rect class="QRdark QRrounded QRmodule" fill="#98971a" x="16.1" y="7.1" width="0.8" height="0.8" rx="0.4000000059604645"></rect><rect class="QRdark QRrounded QRmodule" fill="#98971a" x="18.1" y="7.1" width="0.8" height="0.8" rx="0.4000000059604645"></rect><rect class="QRdark QRrounded QRmodule" fill="#98971a" x="19.1" y="7.1" width="0.8" height="0.8" rx="0.4000000059604645"></rect><rect class="QRdark QRrounded QRmodule" fill="#98971a" x="0.1" y="8.1" width="0.8" height="0.8" rx="0.4000000059604645"></rect><rect class="QRdark QRrounded QRmodule" fill="#98971a" x="1.1" y="8.1" width="0.8" height="0.8" rx="0.4000000059604645"></rect><rect class="QRdark QRrounded QRmodule" fill="#98971a" x="2.1" y="8.1" width="0.8" height="0.8" rx="0.4000000059604645"></rect><rect class="QRdark QRrounded QRmodule" fill="#98971a" x="5.1" y="8.1" width="0.8" height="0.8" rx="0.4000000059604645"></rect><rect class="QRdark QRrounded QRmodule" fill="#98971a" x="6.1" y="8.1" width="0.8" height="0.8" rx="0.4000000059604645"></rect><rect class="QRdark QRrounded QRmodule" fill="#98971a" x="8.1" y="8.1" width="0.8" height="0.8" rx="0.4000000059604645"></rect><rect class="QRdark QRrounded QRmodule" fill="#98971a" x="9.1" y="8.1" width="0.8" height="0.8" rx="0.4000000059604645"></rect><rect class="QRdark QRrounded QRmodule" fill="#98971a" x="10.1" y="8.1" width="0.8" height="0.8" rx="0.4000000059604645"></rect><rect class="QRdark QRrounded QRmodule" fill="#98971a" x="13.1" y="8.1" width="0.8" height="0.8" rx="0.4000000059604645"></rect><rect class="QRdark QRrounded QRmodule" fill="#98971a" x="14.1" y="8.1" width="0.8" height="0.8" rx="0.4000000059604645"></rect><rect class="QRdark QRrounded QRmodule" fill="#98971a" x="19.1" y="8.1" width="0.8" height="0.8" rx="0.4000000059604645"></rect><rect class="QRdark QRrounded QRmodule" fill="#98971a" x="21.1" y="8.1" width="0.8" height="0.8" rx="0.4000000059604645"></rect><rect class="QRdark QRrounded QRmodule" fill="#98971a" x="22.1" y="8.1" width="0.8" height="0.8" rx="0.4000000059604645"></rect><rect class="QRdark QRrounded QRmodule" fill="#98971a" x="23.1" y="8.1" width="0.8" height="0.8" rx="0.4000000059604645"></rect><rect class="QRdark QRrounded QRmodule" fill="#98971a" x="24.1" y="8.1" width="0.8" height="0.8" rx="0.4000000059604645"></rect><rect class="QRdark QRrounded QRmodule" fill="#98971a" x="27.1" y="8.1" width="0.8" height="0.8" rx="0.4000000059604645"></rect><rect class="QRdark QRrounded QRmodule" fill="#98971a" x="28.1" y="8.1" width="0.8" height="0.8" rx="0.4000000059604645"></rect><rect class="QRdark QRrounded QRmodule" fill="#98971a" x="1.1" y="9.1" width="0.8" height="0.8" rx="0.4000000059604645"></rect><rect class="QRdark QRrounded QRmodule" fill="#98971a" x="3.1" y="9.1" width="0.8" height="0.8" rx="0.4000000059604645"></rect><rect class="QRdark QRrounded QRmodule" fill="#98971a" x="4.1" y="9.1" width="0.8" height="0.8" rx="0.4000000059604645"></rect><rect class="QRdark QRrounded QRmodule" fill="#98971a" x="5.1" y="9.1" width="0.8" height="0.8" rx="0.4000000059604645"></rect><rect class="QRdark QRrounded QRmodule" fill="#98971a" x="7.1" y="9.1" width="0.8" height="0.8" rx="0.4000000059604645"></rect><rect class="QRdark QRrounded QRmodule" fill="#98971a" x="8.1" y="9.1" width="0.8" height="0.8" rx="0.4000000059604645"></rect><rect class="QRdark QRrounded QRmodule" fill="#98971a" x="9.1" y="9.1" width="0.8" height="0.8" rx="0.4000000059604645"></rect><rect class="QRdark QRrounded QRmodule" fill="#98971a" x="10.1" y="9.1" width="0.8" height="0.8" rx="0.4000000059604645"></rect><rect class="QRdark QRrounded QRmodule" fill="#98971a" x="13.1" y="9.1" width="0.8" height="0.8" rx="0.4000000059604645"></rect><rect class="QRdark QRrounded QRmodule" fill="#98971a" x="14.1" y="9.1" width="0.8" height="0.8" rx="0.4000000059604645"></rect><rect class="QRdark QRrounded QRmodule" fill="#98971a" x="18.1" y="9.1" width="0.8" height="0.8" rx="0.4000000059604645"></rect><rect class="QRdark QRrounded QRmodule" fill="#98971a" x="19.1" y="9.1" width="0.8" height="0.8" rx="0.4000000059604645"></rect><rect class="QRdark QRrounded QRmodule" fill="#98971a" x="20.1" y="9.1" width="0.8" height="0.8" rx="0.4000000059604645"></rect><rect class="QRdark QRrounded QRmodule" fill="#98971a" x="21.1" y="9.1" width="0.8" height="0.8" rx="0.4000000059604645"></rect><rect class="QRdark QRrounded QRmodule" fill="#98971a" x="22.1" y="9.1" width="0.8" height="0.8" rx="0.4000000059604645"></rect><rect class="QRdark QRrounded QRmodule" fill="#98971a" x="23.1" y="9.1" width="0.8" height="0.8" rx="0.4000000059604645"></rect><rect class="QRdark QRrounded QRmodule" fill="#98971a" x="27.1" y="9.1" width="0.8" height="0.8" rx="0.4000000059604645"></rect><rect class="QRdark QRrounded QRmodule" fill="#98971a" x="28.1" y="9.1" width="0.8" height="0.8" rx="0.4000000059604645"></rect><rect class="QRdark QRrounded QRmodule" fill="#98971a" x="0.1" y="10.1" width="0.8" height="0.8" rx="0.4000000059604645"></rect><rect class="QRdark QRrounded QRmodule" fill="#98971a" x="1.1" y="10.1" width="0.8" height="0.8" rx="0.4000000059604645"></rect><rect class="QRdark QRrounded QRmodule" fill="#98971a" x="3.1" y="10.1" width="0.8" height="0.8" rx="0.4000000059604645"></rect><rect class="QRdark QRrounded QRmodule" fill="#98971a" x="6.1" y="10.1" width="0.8" height="0.8" rx="0.4000000059604645"></rect><rect class="QRdark QRrounded QRmodule" fill="#98971a" x="8.1" y="10.1" width="0.8" height="0.8" rx="0.4000000059604645"></rect><rect class="QRdark QRrounded QRmodule" fill="#98971a" x="11.1" y="10.1" width="0.8" height="0.8" rx="0.4000000059604645"></rect><rect class="QRdark QRrounded QRmodule" fill="#98971a" x="15.1" y="10.1" width="0.8" height="0.8" rx="0.4000000059604645"></rect><rect class="QRdark QRrounded QRmodule" fill="#98971a" x="17.1" y="10.1" width="0.8" height="0.8" rx="0.4000000059604645"></rect><rect class="QRdark QRrounded QRmodule" fill="#98971a" x="19.1" y="10.1" width="0.8" height="0.8" rx="0.4000000059604645"></rect><rect class="QRdark QRrounded QRmodule" fill="#98971a" x="22.1" y="10.1" width="0.8" height="0.8" rx="0.4000000059604645"></rect><rect class="QRdark QRrounded QRmodule" fill="#98971a" x="23.1" y="10.1" width="0.8" height="0.8" rx="0.4000000059604645"></rect><rect class="QRdark QRrounded QRmodule" fill="#98971a" x="24.1" y="10.1" width="0.8" height="0.8" rx="0.4000000059604645"></rect><rect class="QRdark QRrounded QRmodule" fill="#98971a" x="25.1" y="10.1" width="0.8" height="0.8" rx="0.4000000059604645"></rect><rect class="QRdark QRrounded QRmodule" fill="#98971a" x="26.1" y="10.1" width="0.8" height="0.8" rx="0.4000000059604645"></rect><rect class="QRdark QRrounded QRmodule" fill="#98971a" x="28.1" y="10.1" width="0.8" height="0.8" rx="0.4000000059604645"></rect><rect class="QRdark QRrounded QRmodule" fill="#98971a" x="1.1" y="11.1" width="0.8" height="0.8" rx="0.4000000059604645"></rect><rect class="QRdark QRrounded QRmodule" fill="#98971a" x="2.1" y="11.1" width="0.8" height="0.8" rx="0.4000000059604645"></rect><rect class="QRdark QRrounded QRmodule" fill="#98971a" x="4.1" y="11.1" width="0.8" height="0.8" rx="0.4000000059604645"></rect><rect class="QRdark QRrounded QRmodule" fill="#98971a" x="5.1" y="11.1" width="0.8" height="0.8" rx="0.4000000059604645"></rect><rect class="QRdark QRrounded QRmodule" fill="#98971a" x="7.1" y="11.1" width="0.8" height="0.8" rx="0.4000000059604645"></rect><rect class="QRdark QRrounded QRmodule" fill="#98971a" x="8.1" y="11.1" width="0.8" height="0.8" rx="0.4000000059604645"></rect><rect class="QRdark QRrounded QRmodule" fill="#98971a" x="9.1" y="11.1" width="0.8" height="0.8" rx="0.4000000059604645"></rect><rect class="QRdark QRrounded QRmodule" fill="#98971a" x="13.1" y="11.1" width="0.8" height="0.8" rx="0.4000000059604645"></rect><rect class="QRdark QRrounded QRmodule" fill="#98971a" x="21.1" y="11.1" width="0.8" height="0.8" rx="0.4000000059604645"></rect><rect class="QRdark QRrounded QRmodule" fill="#98971a" x="24.1" y="11.1" width="0.8" height="0.8" rx="0.4000000059604645"></rect><rect class="QRdark QRrounded QRmodule" fill="#98971a" x="25.1" y="11.1" width="0.8" height="0.8" rx="0.4000000059604645"></rect><rect class="QRdark QRrounded QRmodule" fill="#98971a" x="0.1" y="12.1" width="0.8" height="0.8" rx="0.4000000059604645"></rect><rect class="QRdark QRrounded QRmodule" fill="#98971a" x="2.1" y="12.1" width="0.8" height="0.8" rx="0.4000000059604645"></rect><rect class="QRdark QRrounded QRmodule" fill="#98971a" x="3.1" y="12.1" width="0.8" height="0.8" rx="0.4000000059604645"></rect><rect class="QRdark QRrounded QRmodule" fill="#98971a" x="4.1" y="12.1" width="0.8" height="0.8" rx="0.4000000059604645"></rect><rect class="QRdark QRrounded QRmodule" fill="#98971a" x="5.1" y="12.1" width="0.8" height="0.8" rx="0.4000000059604645"></rect><rect class="QRdark QRrounded QRmodule" fill="#98971a" x="6.1" y="12.1" width="0.8" height="0.8" rx="0.4000000059604645"></rect><rect class="QRdark QRrounded QRmodule" fill="#98971a" x="7.1" y="12.1" width="0.8" height="0.8" rx="0.4000000059604645"></rect><rect class="QRdark QRrounded QRmodule" fill="#98971a" x="9.1" y="12.1" width="0.8" height="0.8" rx="0.4000000059604645"></rect><rect class="QRdark QRrounded QRmodule" fill="#98971a" x="11.1" y="12.1" width="0.8" height="0.8" rx="0.4000000059604645"></rect><rect class="QRdark QRrounded QRmodule" fill="#98971a" x="12.1" y="12.1" width="0.8" height="0.8" rx="0.4000000059604645"></rect><rect class="QRdark QRrounded QRmodule" fill="#98971a" x="13.1" y="12.1" width="0.8" height="0.8" rx="0.4000000059604645"></rect><rect class="QRdark QRrounded QRmodule" fill="#98971a" x="15.1" y="12.1" width="0.8" height="0.8" rx="0.4000000059604645"></rect><rect class="QRdark QRrounded QRmodule" fill="#98971a" x="16.1" y="12.1" width="0.8" height="0.8" rx="0.4000000059604645"></rect><rect class="QRdark QRrounded QRmodule" fill="#98971a" x="19.1" y="12.1" width="0.8" height="0.8" rx="0.4000000059604645"></rect><rect class="QRdark QRrounded QRmodule" fill="#98971a" x="20.1" y="12.1" width="0.8" height="0.8" rx="0.4000000059604645"></rect><rect class="QRdark QRrounded QRmodule" fill="#98971a" x="22.1" y="12.1" width="0.8" height="0.8" rx="0.4000000059604645"></rect><rect class="QRdark QRrounded QRmodule" fill="#98971a" x="23.1" y="12.1" width="0.8" height="0.8" rx="0.4000000059604645"></rect><rect class="QRdark QRrounded QRmodule" fill="#98971a" x="28.1" y="12.1" width="0.8" height="0.8" rx="0.4000000059604645"></rect><rect class="QRdark QRrounded QRmodule" fill="#98971a" x="3.1" y="13.1" width="0.8" height="0.8" rx="0.4000000059604645"></rect><rect class="QRdark QRrounded QRmodule" fill="#98971a" x="5.1" y="13.1" width="0.8" height="0.8" rx="0.4000000059604645"></rect><rect class="QRdark QRrounded QRmodule" fill="#98971a" x="8.1" y="13.1" width="0.8" height="0.8" rx="0.4000000059604645"></rect><rect class="QRdark QRrounded QRmodule" fill="#98971a" x="12.1" y="13.1" width="0.8" height="0.8" rx="0.4000000059604645"></rect><rect class="QRdark QRrounded QRmodule" fill="#98971a" x="16.1" y="13.1" width="0.8" height="0.8" rx="0.4000000059604645"></rect><rect class="QRdark QRrounded QRmodule" fill="#98971a" x="19.1" y="13.1" width="0.8" height="0.8" rx="0.4000000059604645"></rect><rect class="QRdark QRrounded QRmodule" fill="#98971a" x="20.1" y="13.1" width="0.8" height="0.8" rx="0.4000000059604645"></rect><rect class="QRdark QRrounded QRmodule" fill="#98971a" x="22.1" y="13.1" width="0.8" height="0.8" rx="0.4000000059604645"></rect><rect class="QRdark QRrounded QRmodule" fill="#98971a" x="23.1" y="13.1" width="0.8" height="0.8" rx="0.4000000059604645"></rect><rect class="QRdark QRrounded QRmodule" fill="#98971a" x="27.1" y="13.1" width="0.8" height="0.8" rx="0.4000000059604645"></rect><rect class="QRdark QRrounded QRmodule" fill="#98971a" x="28.1" y="13.1" width="0.8" height="0.8" rx="0.4000000059604645"></rect><rect class="QRdark QRrounded QRmodule" fill="#98971a" x="2.1" y="14.1" width="0.8" height="0.8" rx="0.4000000059604645"></rect><rect class="QRdark QRrounded QRmodule" fill="#98971a" x="5.1" y="14.1" width="0.8" height="0.8" rx="0.4000000059604645"></rect><rect class="QRdark QRrounded QRmodule" fill="#98971a" x="6.1" y="14.1" width="0.8" height="0.8" rx="0.4000000059604645"></rect><rect class="QRdark QRrounded QRmodule" fill="#98971a" x="7.1" y="14.1" width="0.8" height="0.8" rx="0.4000000059604645"></rect><rect class="QRdark QRrounded QRmodule" fill="#98971a" x="12.1" y="14.1" width="0.8" height="0.8" rx="0.4000000059604645"></rect><rect class="QRdark QRrounded QRmodule" fill="#98971a" x="13.1" y="14.1" width="0.8" height="0.8" rx="0.4000000059604645"></rect><rect class="QRdark QRrounded QRmodule" fill="#98971a" x="14.1" y="14.1" width="0.8" height="0.8" rx="0.4000000059604645"></rect><rect class="QRdark QRrounded QRmodule" fill="#98971a" x="16.1" y="14.1" width="0.8" height="0.8" rx="0.4000000059604645"></rect><rect class="QRdark QRrounded QRmodule" fill="#98971a" x="17.1" y="14.1" width="0.8" height="0.8" rx="0.4000000059604645"></rect><rect class="QRdark QRrounded QRmodule" fill="#98971a" x="18.1" y="14.1" width="0.8" height="0.8" rx="0.4000000059604645"></rect><rect class="QRdark QRrounded QRmodule" fill="#98971a" x="19.1" y="14.1" width="0.8" height="0.8" rx="0.4000000059604645"></rect><rect class="QRdark QRrounded QRmodule" fill="#98971a" x="21.1" y="14.1" width="0.8" height="0.8" rx="0.4000000059604645"></rect><rect class="QRdark QRrounded QRmodule" fill="#98971a" x="22.1" y="14.1" width="0.8" height="0.8" rx="0.4000000059604645"></rect><rect class="QRdark QRrounded QRmodule" fill="#98971a" x="23.1" y="14.1" width="0.8" height="0.8" rx="0.4000000059604645"></rect><rect class="QRdark QRrounded QRmodule" fill="#98971a" x="24.1" y="14.1" width="0.8" height="0.8" rx="0.4000000059604645"></rect><rect class="QRdark QRrounded QRmodule" fill="#98971a" x="28.1" y="14.1" width="0.8" height="0.8" rx="0.4000000059604645"></rect><rect class="QRdark QRrounded QRmodule" fill="#98971a" x="0.1" y="15.1" width="0.8" height="0.8" rx="0.4000000059604645"></rect><rect class="QRdark QRrounded QRmodule" fill="#98971a" x="4.1" y="15.1" width="0.8" height="0.8" rx="0.4000000059604645"></rect><rect class="QRdark QRrounded QRmodule" fill="#98971a" x="5.1" y="15.1" width="0.8" height="0.8" rx="0.4000000059604645"></rect><rect class="QRdark QRrounded QRmodule" fill="#98971a" x="7.1" y="15.1" width="0.8" height="0.8" rx="0.4000000059604645"></rect><rect class="QRdark QRrounded QRmodule" fill="#98971a" x="8.1" y="15.1" width="0.8" height="0.8" rx="0.4000000059604645"></rect><rect class="QRdark QRrounded QRmodule" fill="#98971a" x="9.1" y="15.1" width="0.8" height="0.8" rx="0.4000000059604645"></rect><rect class="QRdark QRrounded QRmodule" fill="#98971a" x="11.1" y="15.1" width="0.8" height="0.8" rx="0.4000000059604645"></rect><rect class="QRdark QRrounded QRmodule" fill="#98971a" x="12.1" y="15.1" width="0.8" height="0.8" rx="0.4000000059604645"></rect><rect class="QRdark QRrounded QRmodule" fill="#98971a" x="14.1" y="15.1" width="0.8" height="0.8" rx="0.4000000059604645"></rect><rect class="QRdark QRrounded QRmodule" fill="#98971a" x="15.1" y="15.1" width="0.8" height="0.8" rx="0.4000000059604645"></rect><rect class="QRdark QRrounded QRmodule" fill="#98971a" x="16.1" y="15.1" width="0.8" height="0.8" rx="0.4000000059604645"></rect><rect class="QRdark QRrounded QRmodule" fill="#98971a" x="18.1" y="15.1" width="0.8" height="0.8" rx="0.4000000059604645"></rect><rect class="QRdark QRrounded QRmodule" fill="#98971a" x="19.1" y="15.1" width="0.8" height="0.8" rx="0.4000000059604645"></rect><rect class="QRdark QRrounded QRmodule" fill="#98971a" x="20.1" y="15.1" width="0.8" height="0.8" rx="0.4000000059604645"></rect><rect class="QRdark QRrounded QRmodule" fill="#98971a" x="22.1" y="15.1" width="0.8" height="0.8" rx="0.4000000059604645"></rect><rect class="QRdark QRrounded QRmodule" fill="#98971a" x="23.1" y="15.1" width="0.8" height="0.8" rx="0.4000000059604645"></rect><rect class="QRdark QRrounded QRmodule" fill="#98971a" x="3.1" y="16.1" width="0.8" height="0.8" rx="0.4000000059604645"></rect><rect class="QRdark QRrounded QRmodule" fill="#98971a" x="6.1" y="16.1" width="0.8" height="0.8" rx="0.4000000059604645"></rect><rect class="QRdark QRrounded QRmodule" fill="#98971a" x="13.1" y="16.1" width="0.8" height="0.8" rx="0.4000000059604645"></rect><rect class="QRdark QRrounded QRmodule" fill="#98971a" x="14.1" y="16.1" width="0.8" height="0.8" rx="0.4000000059604645"></rect><rect class="QRdark QRrounded QRmodule" fill="#98971a" x="16.1" y="16.1" width="0.8" height="0.8" rx="0.4000000059604645"></rect><rect class="QRdark QRrounded QRmodule" fill="#98971a" x="18.1" y="16.1" width="0.8" height="0.8" rx="0.4000000059604645"></rect><rect class="QRdark QRrounded QRmodule" fill="#98971a" x="20.1" y="16.1" width="0.8" height="0.8" rx="0.4000000059604645"></rect><rect class="QRdark QRrounded QRmodule" fill="#98971a" x="21.1" y="16.1" width="0.8" height="0.8" rx="0.4000000059604645"></rect><rect class="QRdark QRrounded QRmodule" fill="#98971a" x="22.1" y="16.1" width="0.8" height="0.8" rx="0.4000000059604645"></rect><rect class="QRdark QRrounded QRmodule" fill="#98971a" x="28.1" y="16.1" width="0.8" height="0.8" rx="0.4000000059604645"></rect><rect class="QRdark QRrounded QRmodule" fill="#98971a" x="3.1" y="17.1" width="0.8" height="0.8" rx="0.4000000059604645"></rect><rect class="QRdark QRrounded QRmodule" fill="#98971a" x="5.1" y="17.1" width="0.8" height="0.8" rx="0.4000000059604645"></rect><rect class="QRdark QRrounded QRmodule" fill="#98971a" x="7.1" y="17.1" width="0.8" height="0.8" rx="0.4000000059604645"></rect><rect class="QRdark QRrounded QRmodule" fill="#98971a" x="13.1" y="17.1" width="0.8" height="0.8" rx="0.4000000059604645"></rect><rect class="QRdark QRrounded QRmodule" fill="#98971a" x="14.1" y="17.1" width="0.8" height="0.8" rx="0.4000000059604645"></rect><rect class="QRdark QRrounded QRmodule" fill="#98971a" x="17.1" y="17.1" width="0.8" height="0.8" rx="0.4000000059604645"></rect><rect class="QRdark QRrounded QRmodule" fill="#98971a" x="19.1" y="17.1" width="0.8" height="0.8" rx="0.4000000059604645"></rect><rect class="QRdark QRrounded QRmodule" fill="#98971a" x="22.1" y="17.1" width="0.8" height="0.8" rx="0.4000000059604645"></rect><rect class="QRdark QRrounded QRmodule" fill="#98971a" x="23.1" y="17.1" width="0.8" height="0.8" rx="0.4000000059604645"></rect><rect class="QRdark QRrounded QRmodule" fill="#98971a" x="26.1" y="17.1" width="0.8" height="0.8" rx="0.4000000059604645"></rect><rect class="QRdark QRrounded QRmodule" fill="#98971a" x="27.1" y="17.1" width="0.8" height="0.8" rx="0.4000000059604645"></rect><rect class="QRdark QRrounded QRmodule" fill="#98971a" x="28.1" y="17.1" width="0.8" height="0.8" rx="0.4000000059604645"></rect><rect class="QRdark QRrounded QRmodule" fill="#98971a" x="0.1" y="18.1" width="0.8" height="0.8" rx="0.4000000059604645"></rect><rect class="QRdark QRrounded QRmodule" fill="#98971a" x="1.1" y="18.1" width="0.8" height="0.8" rx="0.4000000059604645"></rect><rect class="QRdark QRrounded QRmodule" fill="#98971a" x="2.1" y="18.1" width="0.8" height="0.8" rx="0.4000000059604645"></rect><rect class="QRdark QRrounded QRmodule" fill="#98971a" x="3.1" y="18.1" width="0.8" height="0.8" rx="0.4000000059604645"></rect><rect class="QRdark QRrounded QRmodule" fill="#98971a" x="5.1" y="18.1" width="0.8" height="0.8" rx="0.4000000059604645"></rect><rect class="QRdark QRrounded QRmodule" fill="#98971a" x="6.1" y="18.1" width="0.8" height="0.8" rx="0.4000000059604645"></rect><rect class="QRdark QRrounded QRmodule" fill="#98971a" x="9.1" y="18.1" width="0.8" height="0.8" rx="0.4000000059604645"></rect><rect class="QRdark QRrounded QRmodule" fill="#98971a" x="11.1" y="18.1" width="0.8" height="0.8" rx="0.4000000059604645"></rect><rect class="QRdark QRrounded QRmodule" fill="#98971a" x="15.1" y="18.1" width="0.8" height="0.8" rx="0.4000000059604645"></rect><rect class="QRdark QRrounded QRmodule" fill="#98971a" x="16.1" y="18.1" width="0.8" height="0.8" rx="0.4000000059604645"></rect><rect class="QRdark QRrounded QRmodule" fill="#98971a" x="19.1" y="18.1" width="0.8" height="0.8" rx="0.4000000059604645"></rect><rect class="QRdark QRrounded QRmodule" fill="#98971a" x="24.1" y="18.1" width="0.8" height="0.8" rx="0.4000000059604645"></rect><rect class="QRdark QRrounded QRmodule" fill="#98971a" x="25.1" y="18.1" width="0.8" height="0.8" rx="0.4000000059604645"></rect><rect class="QRdark QRrounded QRmodule" fill="#98971a" x="28.1" y="18.1" width="0.8" height="0.8" rx="0.4000000059604645"></rect><rect class="QRdark QRrounded QRmodule" fill="#98971a" x="3.1" y="19.1" width="0.8" height="0.8" rx="0.4000000059604645"></rect><rect class="QRdark QRrounded QRmodule" fill="#98971a" x="5.1" y="19.1" width="0.8" height="0.8" rx="0.4000000059604645"></rect><rect class="QRdark QRrounded QRmodule" fill="#98971a" x="7.1" y="19.1" width="0.8" height="0.8" rx="0.4000000059604645"></rect><rect class="QRdark QRrounded QRmodule" fill="#98971a" x="8.1" y="19.1" width="0.8" height="0.8" rx="0.4000000059604645"></rect><rect class="QRdark QRrounded QRmodule" fill="#98971a" x="10.1" y="19.1" width="0.8" height="0.8" rx="0.4000000059604645"></rect><rect class="QRdark QRrounded QRmodule" fill="#98971a" x="13.1" y="19.1" width="0.8" height="0.8" rx="0.4000000059604645"></rect><rect class="QRdark QRrounded QRmodule" fill="#98971a" x="15.1" y="19.1" width="0.8" height="0.8" rx="0.4000000059604645"></rect><rect class="QRdark QRrounded QRmodule" fill="#98971a" x="16.1" y="19.1" width="0.8" height="0.8" rx="0.4000000059604645"></rect><rect class="QRdark QRrounded QRmodule" fill="#98971a" x="18.1" y="19.1" width="0.8" height="0.8" rx="0.4000000059604645"></rect><rect class="QRdark QRrounded QRmodule" fill="#98971a" x="20.1" y="19.1" width="0.8" height="0.8" rx="0.4000000059604645"></rect><rect class="QRdark QRrounded QRmodule" fill="#98971a" x="22.1" y="19.1" width="0.8" height="0.8" rx="0.4000000059604645"></rect><rect class="QRdark QRrounded QRmodule" fill="#98971a" x="24.1" y="19.1" width="0.8" height="0.8" rx="0.4000000059604645"></rect><rect class="QRdark QRrounded QRmodule" fill="#98971a" x="0.1" y="20.1" width="0.8" height="0.8" rx="0.4000000059604645"></rect><rect class="QRdark QRrounded QRmodule" fill="#98971a" x="1.1" y="20.1" width="0.8" height="0.8" rx="0.4000000059604645"></rect><rect class="QRdark QRrounded QRmodule" fill="#98971a" x="3.1" y="20.1" width="0.8" height="0.8" rx="0.4000000059604645"></rect><rect class="QRdark QRrounded QRmodule" fill="#98971a" x="4.1" y="20.1" width="0.8" height="0.8" rx="0.4000000059604645"></rect><rect class="QRdark QRrounded QRmodule" fill="#98971a" x="6.1" y="20.1" width="0.8" height="0.8" rx="0.4000000059604645"></rect><rect class="QRdark QRrounded QRmodule" fill="#98971a" x="7.1" y="20.1" width="0.8" height="0.8" rx="0.4000000059604645"></rect><rect class="QRdark QRrounded QRmodule" fill="#98971a" x="9.1" y="20.1" width="0.8" height="0.8" rx="0.4000000059604645"></rect><rect class="QRdark QRrounded QRmodule" fill="#98971a" x="10.1" y="20.1" width="0.8" height="0.8" rx="0.4000000059604645"></rect><rect class="QRdark QRrounded QRmodule" fill="#98971a" x="11.1" y="20.1" width="0.8" height="0.8" rx="0.4000000059604645"></rect><rect class="QRdark QRrounded QRmodule" fill="#98971a" x="12.1" y="20.1" width="0.8" height="0.8" rx="0.4000000059604645"></rect><rect class="QRdark QRrounded QRmodule" fill="#98971a" x="13.1" y="20.1" width="0.8" height="0.8" rx="0.4000000059604645"></rect><rect class="QRdark QRrounded QRmodule" fill="#98971a" x="16.1" y="20.1" width="0.8" height="0.8" rx="0.4000000059604645"></rect><rect class="QRdark QRrounded QRmodule" fill="#98971a" x="17.1" y="20.1" width="0.8" height="0.8" rx="0.4000000059604645"></rect><rect class="QRdark QRrounded QRmodule" fill="#98971a" x="20.1" y="20.1" width="0.8" height="0.8" rx="0.4000000059604645"></rect><rect class="QRdark QRrounded QRmodule" fill="#98971a" x="21.1" y="20.1" width="0.8" height="0.8" rx="0.4000000059604645"></rect><rect class="QRdark QRrounded QRmodule" fill="#98971a" x="22.1" y="20.1" width="0.8" height="0.8" rx="0.4000000059604645"></rect><rect class="QRdark QRrounded QRmodule" fill="#98971a" x="23.1" y="20.1" width="0.8" height="0.8" rx="0.4000000059604645"></rect><rect class="QRdark QRrounded QRmodule" fill="#98971a" x="24.1" y="20.1" width="0.8" height="0.8" rx="0.4000000059604645"></rect><rect class="QRdark QRrounded QRmodule" fill="#98971a" x="25.1" y="20.1" width="0.8" height="0.8" rx="0.4000000059604645"></rect><rect class="QRdark QRrounded QRmodule" fill="#98971a" x="27.1" y="20.1" width="0.8" height="0.8" rx="0.4000000059604645"></rect><rect class="QRdark QRrounded QRmodule" fill="#98971a" x="8.1" y="21.1" width="0.8" height="0.8" rx="0.4000000059604645"></rect><rect class="QRdark QRrounded QRmodule" fill="#98971a" x="9.1" y="21.1" width="0.8" height="0.8" rx="0.4000000059604645"></rect><rect class="QRdark QRrounded QRmodule" fill="#98971a" x="10.1" y="21.1" width="0.8" height="0.8" rx="0.4000000059604645"></rect><rect class="QRdark QRrounded QRmodule" fill="#98971a" x="12.1" y="21.1" width="0.8" height="0.8" rx="0.4000000059604645"></rect><rect class="QRdark QRrounded QRmodule" fill="#98971a" x="15.1" y="21.1" width="0.8" height="0.8" rx="0.4000000059604645"></rect><rect class="QRdark QRrounded QRmodule" fill="#98971a" x="16.1" y="21.1" width="0.8" height="0.8" rx="0.4000000059604645"></rect><rect class="QRdark QRrounded QRmodule" fill="#98971a" x="18.1" y="21.1" width="0.8" height="0.8" rx="0.4000000059604645"></rect><rect class="QRdark QRrounded QRmodule" fill="#98971a" x="20.1" y="21.1" width="0.8" height="0.8" rx="0.4000000059604645"></rect><rect class="QRdark QRrounded QRmodule" fill="#98971a" x="24.1" y="21.1" width="0.8" height="0.8" rx="0.4000000059604645"></rect><rect class="QRdark QRrounded QRmodule" fill="#98971a" x="25.1" y="21.1" width="0.8" height="0.8" rx="0.4000000059604645"></rect><rect class="QRdark QRrounded QRmodule" fill="#98971a" x="26.1" y="21.1" width="0.8" height="0.8" rx="0.4000000059604645"></rect><rect class="QRdark QRrounded QRmodule" fill="#98971a" x="28.1" y="21.1" width="0.8" height="0.8" rx="0.4000000059604645"></rect><rect class="QRdark QRrounded QRmodule" fill="#98971a" x="8.1" y="0.1" width="0.8" height="0.8" rx="0.4000000059604645"></rect><rect class="QRdark QRrounded QRmodule" fill="#98971a" x="11.1" y="0.1" width="0.8" height="0.8" rx="0.4000000059604645"></rect><rect class="QRdark QRrounded QRmodule" fill="#98971a" x="12.1" y="0.1" width="0.8" height="0.8" rx="0.4000000059604645"></rect><rect class="QRdark QRrounded QRmodule" fill="#98971a" x="15.1" y="0.1" width="0.8" height="0.8" rx="0.4000000059604645"></rect><rect class="QRdark QRrounded QRmodule" fill="#98971a" x="16.1" y="0.1" width="0.8" height="0.8" rx="0.4000000059604645"></rect><rect class="QRdark QRrounded QRmodule" fill="#98971a" x="19.1" y="0.1" width="0.8" height="0.8" rx="0.4000000059604645"></rect><rect class="QRdark QRrounded QRmodule" fill="#98971a" x="8.1" y="1.1" width="0.8" height="0.8" rx="0.4000000059604645"></rect><rect class="QRdark QRrounded QRmodule" fill="#98971a" x="9.1" y="1.1" width="0.8" height="0.8" rx="0.4000000059604645"></rect><rect class="QRdark QRrounded QRmodule" fill="#98971a" x="10.1" y="1.1" width="0.8" height="0.8" rx="0.4000000059604645"></rect><rect class="QRdark QRrounded QRmodule" fill="#98971a" x="12.1" y="1.1" width="0.8" height="0.8" rx="0.4000000059604645"></rect><rect class="QRdark QRrounded QRmodule" fill="#98971a" x="13.1" y="1.1" width="0.8" height="0.8" rx="0.4000000059604645"></rect><rect class="QRdark QRrounded QRmodule" fill="#98971a" x="14.1" y="1.1" width="0.8" height="0.8" rx="0.4000000059604645"></rect><rect class="QRdark QRrounded QRmodule" fill="#98971a" x="16.1" y="1.1" width="0.8" height="0.8" rx="0.4000000059604645"></rect><rect class="QRdark QRrounded QRmodule" fill="#98971a" x="17.1" y="1.1" width="0.8" height="0.8" rx="0.4000000059604645"></rect><rect class="QRdark QRrounded QRmodule" fill="#98971a" x="20.1" y="1.1" width="0.8" height="0.8" rx="0.4000000059604645"></rect><rect class="QRdark QRrounded QRmodule" fill="#98971a" x="10.1" y="2.1" width="0.8" height="0.8" rx="0.4000000059604645"></rect><rect class="QRdark QRrounded QRmodule" fill="#98971a" x="11.1" y="2.1" width="0.8" height="0.8" rx="0.4000000059604645"></rect><rect class="QRdark QRrounded QRmodule" fill="#98971a" x="12.1" y="2.1" width="0.8" height="0.8" rx="0.4000000059604645"></rect><rect class="QRdark QRrounded QRmodule" fill="#98971a" x="14.1" y="2.1" width="0.8" height="0.8" rx="0.4000000059604645"></rect><rect class="QRdark QRrounded QRmodule" fill="#98971a" x="15.1" y="2.1" width="0.8" height="0.8" rx="0.4000000059604645"></rect><rect class="QRdark QRrounded QRmodule" fill="#98971a" x="16.1" y="2.1" width="0.8" height="0.8" rx="0.4000000059604645"></rect><rect class="QRdark QRrounded QRmodule" fill="#98971a" x="17.1" y="2.1" width="0.8" height="0.8" rx="0.4000000059604645"></rect><rect class="QRdark QRrounded QRmodule" fill="#98971a" x="18.1" y="2.1" width="0.8" height="0.8" rx="0.4000000059604645"></rect><rect class="QRdark QRrounded QRmodule" fill="#98971a" x="19.1" y="2.1" width="0.8" height="0.8" rx="0.4000000059604645"></rect><rect class="QRdark QRrounded QRmodule" fill="#98971a" x="10.1" y="3.1" width="0.8" height="0.8" rx="0.4000000059604645"></rect><rect class="QRdark QRrounded QRmodule" fill="#98971a" x="14.1" y="3.1" width="0.8" height="0.8" rx="0.4000000059604645"></rect><rect class="QRdark QRrounded QRmodule" fill="#98971a" x="17.1" y="3.1" width="0.8" height="0.8" rx="0.4000000059604645"></rect><rect class="QRdark QRrounded QRmodule" fill="#98971a" x="18.1" y="3.1" width="0.8" height="0.8" rx="0.4000000059604645"></rect><rect class="QRdark QRrounded QRmodule" fill="#98971a" x="20.1" y="3.1" width="0.8" height="0.8" rx="0.4000000059604645"></rect><rect class="QRdark QRrounded QRmodule" fill="#98971a" x="8.1" y="4.1" width="0.8" height="0.8" rx="0.4000000059604645"></rect><rect class="QRdark QRrounded QRmodule" fill="#98971a" x="9.1" y="4.1" width="0.8" height="0.8" rx="0.4000000059604645"></rect><rect class="QRdark QRrounded QRmodule" fill="#98971a" x="10.1" y="4.1" width="0.8" height="0.8" rx="0.4000000059604645"></rect><rect class="QRdark QRrounded QRmodule" fill="#98971a" x="11.1" y="4.1" width="0.8" height="0.8" rx="0.4000000059604645"></rect><rect class="QRdark QRrounded QRmodule" fill="#98971a" x="13.1" y="4.1" width="0.8" height="0.8" rx="0.4000000059604645"></rect><rect class="QRdark QRrounded QRmodule" fill="#98971a" x="14.1" y="4.1" width="0.8" height="0.8" rx="0.4000000059604645"></rect><rect class="QRdark QRrounded QRmodule" fill="#98971a" x="15.1" y="4.1" width="0.8" height="0.8" rx="0.4000000059604645"></rect><rect class="QRdark QRrounded QRmodule" fill="#98971a" x="17.1" y="4.1" width="0.8" height="0.8" rx="0.4000000059604645"></rect><rect class="QRdark QRrounded QRmodule" fill="#98971a" x="18.1" y="4.1" width="0.8" height="0.8" rx="0.4000000059604645"></rect><rect class="QRdark QRrounded QRmodule" fill="#98971a" x="8.1" y="5.1" width="0.8" height="0.8" rx="0.4000000059604645"></rect><rect class="QRdark QRrounded QRmodule" fill="#98971a" x="11.1" y="5.1" width="0.8" height="0.8" rx="0.4000000059604645"></rect><rect class="QRdark QRrounded QRmodule" fill="#98971a" x="15.1" y="5.1" width="0.8" height="0.8" rx="0.4000000059604645"></rect><rect class="QRdark QRrounded QRmodule" fill="#98971a" x="18.1" y="5.1" width="0.8" height="0.8" rx="0.4000000059604645"></rect><rect class="QRdark QRrounded QRmodule" fill="#98971a" x="8.1" y="6.1" width="0.8" height="0.8" rx="0.4000000059604645"></rect><rect class="QRdark QRrounded QRmodule" fill="#98971a" x="10.1" y="6.1" width="0.8" height="0.8" rx="0.4000000059604645"></rect><rect class="QRdark QRrounded QRmodule" fill="#98971a" x="12.1" y="6.1" width="0.8" height="0.8" rx="0.4000000059604645"></rect><rect class="QRdark QRrounded QRmodule" fill="#98971a" x="14.1" y="6.1" width="0.8" height="0.8" rx="0.4000000059604645"></rect><rect class="QRdark QRrounded QRmodule" fill="#98971a" x="16.1" y="6.1" width="0.8" height="0.8" rx="0.4000000059604645"></rect><rect class="QRdark QRrounded QRmodule" fill="#98971a" x="18.1" y="6.1" width="0.8" height="0.8" rx="0.4000000059604645"></rect><rect class="QRdark QRrounded QRmodule" fill="#98971a" x="20.1" y="6.1" width="0.8" height="0.8" rx="0.4000000059604645"></rect><rect class="QRdark QRrounded QRmodule" fill="#98971a" x="10.1" y="22.1" width="0.8" height="0.8" rx="0.4000000059604645"></rect><rect class="QRdark QRrounded QRmodule" fill="#98971a" x="12.1" y="22.1" width="0.8" height="0.8" rx="0.4000000059604645"></rect><rect class="QRdark QRrounded QRmodule" fill="#98971a" x="13.1" y="22.1" width="0.8" height="0.8" rx="0.4000000059604645"></rect><rect class="QRdark QRrounded QRmodule" fill="#98971a" x="14.1" y="22.1" width="0.8" height="0.8" rx="0.4000000059604645"></rect><rect class="QRdark QRrounded QRmodule" fill="#98971a" x="15.1" y="22.1" width="0.8" height="0.8" rx="0.4000000059604645"></rect><rect class="QRdark QRrounded QRmodule" fill="#98971a" x="17.1" y="22.1" width="0.8" height="0.8" rx="0.4000000059604645"></rect><rect class="QRdark QRrounded QRmodule" fill="#98971a" x="18.1" y="22.1" width="0.8" height="0.8" rx="0.4000000059604645"></rect><rect class="QRdark QRrounded QRmodule" fill="#98971a" x="20.1" y="22.1" width="0.8" height="0.8" rx="0.4000000059604645"></rect><rect class="QRdark QRrounded QRmodule" fill="#98971a" x="22.1" y="22.1" width="0.8" height="0.8" rx="0.4000000059604645"></rect><rect class="QRdark QRrounded QRmodule" fill="#98971a" x="24.1" y="22.1" width="0.8" height="0.8" rx="0.4000000059604645"></rect><rect class="QRdark QRrounded QRmodule" fill="#98971a" x="28.1" y="22.1" width="0.8" height="0.8" rx="0.4000000059604645"></rect><rect class="QRdark QRrounded QRmodule" fill="#98971a" x="8.1" y="23.1" width="0.8" height="0.8" rx="0.4000000059604645"></rect><rect class="QRdark QRrounded QRmodule" fill="#98971a" x="9.1" y="23.1" width="0.8" height="0.8" rx="0.4000000059604645"></rect><rect class="QRdark QRrounded QRmodule" fill="#98971a" x="10.1" y="23.1" width="0.8" height="0.8" rx="0.4000000059604645"></rect><rect class="QRdark QRrounded QRmodule" fill="#98971a" x="11.1" y="23.1" width="0.8" height="0.8" rx="0.4000000059604645"></rect><rect class="QRdark QRrounded QRmodule" fill="#98971a" x="12.1" y="23.1" width="0.8" height="0.8" rx="0.4000000059604645"></rect><rect class="QRdark QRrounded QRmodule" fill="#98971a" x="14.1" y="23.1" width="0.8" height="0.8" rx="0.4000000059604645"></rect><rect class="QRdark QRrounded QRmodule" fill="#98971a" x="16.1" y="23.1" width="0.8" height="0.8" rx="0.4000000059604645"></rect><rect class="QRdark QRrounded QRmodule" fill="#98971a" x="18.1" y="23.1" width="0.8" height="0.8" rx="0.4000000059604645"></rect><rect class="QRdark QRrounded QRmodule" fill="#98971a" x="19.1" y="23.1" width="0.8" height="0.8" rx="0.4000000059604645"></rect><rect class="QRdark QRrounded QRmodule" fill="#98971a" x="20.1" y="23.1" width="0.8" height="0.8" rx="0.4000000059604645"></rect><rect class="QRdark QRrounded QRmodule" fill="#98971a" x="24.1" y="23.1" width="0.8" height="0.8" rx="0.4000000059604645"></rect><rect class="QRdark QRrounded QRmodule" fill="#98971a" x="9.1" y="24.1" width="0.8" height="0.8" rx="0.4000000059604645"></rect><rect class="QRdark QRrounded QRmodule" fill="#98971a" x="13.1" y="24.1" width="0.8" height="0.8" rx="0.4000000059604645"></rect><rect class="QRdark QRrounded QRmodule" fill="#98971a" x="14.1" y="24.1" width="0.8" height="0.8" rx="0.4000000059604645"></rect><rect class="QRdark QRrounded QRmodule" fill="#98971a" x="15.1" y="24.1" width="0.8" height="0.8" rx="0.4000000059604645"></rect><rect class="QRdark QRrounded QRmodule" fill="#98971a" x="16.1" y="24.1" width="0.8" height="0.8" rx="0.4000000059604645"></rect><rect class="QRdark QRrounded QRmodule" fill="#98971a" x="17.1" y="24.1" width="0.8" height="0.8" rx="0.4000000059604645"></rect><rect class="QRdark QRrounded QRmodule" fill="#98971a" x="19.1" y="24.1" width="0.8" height="0.8" rx="0.4000000059604645"></rect><rect class="QRdark QRrounded QRmodule" fill="#98971a" x="20.1" y="24.1" width="0.8" height="0.8" rx="0.4000000059604645"></rect><rect class="QRdark QRrounded QRmodule" fill="#98971a" x="21.1" y="24.1" width="0.8" height="0.8" rx="0.4000000059604645"></rect><rect class="QRdark QRrounded QRmodule" fill="#98971a" x="22.1" y="24.1" width="0.8" height="0.8" rx="0.4000000059604645"></rect><rect class="QRdark QRrounded QRmodule" fill="#98971a" x="23.1" y="24.1" width="0.8" height="0.8" rx="0.4000000059604645"></rect><rect class="QRdark QRrounded QRmodule" fill="#98971a" x="24.1" y="24.1" width="0.8" height="0.8" rx="0.4000000059604645"></rect><rect class="QRdark QRrounded QRmodule" fill="#98971a" x="25.1" y="24.1" width="0.8" height="0.8" rx="0.4000000059604645"></rect><rect class="QRdark QRrounded QRmodule" fill="#98971a" x="27.1" y="24.1" width="0.8" height="0.8" rx="0.4000000059604645"></rect><rect class="QRdark QRrounded QRmodule" fill="#98971a" x="28.1" y="24.1" width="0.8" height="0.8" rx="0.4000000059604645"></rect><rect class="QRdark QRrounded QRmodule" fill="#98971a" x="9.1" y="25.1" width="0.8" height="0.8" rx="0.4000000059604645"></rect><rect class="QRdark QRrounded QRmodule" fill="#98971a" x="10.1" y="25.1" width="0.8" height="0.8" rx="0.4000000059604645"></rect><rect class="QRdark QRrounded QRmodule" fill="#98971a" x="13.1" y="25.1" width="0.8" height="0.8" rx="0.4000000059604645"></rect><rect class="QRdark QRrounded QRmodule" fill="#98971a" x="14.1" y="25.1" width="0.8" height="0.8" rx="0.4000000059604645"></rect><rect class="QRdark QRrounded QRmodule" fill="#98971a" x="15.1" y="25.1" width="0.8" height="0.8" rx="0.4000000059604645"></rect><rect class="QRdark QRrounded QRmodule" fill="#98971a" x="16.1" y="25.1" width="0.8" height="0.8" rx="0.4000000059604645"></rect><rect class="QRdark QRrounded QRmodule" fill="#98971a" x="18.1" y="25.1" width="0.8" height="0.8" rx="0.4000000059604645"></rect><rect class="QRdark QRrounded QRmodule" fill="#98971a" x="19.1" y="25.1" width="0.8" height="0.8" rx="0.4000000059604645"></rect><rect class="QRdark QRrounded QRmodule" fill="#98971a" x="20.1" y="25.1" width="0.8" height="0.8" rx="0.4000000059604645"></rect><rect class="QRdark QRrounded QRmodule" fill="#98971a" x="21.1" y="25.1" width="0.8" height="0.8" rx="0.4000000059604645"></rect><rect class="QRdark QRrounded QRmodule" fill="#98971a" x="24.1" y="25.1" width="0.8" height="0.8" rx="0.4000000059604645"></rect><rect class="QRdark QRrounded QRmodule" fill="#98971a" x="25.1" y="25.1" width="0.8" height="0.8" rx="0.4000000059604645"></rect><rect class="QRdark QRrounded QRmodule" fill="#98971a" x="26.1" y="25.1" width="0.8" height="0.8" rx="0.4000000059604645"></rect><rect class="QRdark QRrounded QRmodule" fill="#98971a" x="28.1" y="25.1" width="0.8" height="0.8" rx="0.4000000059604645"></rect><rect class="QRdark QRrounded QRmodule" fill="#98971a" x="8.1" y="26.1" width="0.8" height="0.8" rx="0.4000000059604645"></rect><rect class="QRdark QRrounded QRmodule" fill="#98971a" x="10.1" y="26.1" width="0.8" height="0.8" rx="0.4000000059604645"></rect><rect class="QRdark QRrounded QRmodule" fill="#98971a" x="11.1" y="26.1" width="0.8" height="0.8" rx="0.4000000059604645"></rect><rect class="QRdark QRrounded QRmodule" fill="#98971a" x="15.1" y="26.1" width="0.8" height="0.8" rx="0.4000000059604645"></rect><rect class="QRdark QRrounded QRmodule" fill="#98971a" x="18.1" y="26.1" width="0.8" height="0.8" rx="0.4000000059604645"></rect><rect class="QRdark QRrounded QRmodule" fill="#98971a" x="21.1" y="26.1" width="0.8" height="0.8" rx="0.4000000059604645"></rect><rect class="QRdark QRrounded QRmodule" fill="#98971a" x="24.1" y="26.1" width="0.8" height="0.8" rx="0.4000000059604645"></rect><rect class="QRdark QRrounded QRmodule" fill="#98971a" x="27.1" y="26.1" width="0.8" height="0.8" rx="0.4000000059604645"></rect><rect class="QRdark QRrounded QRmodule" fill="#98971a" x="28.1" y="26.1" width="0.8" height="0.8" rx="0.4000000059604645"></rect><rect class="QRdark QRrounded QRmodule" fill="#98971a" x="8.1" y="27.1" width="0.8" height="0.8" rx="0.4000000059604645"></rect><rect class="QRdark QRrounded QRmodule" fill="#98971a" x="9.1" y="27.1" width="0.8" height="0.8" rx="0.4000000059604645"></rect><rect class="QRdark QRrounded QRmodule" fill="#98971a" x="10.1" y="27.1" width="0.8" height="0.8" rx="0.4000000059604645"></rect><rect class="QRdark QRrounded QRmodule" fill="#98971a" x="13.1" y="27.1" width="0.8" height="0.8" rx="0.4000000059604645"></rect><rect class="QRdark QRrounded QRmodule" fill="#98971a" x="15.1" y="27.1" width="0.8" height="0.8" rx="0.4000000059604645"></rect><rect class="QRdark QRrounded QRmodule" fill="#98971a" x="16.1" y="27.1" width="0.8" height="0.8" rx="0.4000000059604645"></rect><rect class="QRdark QRrounded QRmodule" fill="#98971a" x="20.1" y="27.1" width="0.8" height="0.8" rx="0.4000000059604645"></rect><rect class="QRdark QRrounded QRmodule" fill="#98971a" x="23.1" y="27.1" width="0.8" height="0.8" rx="0.4000000059604645"></rect><rect class="QRdark QRrounded QRmodule" fill="#98971a" x="24.1" y="27.1" width="0.8" height="0.8" rx="0.4000000059604645"></rect><rect class="QRdark QRrounded QRmodule" fill="#98971a" x="25.1" y="27.1" width="0.8" height="0.8" rx="0.4000000059604645"></rect><rect class="QRdark QRrounded QRmodule" fill="#98971a" x="8.1" y="28.1" width="0.8" height="0.8" rx="0.4000000059604645"></rect><rect class="QRdark QRrounded QRmodule" fill="#98971a" x="10.1" y="28.1" width="0.8" height="0.8" rx="0.4000000059604645"></rect><rect class="QRdark QRrounded QRmodule" fill="#98971a" x="11.1" y="28.1" width="0.8" height="0.8" rx="0.4000000059604645"></rect><rect class="QRdark QRrounded QRmodule" fill="#98971a" x="12.1" y="28.1" width="0.8" height="0.8" rx="0.4000000059604645"></rect><rect class="QRdark QRrounded QRmodule" fill="#98971a" x="13.1" y="28.1" width="0.8" height="0.8" rx="0.4000000059604645"></rect><rect class="QRdark QRrounded QRmodule" fill="#98971a" x="15.1" y="28.1" width="0.8" height="0.8" rx="0.4000000059604645"></rect><rect class="QRdark QRrounded QRmodule" fill="#98971a" x="16.1" y="28.1" width="0.8" height="0.8" rx="0.4000000059604645"></rect><rect class="QRdark QRrounded QRmodule" fill="#98971a" x="20.1" y="28.1" width="0.8" height="0.8" rx="0.4000000059604645"></rect><rect class="QRdark QRrounded QRmodule" fill="#98971a" x="24.1" y="28.1" width="0.8" height="0.8" rx="0.4000000059604645"></rect><rect class="QRdark QRrounded QRmodule" fill="#98971a" x="25.1" y="28.1" width="0.8" height="0.8" rx="0.4000000059604645"></rect><rect class="QRdark QRrounded QRmodule" fill="#98971a" x="28.1" y="28.1" width="0.8" height="0.8" rx="0.4000000059604645"></rect><rect class="QRdark QRrounded" fill="#98971a" x="0" y="0" width="7" height="7" rx="3.5"></rect><rect class="QRlight QRrounded" fill="#1d2021" x="1" y="1" width="5" height="5" rx="2.5"></rect><rect class="QRdark QRrounded" fill="#98971a" x="2" y="2" width="3" height="3" rx="1.5"></rect><rect class="QRdark QRrounded" fill="#98971a" x="22" y="0" width="7" height="7" rx="3.5"></rect><rect class="QRlight QRrounded" fill="#1d2021" x="23" y="1" width="5" height="5" rx="2.5"></rect><rect class="QRdark QRrounded" fill="#98971a" x="24" y="2" width="3" height="3" rx="1.5"></rect><rect class="QRdark QRrounded" fill="#98971a" x="0" y="22" width="7" height="7" rx="3.5"></rect><rect class="QRlight QRrounded" fill="#1d2021" x="1" y="23" width="5" height="5" rx="2.5"></rect><rect class="QRdark QRrounded" fill="#98971a" x="2" y="24" width="3" height="3" rx="1.5"></rect></svg>
