<svg class="qrCode" id="" version="1.1" xmlns="http://www.w3.org/2000/svg" viewBox="-5 -5 39 39"><path class="qrLight" fill="#1d2021" d="M-5,-5h39v39h-39Z"></path><path class="qrDark" fill="#98971a" d="M0,0h1v1h-1ZM1,0h1v1h-1ZM2,0h1v1h-1ZM3,0h1v1h-1ZM4,0h1v1h-1ZM5,0h1v1h-1ZM6,0h1v1h-1ZM8,0h1v1h-1ZM11,0h1v1h-1ZM12,0h1v1h-1ZM15,0h1v1h-1ZM16,0h1v1h-1ZM19,0h1v1h-1ZM22,0h1v1h-1ZM23,0h1v1h-1ZM24,0h1v1h-1ZM25,0h1v1h-1ZM26,0h1v1h-1ZM27,0h1v1h-1ZM28,0h1v1h-1ZM0,1h1v1h-1ZM6,1h1v1h-1ZM8,1h1v1h-1ZM9,1h1v1h-1ZM10,1h1v1h-1ZM12,1h1v1h-1ZM13,1h1v1h-1ZM14,1h1v1h-1ZM16,1h1v1h-1ZM17,1h1v1h-1ZM20,1h1v1h-1ZM22,1h1v1h-1ZM28,1h1v1h-1ZM0,2h1v1h-1ZM2,2h1v1h-1ZM3,2h1v1h-1ZM4,2h1v1h-1ZM6,2h1v1h-1ZM10,2h1v1h-1ZM11,2h1v1h-1ZM12,2h1v1h-1ZM14,2h1v1h-1ZM15,2h1v1h-1ZM16,2h1v1h-1ZM17,2h1v1h-1ZM18,2h1v1h-1ZM19,2h1v1h-1ZM22,2h1v1h-1ZM24,2h1v1h-1ZM25,2h1v1h-1ZM26,2h1v1h-1ZM28,2h1v1h-1ZM0,3h1v1h-1ZM2,3h1v1h-1ZM3,3h1v1h-1ZM4,3h1v1h-1ZM6,3h1v1h-1ZM10,3h1v1h-1ZM14,3h1v1h-1ZM17,3h1v1h-1ZM18,3h1v1h-1ZM20,3h1v1h-1ZM22,3h1v1h-1ZM24,3h1v1h-1ZM25,3h1v1h-1ZM26,3h1v1h-1ZM28,3h1v1h-1ZM0,4h1v1h-1ZM2,4h1v1h-1ZM3,4h1v1h-1ZM4,4h1v1h-1ZM6,4h1v1h-1ZM8,4h1v1h-1ZM9,4h1v1h-1ZM10,4h1v1h-1ZM11,4h1v1h-1ZM13,4h1v1h-1ZM14,4h1v1h-1ZM15,4h1v1h-1ZM17,4h1v1h-1ZM18,4h1v1h-1ZM22,4h1v1h-1ZM24,4h1v1h-1ZM25,4h1v1h-1ZM26,4h1v1h-1ZM28,4h1v1h-1ZM0,5h1v1h-1ZM6,5h1v1h-1ZM8,5h1v1h-1ZM11,5h1v1h-1ZM15,5h1v1h-1ZM18,5h1v1h-1ZM22,5h1v1h-1ZM28,5h1v1h-1ZM0,6h1v1h-1ZM1,6h1v1h-1ZM2,6h1v1h-1ZM3,6h1v1h-1ZM4,6h1v1h-1ZM5,6h1v1h-1ZM6,6h1v1h-1ZM8,6h1v1h-1ZM10,6h1v1h-1ZM12,6h1v1h-1ZM14,6h1v1h-1ZM16,6h1v1h-1ZM18,6h1v1h-1ZM20,6h1v1h-1ZM22,6h1v1h-1ZM23,6h1v1h-1ZM24,6h1v1h-1ZM25,6h1v1h-1ZM26,6h1v1h-1ZM27,6h1v1h-1ZM28,6h1v1h-1ZM8,7h1v1h-1ZM10,7h1v1h-1ZM11,7h1v1h-1ZM12,7h1v1h-1ZM14,7h1v1h-1ZM15,7h1v1h-1ZM16,7h1v1h-1ZM18,7h1v1h-1ZM19,7h1v1h-1ZM0,8h1v1h-1ZM1,8h1v1h-1ZM2,8h1v1h-1ZM5,8h1v1h-1ZM6,8h1v1h-1ZM8,8h1v1h-1ZM9,8h1v1h-1ZM10,8h1v1h-1ZM13,8h1v1h-1ZM14,8h1v1h-1ZM19,8h1v1h-1ZM21,8h1v1h-1ZM22,8h1v1h-1ZM23,8h1v1h-1ZM24,8h1v1h-1ZM27,8h1v1h-1ZM28,8h1v1h-1ZM1,9h1v1h-1ZM3,9h1v1h-1ZM4,9h1v1h-1ZM5,9h1v1h-1ZM7,9h1v1h-1ZM8,9h1v1h-1ZM9,9h1v1h-1ZM10,9h1v1h-1ZM13,9h1v1h-1ZM14,9h1v1h-1ZM18,9h1v1h-1ZM19,9h1v1h-1ZM20,9h1v1h-1ZM21,9h1v1h-1ZM22,9h1v1h-1ZM23,9h1v1h-1ZM27,9h1v1h-1ZM28,9h1v1h-1ZM0,10h1v1h-1ZM1,10h1v1h-1ZM3,10h1v1h-1ZM6,10h1v1h-1ZM8,10h1v1h-1ZM11,10h1v1h-1ZM15,10h1v1h-1ZM17,10h1v1h-1ZM19,10h1v1h-1ZM22,10h1v1h-1ZM23,10h1v1h-1ZM24,10h1v1h-1ZM25,10h1v1h-1ZM26,10h1v1h-1ZM28,10h1v1h-1ZM1,11h1v1h-1ZM2,11h1v1h-1ZM4,11h1v1h-1ZM5,11h1v1h-1ZM7,11h1v1h-1ZM8,11h1v1h-1ZM9,11h1v1h-1ZM13,11h1v1h-1ZM21,11h1v1h-1ZM24,11h1v1h-1ZM25,11h1v1h-1ZM0,12h1v1h-1ZM2,12h1v1h-1ZM3,12h1v1h-1ZM4,12h1v1h-1ZM5,12h1v1h-1ZM6,12h1v1h-1ZM7,12h1v1h-1ZM9,12h1v1h-1ZM11,12h1v1h-1ZM12,12h1v1h-1ZM13,12h1v1h-1ZM15,12h1v1h-1ZM16,12h1v1h-1ZM19,12h1v1h-1ZM20,12h1v1h-1ZM22,12h1v1h-1ZM23,12h1v1h-1ZM28,12h1v1h-1ZM3,13h1v1h-1ZM5,13h1v1h-1ZM8,13h1v1h-1ZM12,13h1v1h-1ZM16,13h1v1h-1ZM19,13h1v1h-1ZM20,13h1v1h-1ZM22,13h1v1h-1ZM23,13h1v1h-1ZM27,13h1v1h-1ZM28,13h1v1h-1ZM2,14h1v1h-1ZM5,14h1v1h-1ZM6,14h1v1h-1ZM7,14h1v1h-1ZM12,14h1v1h-1ZM13,14h1v1h-1ZM14,14h1v1h-1ZM16,14h1v1h-1ZM17,14h1v1h-1ZM18,14h1v1h-1ZM19,14h1v1h-1ZM21,14h1v1h-1ZM22,14h1v1h-1ZM23,14h1v1h-1ZM24,14h1v1h-1ZM28,14h1v1h-1ZM0,15h1v1h-1ZM4,15h1v1h-1ZM5,15h1v1h-1ZM7,15h1v1h-1ZM8,15h1v1h-1ZM9,15h1v1h-1ZM11,15h1v1h-1ZM12,15h1v1h-1ZM14,15h1v1h-1ZM15,15h1v1h-1ZM16,15h1v1h-1ZM18,15h1v1h-1ZM19,15h1v1h-1ZM20,15h1v1h-1ZM22,15h1v1h-1ZM23,15h1v1h-1ZM3,16h1v1h-1ZM6,16h1v1h-1ZM13,16h1v1h-1ZM14,16h1v1h-1ZM16,16h1v1h-1ZM18,16h1v1h-1ZM20,16h1v1h-1ZM21,16h1v1h-1ZM22,16h1v1h-1ZM28,16h1v1h-1ZM3,17h1v1h-1ZM5,17h1v1h-1ZM7,17h1v1h-1ZM13,17h1v1h-1ZM14,17h1v1h-1ZM17,17h1v1h-1ZM19,17h1v1h-1ZM22,17h1v1h-1ZM23,17h1v1h-1ZM26,17h1v1h-1ZM27,17h1v1h-1ZM28,17h1v1h-1ZM0,18h1v1h-1ZM1,18h1v1h-1ZM2,18h1v1h-1ZM3,18h1v1h-1ZM5,18h1v1h-1ZM6,18h1v1h-1ZM9,18h1v1h-1ZM11,18h1v1h-1ZM15,18h1v1h-1ZM16,18h1v1h-1ZM19,18h1v1h-1ZM24,18h1v1h-1ZM25,18h1v1h-1ZM28,18h1v1h-1ZM3,19h1v1h-1ZM5,19h1v1h-1ZM7,19h1v1h-1ZM8,19h1v1h-1ZM10,19h1v1h-1ZM13,19h1v1h-1ZM15,19h1v1h-1ZM16,19h1v1h-1ZM18,19h1v1h-1ZM20,19h1v1h-1ZM22,19h1v1h-1ZM24,19h1v1h-1ZM0,20h1v1h-1ZM1,20h1v1h-1ZM3,20h1v1h-1ZM4,20h1v1h-1ZM6,20h1v1h-1ZM7,20h1v1h-1ZM9,20h1v1h-1ZM10,20h1v1h-1ZM11,20h1v1h-1ZM12,20h1v1h-1ZM13,20h1v1h-1ZM16,20h1v1h-1ZM17,20h1v1h-1ZM20,20h1v1h-1ZM21,20h1v1h-1ZM22,20h1v1h-1ZM23,20h1v1h-1ZM24,20h1v1h-1ZM25,20h1v1h-1ZM27,20h1v1h-1ZM8,21h1v1h-1ZM9,21h1v1h-1ZM10,21h1v1h-1ZM12,21h1v1h-1ZM15,21h1v1h-1ZM16,21h1v1h-1ZM18,21h1v1h-1ZM20,21h1v1h-1ZM24,21h1v1h-1ZM25,21h1v1h-1ZM26,21h1v1h-1ZM28,21h1v1h-1ZM0,22h1v1h-1ZM1,22h1v1h-1ZM2,22h1v1h-1ZM3,22h1v1h-1ZM4,22h1v1h-1ZM5,22h1v1h-1ZM6,22h1v1h-1ZM10,22h1v1h-1ZM12,22h1v1h-1ZM13,22h1v1h-1ZM14,22h1v1h-1ZM15,22h1v1h-1ZM17,22h1v1h-1ZM18,22h1v1h-1ZM20,22h1v1h-1ZM22,22h1v1h-1ZM24,22h1v1h-1ZM28,22h1v1h-1ZM0,23h1v1h-1ZM6,23h1v1h-1ZM8,23h1v1h-1ZM9,23h1v1h-1ZM10,23h1v1h-1ZM11,23h1v1h-1ZM12,23h1v1h-1ZM14,23h1v1h-1ZM16,23h1v1h-1ZM18,23h1v1h-1ZM19,23h1v1h-1ZM20,23h1v1h-1ZM24,23h1v1h-1ZM0,24h1v1h-1ZM2,24h1v1h-1ZM3,24h1v1h-1ZM4,24h1v1h-1ZM6,24h1v1h-1ZM9,24h1v1h-1ZM13,24h1v1h-1ZM14,24h1v1h-1ZM15,24h1v1h-1ZM16,24h1v1h-1ZM17,24h1v1h-1ZM19,24h1v1h-1ZM20,24h1v1h-1ZM21,24h1v1h-1ZM22,24h1v1h-1ZM23,24h1v1h-1ZM24,24h1v1h-1ZM25,24h1v1h-1ZM27,24h1v1h-1ZM28,24h1v1h-1ZM0,25h1v1h-1ZM2,25h1v1h-1ZM3,25h1v1h-1ZM4,25h1v1h-1ZM6,25h1v1h-1ZM9,25h1v1h-1ZM10,25h1v1h-1ZM13,25h1v1h-1ZM14,25h1v1h-1ZM15,25h1v1h-1ZM16,25h1v1h-1ZM18,25h1v1h-1ZM19,25h1v1h-1ZM20,25h1v1h-1ZM21,25h1v1h-1ZM24,25h1v1h-1ZM25,25h1v1h-1ZM26,25h1v1h-1ZM28,25h1v1h-1ZM0,26h1v1h-1ZM2,26h1v1h-1ZM3,26h1v1h-1ZM4,26h1v1h-1ZM6,26h1v1h-1ZM8,26h1v1h-1ZM10,26h1v1h-1ZM11,26h1v1h-1ZM15,26h1v1h-1ZM18,26h1v1h-1ZM21,26h1v1h-1ZM24,26h1v1h-1ZM27,26h1v1h-1ZM28,26h1v1h-1ZM0,27h1v1h-1ZM6,27h1v1h-1ZM8,27h1v1h-1ZM9,27h1v1h-1ZM10,27h1v1h-1ZM13,27h1v1h-1ZM15,27h1v1h-1ZM16,27h1v1h-1ZM20,27h1v1h-1ZM23,27h1v1h-1ZM24,27h1v1h-1ZM25,27h1v1h-1ZM0,28h1v1h-1ZM1,28h1v1h-1ZM2,28h1v1h-1ZM3,28h1v1h-1ZM4,28h1v1h-1ZM5,28h1v1h-1ZM6,28h1v1h-1ZM8,28h1v1h-1ZM10,28h1v1h-1ZM11,28h1v1h-1ZM12,28h1v1h-1ZM13,28h1v1h-1ZM15,28h1v1h-1ZM16,28h1v1h-1ZM20,28h1v1h-1ZM24,28h1v1h-1ZM25,28h1v1h-1ZM28,28h1v1h-1Z"></path></svg>