<svg class="qrCode" id="" version="1.1" xmlns="http://www.w3.org/2000/svg" viewBox="-5 -5 39 39"><path class="qrLight" fill="#1d2021" d="M-5,-5h39v39h-39Z"></path><g fill="#98971a" class="qrDark qrRounded qrModules"><rect x="8  " y="7.0" width="1.0" height="1.0" rx="0.5"></rect><rect x="10 " y="7.0" width="1.0" height="1.0" rx="0.5"></rect><rect x="11 " y="7.0" width="1.0" height="1.0" rx="0.5"></rect><rect x="12 " y="7.0" width="1.0" height="1.0" rx="0.5"></rect><rect x="14 " y="7.0" width="1.0" height="1.0" rx="0.5"></rect><rect x="15 " y="7.0" width="1.0" height="1.0" rx="0.5"></rect><rect x="16 " y="7.0" width="1.0" height="1.0" rx="0.5"></rect><rect x="18 " y="7.0" width="1.0" height="1.0" rx="0.5"></rect><rect x="19 " y="7.0" width="1.0" height="1.0" rx="0.5"></rect><rect x="0  " y="8.0" width="1.0" height="1.0" rx="0.5"></rect><rect x="1  " y="8.0" width="1.0" height="1.0" rx="0.5"></rect><rect x="2  " y="8.0" width="1.0" height="1.0" rx="0.5"></rect><rect x="5  " y="8.0" width="1.0" height="1.0" rx="0.5"></rect><rect x="6  " y="8.0" width="1.0" height="1.0" rx="0.5"></rect><rect x="8  " y="8.0" width="1.0" height="1.0" rx="0.5"></rect><rect x="9  " y="8.0" width="1.0" height="1.0" rx="0.5"></rect><rect x="10 " y="8.0" width="1.0" height="1.0" rx="0.5"></rect><rect x="13 " y="8.0" width="1.0" height="1.0" rx="0.5"></rect><rect x="14 " y="8.0" width="1.0" height="1.0" rx="0.5"></rect><rect x="19 " y="8.0" width="1.0" height="1.0" rx="0.5"></rect><rect x="21 " y="8.0" width="1.0" height="1.0" rx="0.5"></rect><rect x="22 " y="8.0" width="1.0" height="1.0" rx="0.5"></rect><rect x="23 " y="8.0" width="1.0" height="1.0" rx="0.5"></rect><rect x="24 " y="8.0" width="1.0" height="1.0" rx="0.5"></rect><rect x="27 " y="8.0" width="1.0" height="1.0" rx="0.5"></rect><rect x="28 " y="8.0" width="1.0" height="1.0" rx="0.5"></rect><rect x="1  " y="9.0" width="1.0" height="1.0" rx="0.5"></rect><rect x="3  " y="9.0" width="1.0" height="1.0" rx="0.5"></rect><rect x="4  " y="9.0" width="1.0" height="1.0" rx="0.5"></rect><rect x="5  " y="9.0" width="1.0" height="1.0" rx="0.5"></rect><rect x="7  " y="9.0" width="1.0" height="1.0" rx="0.5"></rect><rect x="8  " y="9.0" width="1.0" height="1.0" rx="0.5"></rect><rect x="9  " y="9.0" width="1.0" height="1.0" rx="0.5"></rect><rect x="10 " y="9.0" width="1.0" height="1.0" rx="0.5"></rect><rect x="13 " y="9.0" width="1.0" height="1.0" rx="0.5"></rect><rect x="14 " y="9.0" width="1.0" height="1.0" rx="0.5"></rect><rect x="18 " y="9.0" width="1.0" height="1.0" rx="0.5"></rect><rect x="19 " y="9.0" width="1.0" height="1.0" rx="0.5"></rect><rect x="20 " y="9.0" width="1.0" height="1.0" rx="0.5"></rect><rect x="21 " y="9.0" width="1.0" height="1.0" rx="0.5"></rect><rect x="22 " y="9.0" width="1.0" height="1.0" rx="0.5"></rect><rect x="23 " y="9.0" width="1.0" height="1.0" rx="0.5"></rect><rect x="27 " y="9.0" width="1.0" height="1.0" rx="0.5"></rect><rect x="28 " y="9.0" width="1.0" height="1.0" rx="0.5"></rect><rect x="0  " y="10.0" width="1.0" height="1.0" rx="0.5"></rect><rect x="1  " y="10.0" width="1.0" height="1.0" rx="0.5"></rect><rect x="3  " y="10.0" width="1.0" height="1.0" rx="0.5"></rect><rect x="6  " y="10.0" width="1.0" height="1.0" rx="0.5"></rect><rect x="8  " y="10.0" width="1.0" height="1.0" rx="0.5"></rect><rect x="11 " y="10.0" width="1.0" height="1.0" rx="0.5"></rect><rect x="15 " y="10.0" width="1.0" height="1.0" rx="0.5"></rect><rect x="17 " y="10.0" width="1.0" height="1.0" rx="0.5"></rect><rect x="19 " y="10.0" width="1.0" height="1.0" rx="0.5"></rect><rect x="22 " y="10.0" width="1.0" height="1.0" rx="0.5"></rect><rect x="23 " y="10.0" width="1.0" height="1.0" rx="0.5"></rect><rect x="24 " y="10.0" width="1.0" height="1.0" rx="0.5"></rect><rect x="25 " y="10.0" width="1.0" height="1.0" rx="0.5"></rect><rect x="26 " y="10.0" width="1.0" height="1.0" rx="0.5"></rect><rect x="28 " y="10.0" width="1.0" height="1.0" rx="0.5"></rect><rect x="1  " y="11.0" width="1.0" height="1.0" rx="0.5"></rect><rect x="2  " y="11.0" width="1.0" height="1.0" rx="0.5"></rect><rect x="4  " y="11.0" width="1.0" height="1.0" rx="0.5"></rect><rect x="5  " y="11.0" width="1.0" height="1.0" rx="0.5"></rect><rect x="7  " y="11.0" width="1.0" height="1.0" rx="0.5"></rect><rect x="8  " y="11.0" width="1.0" height="1.0" rx="0.5"></rect><rect x="9  " y="11.0" width="1.0" height="1.0" rx="0.5"></rect><rect x="13 " y="11.0" width="1.0" height="1.0" rx="0.5"></rect><rect x="21 " y="11.0" width="1.0" height="1.0" rx="0.5"></rect><rect x="24 " y="11.0" width="1.0" height="1.0" rx="0.5"></rect><rect x="25 " y="11.0" width="1.0" height="1.0" rx="0.5"></rect><rect x="0  " y="12.0" width="1.0" height="1.0" rx="0.5"></rect><rect x="2  " y="12.0" width="1.0" height="1.0" rx="0.5"></rect><rect x="3  " y="12.0" width="1.0" height="1.0" rx="0.5"></rect><rect x="4  " y="12.0" width="1.0" height="1.0" rx="0.5"></rect><rect x="5  " y="12.0" width="1.0" height="1.0" rx="0.5"></rect><rect x="6  " y="12.0" width="1.0" height="1.0" rx="0.5"></rect><rect x="7  " y="12.0" width="1.0" height="1.0" rx="0.5"></rect><rect x="9  " y="12.0" width="1.0" height="1.0" rx="0.5"></rect><rect x="11 " y="12.0" width="1.0" height="1.0" rx="0.5"></rect><rect x="12 " y="12.0" width="1.0" height="1.0" rx="0.5"></rect><rect x="13 " y="12.0" width="1.0" height="1.0" rx="0.5"></rect><rect x="15 " y="12.0" width="1.0" height="1.0" rx="0.5"></rect><rect x="16 " y="12.0" width="1.0" height="1.0" rx="0.5"></rect><rect x="19 " y="12.0" width="1.0" height="1.0" rx="0.5"></rect><rect x="20 " y="12.0" width="1.0" height="1.0" rx="0.5"></rect><rect x="22 " y="12.0" width="1.0" height="1.0" rx="0.5"></rect><rect x="23 " y="12.0" width="1.0" height="1.0" rx="0.5"></rect><rect x="28 " y="12.0" width="1.0" height="1.0" rx="0.5"></rect><rect x="3  " y="13.0" width="1.0" height="1.0" rx="0.5"></rect><rect x="5  " y="13.0" width="1.0" height="1.0" rx="0.5"></rect><rect x="8  " y="13.0" width="1.0" height="1.0" rx="0.5"></rect><rect x="12 " y="13.0" width="1.0" height="1.0" rx="0.5"></rect><rect x="16 " y="13.0" width="1.0" height="1.0" rx="0.5"></rect><rect x="19 " y="13.0" width="1.0" height="1.0" rx="0.5"></rect><rect x="20 " y="13.0" width="1.0" height="1.0" rx="0.5"></rect><rect x="22 " y="13.0" width="1.0" height="1.0" rx="0.5"></rect><rect x="23 " y="13.0" width="1.0" height="1.0" rx="0.5"></rect><rect x="27 " y="13.0" width="1.0" height="1.0" rx="0.5"></rect><rect x="28 " y="13.0" width="1.0" height="1.0" rx="0.5"></rect><rect x="2  " y="14.0" width="1.0" height="1.0" rx="0.5"></rect><rect x="5  " y="14.0" width="1.0" height="1.0" rx="0.5"></rect><rect x="6  " y="14.0" width="1.0" height="1.0" rx="0.5"></rect><rect x="7  " y="14.0" width="1.0" height="1.0" rx="0.5"></rect><rect x="12 " y="14.0" width="1.0" height="1.0" rx="0.5"></rect><rect x="13 " y="14.0" width="1.0" height="1.0" rx="0.5"></rect><rect x="14 " y="14.0" width="1.0" height="1.0" rx="0.5"></rect><rect x="16 " y="14.0" width="1.0" height="1.0" rx="0.5"></rect><rect x="17 " y="14.0" width="1.0" height="1.0" rx="0.5"></rect><rect x="18 " y="14.0" width="1.0" height="1.0" rx="0.5"></rect><rect x="19 " y="14.0" width="1.0" height="1.0" rx="0.5"></rect><rect x="21 " y="14.0" width="1.0" height="1.0" rx="0.5"></rect><rect x="22 " y="14.0" width="1.0" height="1.0" rx="0.5"></rect><rect x="23 " y="14.0" width="1.0" height="1.0" rx="0.5"></rect><rect x="24 " y="14.0" width="1.0" height="1.0" rx="0.5"></rect><rect x="28 " y="14.0" width="1.0" height="1.0" rx="0.5"></rect><rect x="0  " y="15.0" width="1.0" height="1.0" rx="0.5"></rect><rect x="4  " y="15.0" width="1.0" height="1.0" rx="0.5"></rect><rect x="5  " y="15.0" width="1.0" height="1.0" rx="0.5"></rect><rect x="7  " y="15.0" width="1.0" height="1.0" rx="0.5"></rect><rect x="8  " y="15.0" width="1.0" height="1.0" rx="0.5"></rect><rect x="9  " y="15.0" width="1.0" height="1.0" rx="0.5"></rect><rect x="11 " y="15.0" width="1.0" height="1.0" rx="0.5"></rect><rect x="12 " y="15.0" width="1.0" height="1.0" rx="0.5"></rect><rect x="14 " y="15.0" width="1.0" height="1.0" rx="0.5"></rect><rect x="15 " y="15.0" width="1.0" height="1.0" rx="0.5"></rect><rect x="16 " y="15.0" width="1.0" height="1.0" rx="0.5"></rect><rect x="18 " y="15.0" width="1.0" height="1.0" rx="0.5"></rect><rect x="19 " y="15.0" width="1.0" height="1.0" rx="0.5"></rect><rect x="20 " y="15.0" width="1.0" height="1.0" rx="0.5"></rect><rect x="22 " y="15.0" width="1.0" height="1.0" rx="0.5"></rect><rect x="23 " y="15.0" width="1.0" height="1.0" rx="0.5"></rect><rect x="3  " y="16.0" width="1.0" height="1.0" rx="0.5"></rect><rect x="6  " y="16.0" width="1.0" height="1.0" rx="0.5"></rect><rect x="13 " y="16.0" width="1.0" height="1.0" rx="0.5"></rect><rect x="14 " y="16.0" width="1.0" height="1.0" rx="0.5"></rect><rect x="16 " y="16.0" width="1.0" height="1.0" rx="0.5"></rect><rect x="18 " y="16.0" width="1.0" height="1.0" rx="0.5"></rect><rect x="20 " y="16.0" width="1.0" height="1.0" rx="0.5"></rect><rect x="21 " y="16.0" width="1.0" height="1.0" rx="0.5"></rect><rect x="22 " y="16.0" width="1.0" height="1.0" rx="0.5"></rect><rect x="28 " y="16.0" width="1.0" height="1.0" rx="0.5"></rect><rect x="3  " y="17.0" width="1.0" height="1.0" rx="0.5"></rect><rect x="5  " y="17.0" width="1.0" height="1.0" rx="0.5"></rect><rect x="7  " y="17.0" width="1.0" height="1.0" rx="0.5"></rect><rect x="13 " y="17.0" width="1.0" height="1.0" rx="0.5"></rect><rect x="14 " y="17.0" width="1.0" height="1.0" rx="0.5"></rect><rect x="17 " y="17.0" width="1.0" height="1.0" rx="0.5"></rect><rect x="19 " y="17.0" width="1.0" height="1.0" rx="0.5"></rect><rect x="22 " y="17.0" width="1.0" height="1.0" rx="0.5"></rect><rect x="23 " y="17.0" width="1.0" height="1.0" rx="0.5"></rect><rect x="26 " y="17.0" width="1.0" height="1.0" rx="0.5"></rect><rect x="27 " y="17.0" width="1.0" height="1.0" rx="0.5"></rect><rect x="28 " y="17.0" width="1.0" height="1.0" rx="0.5"></rect><rect x="0  " y="18.0" width="1.0" height="1.0" rx="0.5"></rect><rect x="1  " y="18.0" width="1.0" height="1.0" rx="0.5"></rect><rect x="2  " y="18.0" width="1.0" height="1.0" rx="0.5"></rect><rect x="3  " y="18.0" width="1.0" height="1.0" rx="0.5"></rect><rect x="5  " y="18.0" width="1.0" height="1.0" rx="0.5"></rect><rect x="6  " y="18.0" width="1.0" height="1.0" rx="0.5"></rect><rect x="9  " y="18.0" width="1.0" height="1.0" rx="0.5"></rect><rect x="11 " y="18.0" width="1.0" height="1.0" rx="0.5"></rect><rect x="15 " y="18.0" width="1.0" height="1.0" rx="0.5"></rect><rect x="16 " y="18.0" width="1.0" height="1.0" rx="0.5"></rect><rect x="19 " y="18.0" width="1.0" height="1.0" rx="0.5"></rect><rect x="24 " y="18.0" width="1.0" height="1.0" rx="0.5"></rect><rect x="25 " y="18.0" width="1.0" height="1.0" rx="0.5"></rect><rect x="28 " y="18.0" width="1.0" height="1.0" rx="0.5"></rect><rect x="3  " y="19.0" width="1.0" height="1.0" rx="0.5"></rect><rect x="5  " y="19.0" width="1.0" height="1.0" rx="0.5"></rect><rect x="7  " y="19.0" width="1.0" height="1.0" rx="0.5"></rect><rect x="8  " y="19.0" width="1.0" height="1.0" rx="0.5"></rect><rect x="10 " y="19.0" width="1.0" height="1.0" rx="0.5"></rect><rect x="13 " y="19.0" width="1.0" height="1.0" rx="0.5"></rect><rect x="15 " y="19.0" width="1.0" height="1.0" rx="0.5"></rect><rect x="16 " y="19.0" width="1.0" height="1.0" rx="0.5"></rect><rect x="18 " y="19.0" width="1.0" height="1.0" rx="0.5"></rect><rect x="20 " y="19.0" width="1.0" height="1.0" rx="0.5"></rect><rect x="22 " y="19.0" width="1.0" height="1.0" rx="0.5"></rect><rect x="24 " y="19.0" width="1.0" height="1.0" rx="0.5"></rect><rect x="0  " y="20.0" width="1.0" height="1.0" rx="0.5"></rect><rect x="1  " y="20.0" width="1.0" height="1.0" rx="0.5"></rect><rect x="3  " y="20.0" width="1.0" height="1.0" rx="0.5"></rect><rect x="4  " y="20.0" width="1.0" height="1.0" rx="0.5"></rect><rect x="6  " y="20.0" width="1.0" height="1.0" rx="0.5"></rect><rect x="7  " y="20.0" width="1.0" height="1.0" rx="0.5"></rect><rect x="9  " y="20.0" width="1.0" height="1.0" rx="0.5"></rect><rect x="10 " y="20.0" width="1.0" height="1.0" rx="0.5"></rect><rect x="11 " y="20.0" width="1.0" height="1.0" rx="0.5"></rect><rect x="12 " y="20.0" width="1.0" height="1.0" rx="0.5"></rect><rect x="13 " y="20.0" width="1.0" height="1.0" rx="0.5"></rect><rect x="16 " y="20.0" width="1.0" height="1.0" rx="0.5"></rect><rect x="17 " y="20.0" width="1.0" height="1.0" rx="0.5"></rect><rect x="20 " y="20.0" width="1.0" height="1.0" rx="0.5"></rect><rect x="21 " y="20.0" width="1.0" height="1.0" rx="0.5"></rect><rect x="22 " y="20.0" width="1.0" height="1.0" rx="0.5"></rect><rect x="23 " y="20.0" width="1.0" height="1.0" rx="0.5"></rect><rect x="24 " y="20.0" width="1.0" height="1.0" rx="0.5"></rect><rect x="25 " y="20.0" width="1.0" height="1.0" rx="0.5"></rect><rect x="27 " y="20.0" width="1.0" height="1.0" rx="0.5"></rect><rect x="8  " y="21.0" width="1.0" height="1.0" rx="0.5"></rect><rect x="9  " y="21.0" width="1.0" height="1.0" rx="0.5"></rect><rect x="10 " y="21.0" width="1.0" height="1.0" rx="0.5"></rect><rect x="12 " y="21.0" width="1.0" height="1.0" rx="0.5"></rect><rect x="15 " y="21.0" width="1.0" height="1.0" rx="0.5"></rect><rect x="16 " y="21.0" width="1.0" height="1.0" rx="0.5"></rect><rect x="18 " y="21.0" width="1.0" height="1.0" rx="0.5"></rect><rect x="20 " y="21.0" width="1.0" height="1.0" rx="0.5"></rect><rect x="24 " y="21.0" width="1.0" height="1.0" rx="0.5"></rect><rect x="25 " y="21.0" width="1.0" height="1.0" rx="0.5"></rect><rect x="26 " y="21.0" width="1.0" height="1.0" rx="0.5"></rect><rect x="28 " y="21.0" width="1.0" height="1.0" rx="0.5"></rect><rect x="8  " y="0.0" width="1.0" height="1.0" rx="0.5"></rect><rect x="11 " y="0.0" width="1.0" height="1.0" rx="0.5"></rect><rect x="12 " y="0.0" width="1.0" height="1.0" rx="0.5"></rect><rect x="15 " y="0.0" width="1.0" height="1.0" rx="0.5"></rect><rect x="16 " y="0.0" width="1.0" height="1.0" rx="0.5"></rect><rect x="19 " y="0.0" width="1.0" height="1.0" rx="0.5"></rect><rect x="8  " y="1.0" width="1.0" height="1.0" rx="0.5"></rect><rect x="9  " y="1.0" width="1.0" height="1.0" rx="0.5"></rect><rect x="10 " y="1.0" width="1.0" height="1.0" rx="0.5"></rect><rect x="12 " y="1.0" width="1.0" height="1.0" rx="0.5"></rect><rect x="13 " y="1.0" width="1.0" height="1.0" rx="0.5"></rect><rect x="14 " y="1.0" width="1.0" height="1.0" rx="0.5"></rect><rect x="16 " y="1.0" width="1.0" height="1.0" rx="0.5"></rect><rect x="17 " y="1.0" width="1.0" height="1.0" rx="0.5"></rect><rect x="20 " y="1.0" width="1.0" height="1.0" rx="0.5"></rect><rect x="10 " y="2.0" width="1.0" height="1.0" rx="0.5"></rect><rect x="11 " y="2.0" width="1.0" height="1.0" rx="0.5"></rect><rect x="12 " y="2.0" width="1.0" height="1.0" rx="0.5"></rect><rect x="14 " y="2.0" width="1.0" height="1.0" rx="0.5"></rect><rect x="15 " y="2.0" width="1.0" height="1.0" rx="0.5"></rect><rect x="16 " y="2.0" width="1.0" height="1.0" rx="0.5"></rect><rect x="17 " y="2.0" width="1.0" height="1.0" rx="0.5"></rect><rect x="18 " y="2.0" width="1.0" height="1.0" rx="0.5"></rect><rect x="19 " y="2.0" width="1.0" height="1.0" rx="0.5"></rect><rect x="10 " y="3.0" width="1.0" height="1.0" rx="0.5"></rect><rect x="14 " y="3.0" width="1.0" height="1.0" rx="0.5"></rect><rect x="17 " y="3.0" width="1.0" height="1.0" rx="0.5"></rect><rect x="18 " y="3.0" width="1.0" height="1.0" rx="0.5"></rect><rect x="20 " y="3.0" width="1.0" height="1.0" rx="0.5"></rect><rect x="8  " y="4.0" width="1.0" height="1.0" rx="0.5"></rect><rect x="9  " y="4.0" width="1.0" height="1.0" rx="0.5"></rect><rect x="10 " y="4.0" width="1.0" height="1.0" rx="0.5"></rect><rect x="11 " y="4.0" width="1.0" height="1.0" rx="0.5"></rect><rect x="13 " y="4.0" width="1.0" height="1.0" rx="0.5"></rect><rect x="14 " y="4.0" width="1.0" height="1.0" rx="0.5"></rect><rect x="15 " y="4.0" width="1.0" height="1.0" rx="0.5"></rect><rect x="17 " y="4.0" width="1.0" height="1.0" rx="0.5"></rect><rect x="18 " y="4.0" width="1.0" height="1.0" rx="0.5"></rect><rect x="8  " y="5.0" width="1.0" height="1.0" rx="0.5"></rect><rect x="11 " y="5.0" width="1.0" height="1.0" rx="0.5"></rect><rect x="15 " y="5.0" width="1.0" height="1.0" rx="0.5"></rect><rect x="18 " y="5.0" width="1.0" height="1.0" rx="0.5"></rect><rect x="8  " y="6.0" width="1.0" height="1.0" rx="0.5"></rect><rect x="10 " y="6.0" width="1.0" height="1.0" rx="0.5"></rect><rect x="12 " y="6.0" width="1.0" height="1.0" rx="0.5"></rect><rect x="14 " y="6.0" width="1.0" height="1.0" rx="0.5"></rect><rect x="16 " y="6.0" width="1.0" height="1.0" rx="0.5"></rect><rect x="18 " y="6.0" width="1.0" height="1.0" rx="0.5"></rect><rect x="20 " y="6.0" width="1.0" height="1.0" rx="0.5"></rect><rect x="10 " y="22.0" width="1.0" height="1.0" rx="0.5"></rect><rect x="12 " y="22.0" width="1.0" height="1.0" rx="0.5"></rect><rect x="13 " y="22.0" width="1.0" height="1.0" rx="0.5"></rect><rect x="14 " y="22.0" width="1.0" height="1.0" rx="0.5"></rect><rect x="15 " y="22.0" width="1.0" height="1.0" rx="0.5"></rect><rect x="17 " y="22.0" width="1.0" height="1.0" rx="0.5"></rect><rect x="18 " y="22.0" width="1.0" height="1.0" rx="0.5"></rect><rect x="20 " y="22.0" width="1.0" height="1.0" rx="0.5"></rect><rect x="22 " y="22.0" width="1.0" height="1.0" rx="0.5"></rect><rect x="24 " y="22.0" width="1.0" height="1.0" rx="0.5"></rect><rect x="28 " y="22.0" width="1.0" height="1.0" rx="0.5"></rect><rect x="8  " y="23.0" width="1.0" height="1.0" rx="0.5"></rect><rect x="9  " y="23.0" width="1.0" height="1.0" rx="0.5"></rect><rect x="10 " y="23.0" width="1.0" height="1.0" rx="0.5"></rect><rect x="11 " y="23.0" width="1.0" height="1.0" rx="0.5"></rect><rect x="12 " y="23.0" width="1.0" height="1.0" rx="0.5"></rect><rect x="14 " y="23.0" width="1.0" height="1.0" rx="0.5"></rect><rect x="16 " y="23.0" width="1.0" height="1.0" rx="0.5"></rect><rect x="18 " y="23.0" width="1.0" height="1.0" rx="0.5"></rect><rect x="19 " y="23.0" width="1.0" height="1.0" rx="0.5"></rect><rect x="20 " y="23.0" width="1.0" height="1.0" rx="0.5"></rect><rect x="24 " y="23.0" width="1.0" height="1.0" rx="0.5"></rect><rect x="9  " y="24.0" width="1.0" height="1.0" rx="0.5"></rect><rect x="13 " y="24.0" width="1.0" height="1.0" rx="0.5"></rect><rect x="14 " y="24.0" width="1.0" height="1.0" rx="0.5"></rect><rect x="15 " y="24.0" width="1.0" height="1.0" rx="0.5"></rect><rect x="16 " y="24.0" width="1.0" height="1.0" rx="0.5"></rect><rect x="17 " y="24.0" width="1.0" height="1.0" rx="0.5"></rect><rect x="19 " y="24.0" width="1.0" height="1.0" rx="0.5"></rect><rect x="20 " y="24.0" width="1.0" height="1.0" rx="0.5"></rect><rect x="21 " y="24.0" width="1.0" height="1.0" rx="0.5"></rect><rect x="22 " y="24.0" width="1.0" height="1.0" rx="0.5"></rect><rect x="23 " y="24.0" width="1.0" height="1.0" rx="0.5"></rect><rect x="24 " y="24.0" width="1.0" height="1.0" rx="0.5"></rect><rect x="25 " y="24.0" width="1.0" height="1.0" rx="0.5"></rect><rect x="27 " y="24.0" width="1.0" height="1.0" rx="0.5"></rect><rect x="28 " y="24.0" width="1.0" height="1.0" rx="0.5"></rect><rect x="9  " y="25.0" width="1.0" height="1.0" rx="0.5"></rect><rect x="10 " y="25.0" width="1.0" height="1.0" rx="0.5"></rect><rect x="13 " y="25.0" width="1.0" height="1.0" rx="0.5"></rect><rect x="14 " y="25.0" width="1.0" height="1.0" rx="0.5"></rect><rect x="15 " y="25.0" width="1.0" height="1.0" rx="0.5"></rect><rect x="16 " y="25.0" width="1.0" height="1.0" rx="0.5"></rect><rect x="18 " y="25.0" width="1.0" height="1.0" rx="0.5"></rect><rect x="19 " y="25.0" width="1.0" height="1.0" rx="0.5"></rect><rect x="20 " y="25.0" width="1.0" height="1.0" rx="0.5"></rect><rect x="21 " y="25.0" width="1.0" height="1.0" rx="0.5"></rect><rect x="24 " y="25.0" width="1.0" height="1.0" rx="0.5"></rect><rect x="25 " y="25.0" width="1.0" height="1.0" rx="0.5"></rect><rect x="26 " y="25.0" width="1.0" height="1.0" rx="0.5"></rect><rect x="28 " y="25.0" width="1.0" height="1.0" rx="0.5"></rect><rect x="8  " y="26.0" width="1.0" height="1.0" rx="0.5"></rect><rect x="10 " y="26.0" width="1.0" height="1.0" rx="0.5"></rect><rect x="11 " y="26.0" width="1.0" height="1.0" rx="0.5"></rect><rect x="15 " y="26.0" width="1.0" height="1.0" rx="0.5"></rect><rect x="18 " y="26.0" width="1.0" height="1.0" rx="0.5"></rect><rect x="21 " y="26.0" width="1.0" height="1.0" rx="0.5"></rect><rect x="24 " y="26.0" width="1.0" height="1.0" rx="0.5"></rect><rect x="27 " y="26.0" width="1.0" height="1.0" rx="0.5"></rect><rect x="28 " y="26.0" width="1.0" height="1.0" rx="0.5"></rect><rect x="8  " y="27.0" width="1.0" height="1.0" rx="0.5"></rect><rect x="9  " y="27.0" width="1.0" height="1.0" rx="0.5"></rect><rect x="10 " y="27.0" width="1.0" height="1.0" rx="0.5"></rect><rect x="13 " y="27.0" width="1.0" height="1.0" rx="0.5"></rect><rect x="15 " y="27.0" width="1.0" height="1.0" rx="0.5"></rect><rect x="16 " y="27.0" width="1.0" height="1.0" rx="0.5"></rect><rect x="20 " y="27.0" width="1.0" height="1.0" rx="0.5"></rect><rect x="23 " y="27.0" width="1.0" height="1.0" rx="0.5"></rect><rect x="24 " y="27.0" width="1.0" height="1.0" rx="0.5"></rect><rect x="25 " y="27.0" width="1.0" height="1.0" rx="0.5"></rect><rect x="8  " y="28.0" width="1.0" height="1.0" rx="0.5"></rect><rect x="10 " y="28.0" width="1.0" height="1.0" rx="0.5"></rect><rect x="11 " y="28.0" width="1.0" height="1.0" rx="0.5"></rect><rect x="12 " y="28.0" width="1.0" height="1.0" rx="0.5"></rect><rect x="13 " y="28.0" width="1.0" height="1.0" rx="0.5"></rect><rect x="15 " y="28.0" width="1.0" height="1.0" rx="0.5"></rect><rect x="16 " y="28.0" width="1.0" height="1.0" rx="0.5"></rect><rect x="20 " y="28.0" width="1.0" height="1.0" rx="0.5"></rect><rect x="24 " y="28.0" width="1.0" height="1.0" rx="0.5"></rect><rect x="25 " y="28.0" width="1.0" height="1.0" rx="0.5"></rect><rect x="28 " y="28.0" width="1.0" height="1.0" rx="0.5"></rect></g><g class="qrRounded qrAlPatterns"><g class="qrDark" fill="#98971a"><rect x="0" y="0" width="7.0" height="7.0" rx="3.5"></rect><rect x="22" y="0" width="7.0" height="7.0" rx="3.5"></rect><rect x="0" y="22" width="7.0" height="7.0" rx="3.5"></rect></g><g class="qrLight" fill="#1d2021"><rect x="1" y="1" width="5.0" height="5.0" rx="2.5"></rect><rect x="23" y="1" width="5.0" height="5.0" rx="2.5"></rect><rect x="1" y="23" width="5.0" height="5.0" rx="2.5"></rect></g><g class="qrDark" fill="#98971a"><rect x="2" y="2" width="3.0" height="3.0" rx="1.5"></rect><rect x="24" y="2" width="3.0" height="3.0" rx="1.5"></rect><rect x="2" y="24" width="3.0" height="3.0" rx="1.5"></rect></g></g></svg>