<svg class="qrCode" id="" version="1.1" xmlns="http://www.w3.org/2000/svg" viewBox="-5 -5 39 39"><path class="qrLight" fill="#1d2021" d="M-5,-5h39v39h-39Z"></path><g fill="#98971a" class="qrDark qrRounded qrModules"><rect x="8.2" y="7.199999809265137" width="0.6000000238418579" height="0.6000000238418579" rx="0.300000011920929"></rect><rect x="10.2" y="7.199999809265137" width="0.6000000238418579" height="0.6000000238418579" rx="0.300000011920929"></rect><rect x="11.2" y="7.199999809265137" width="0.6000000238418579" height="0.6000000238418579" rx="0.300000011920929"></rect><rect x="12.2" y="7.199999809265137" width="0.6000000238418579" height="0.6000000238418579" rx="0.300000011920929"></rect><rect x="14.2" y="7.199999809265137" width="0.6000000238418579" height="0.6000000238418579" rx="0.300000011920929"></rect><rect x="15.2" y="7.199999809265137" width="0.6000000238418579" height="0.6000000238418579" rx="0.300000011920929"></rect><rect x="16.2" y="7.199999809265137" width="0.6000000238418579" height="0.6000000238418579" rx="0.300000011920929"></rect><rect x="18.2" y="7.199999809265137" width="0.6000000238418579" height="0.6000000238418579" rx="0.300000011920929"></rect><rect x="19.2" y="7.199999809265137" width="0.6000000238418579" height="0.6000000238418579" rx="0.300000011920929"></rect><rect x="0.2" y="8.199999809265137" width="0.6000000238418579" height="0.6000000238418579" rx="0.300000011920929"></rect><rect x="1.2" y="8.199999809265137" width="0.6000000238418579" height="0.6000000238418579" rx="0.300000011920929"></rect><rect x="2.2" y="8.199999809265137" width="0.6000000238418579" height="0.6000000238418579" rx="0.300000011920929"></rect><rect x="5.2" y="8.199999809265137" width="0.6000000238418579" height="0.6000000238418579" rx="0.300000011920929"></rect><rect x="6.2" y="8.199999809265137" width="0.6000000238418579" height="0.6000000238418579" rx="0.300000011920929"></rect><rect x="8.2" y="8.199999809265137" width="0.6000000238418579" height="0.6000000238418579" rx="0.300000011920929"></rect><rect x="9.2" y="8.199999809265137" width="0.6000000238418579" height="0.6000000238418579" rx="0.300000011920929"></rect><rect x="10.2" y="8.199999809265137" width="0.6000000238418579" height="0.6000000238418579" rx="0.300000011920929"></rect><rect x="13.2" y="8.199999809265137" width="0.6000000238418579" height="0.6000000238418579" rx="0.300000011920929"></rect><rect x="14.2" y="8.199999809265137" width="0.6000000238418579" height="0.6000000238418579" rx="0.300000011920929"></rect><rect x="19.2" y="8.199999809265137" width="0.6000000238418579" height="0.6000000238418579" rx="0.300000011920929"></rect><rect x="21.2" y="8.199999809265137" width="0.6000000238418579" height="0.6000000238418579" rx="0.300000011920929"></rect><rect x="22.2" y="8.199999809265137" width="0.6000000238418579" height="0.6000000238418579" rx="0.300000011920929"></rect><rect x="23.2" y="8.199999809265137" width="0.6000000238418579" height="0.6000000238418579" rx="0.300000011920929"></rect><rect x="24.2" y="8.199999809265137" width="0.6000000238418579" height="0.6000000238418579" rx="0.300000011920929"></rect><rect x="27.2" y="8.199999809265137" width="0.6000000238418579" height="0.6000000238418579" rx="0.300000011920929"></rect><rect x="28.2" y="8.199999809265137" width="0.6000000238418579" height="0.6000000238418579" rx="0.300000011920929"></rect><rect x="1.2" y="9.199999809265137" width="0.6000000238418579" height="0.6000000238418579" rx="0.300000011920929"></rect><rect x="3.2" y="9.199999809265137" width="0.6000000238418579" height="0.6000000238418579" rx="0.300000011920929"></rect><rect x="4.2" y="9.199999809265137" width="0.6000000238418579" height="0.6000000238418579" rx="0.300000011920929"></rect><rect x="5.2" y="9.199999809265137" width="0.6000000238418579" height="0.6000000238418579" rx="0.300000011920929"></rect><rect x="7.2" y="9.199999809265137" width="0.6000000238418579" height="0.6000000238418579" rx="0.300000011920929"></rect><rect x="8.2" y="9.199999809265137" width="0.6000000238418579" height="0.6000000238418579" rx="0.300000011920929"></rect><rect x="9.2" y="9.199999809265137" width="0.6000000238418579" height="0.6000000238418579" rx="0.300000011920929"></rect><rect x="10.2" y="9.199999809265137" width="0.6000000238418579" height="0.6000000238418579" rx="0.300000011920929"></rect><rect x="13.2" y="9.199999809265137" width="0.6000000238418579" height="0.6000000238418579" rx="0.300000011920929"></rect><rect x="14.2" y="9.199999809265137" width="0.6000000238418579" height="0.6000000238418579" rx="0.300000011920929"></rect><rect x="18.2" y="9.199999809265137" width="0.6000000238418579" height="0.6000000238418579" rx="0.300000011920929"></rect><rect x="19.2" y="9.199999809265137" width="0.6000000238418579" height="0.6000000238418579" rx="0.300000011920929"></rect><rect x="20.2" y="9.199999809265137" width="0.6000000238418579" height="0.6000000238418579" rx="0.300000011920929"></rect><rect x="21.2" y="9.199999809265137" width="0.6000000238418579" height="0.6000000238418579" rx="0.300000011920929"></rect><rect x="22.2" y="9.199999809265137" width="0.6000000238418579" height="0.6000000238418579" rx="0.300000011920929"></rect><rect x="23.2" y="9.199999809265137" width="0.6000000238418579" height="0.6000000238418579" rx="0.300000011920929"></rect><rect x="27.2" y="9.199999809265137" width="0.6000000238418579" height="0.6000000238418579" rx="0.300000011920929"></rect><rect x="28.2" y="9.199999809265137" width="0.6000000238418579" height="0.6000000238418579" rx="0.300000011920929"></rect><rect x="0.2" y="10.19999980926514" width="0.6000000238418579" height="0.6000000238418579" rx="0.300000011920929"></rect><rect x="1.2" y="10.19999980926514" width="0.6000000238418579" height="0.6000000238418579" rx="0.300000011920929"></rect><rect x="3.2" y="10.19999980926514" width="0.6000000238418579" height="0.6000000238418579" rx="0.300000011920929"></rect><rect x="6.2" y="10.19999980926514" width="0.6000000238418579" height="0.6000000238418579" rx="0.300000011920929"></rect><rect x="8.2" y="10.19999980926514" width="0.6000000238418579" height="0.6000000238418579" rx="0.300000011920929"></rect><rect x="11.2" y="10.19999980926514" width="0.6000000238418579" height="0.6000000238418579" rx="0.300000011920929"></rect><rect x="15.2" y="10.19999980926514" width="0.6000000238418579" height="0.6000000238418579" rx="0.300000011920929"></rect><rect x="17.2" y="10.19999980926514" width="0.6000000238418579" height="0.6000000238418579" rx="0.300000011920929"></rect><rect x="19.2" y="10.19999980926514" width="0.6000000238418579" height="0.6000000238418579" rx="0.300000011920929"></rect><rect x="22.2" y="10.19999980926514" width="0.6000000238418579" height="0.6000000238418579" rx="0.300000011920929"></rect><rect x="23.2" y="10.19999980926514" width="0.6000000238418579" height="0.6000000238418579" rx="0.300000011920929"></rect><rect x="24.2" y="10.19999980926514" width="0.6000000238418579" height="0.6000000238418579" rx="0.300000011920929"></rect><rect x="25.2" y="10.19999980926514" width="0.6000000238418579" height="0.6000000238418579" rx="0.300000011920929"></rect><rect x="26.2" y="10.19999980926514" width="0.6000000238418579" height="0.6000000238418579" rx="0.300000011920929"></rect><rect x="28.2" y="10.19999980926514" width="0.6000000238418579" height="0.6000000238418579" rx="0.300000011920929"></rect><rect x="1.2" y="11.19999980926514" width="0.6000000238418579" height="0.6000000238418579" rx="0.300000011920929"></rect><rect x="2.2" y="11.19999980926514" width="0.6000000238418579" height="0.6000000238418579" rx="0.300000011920929"></rect><rect x="4.2" y="11.19999980926514" width="0.6000000238418579" height="0.6000000238418579" rx="0.300000011920929"></rect><rect x="5.2" y="11.19999980926514" width="0.6000000238418579" height="0.6000000238418579" rx="0.300000011920929"></rect><rect x="7.2" y="11.19999980926514" width="0.6000000238418579" height="0.6000000238418579" rx="0.300000011920929"></rect><rect x="8.2" y="11.19999980926514" width="0.6000000238418579" height="0.6000000238418579" rx="0.300000011920929"></rect><rect x="9.2" y="11.19999980926514" width="0.6000000238418579" height="0.6000000238418579" rx="0.300000011920929"></rect><rect x="13.2" y="11.19999980926514" width="0.6000000238418579" height="0.6000000238418579" rx="0.300000011920929"></rect><rect x="21.2" y="11.19999980926514" width="0.6000000238418579" height="0.6000000238418579" rx="0.300000011920929"></rect><rect x="24.2" y="11.19999980926514" width="0.6000000238418579" height="0.6000000238418579" rx="0.300000011920929"></rect><rect x="25.2" y="11.19999980926514" width="0.6000000238418579" height="0.6000000238418579" rx="0.300000011920929"></rect><rect x="0.2" y="12.19999980926514" width="0.6000000238418579" height="0.6000000238418579" rx="0.300000011920929"></rect><rect x="2.2" y="12.19999980926514" width="0.6000000238418579" height="0.6000000238418579" rx="0.300000011920929"></rect><rect x="3.2" y="12.19999980926514" width="0.6000000238418579" height="0.6000000238418579" rx="0.300000011920929"></rect><rect x="4.2" y="12.19999980926514" width="0.6000000238418579" height="0.6000000238418579" rx="0.300000011920929"></rect><rect x="5.2" y="12.19999980926514" width="0.6000000238418579" height="0.6000000238418579" rx="0.300000011920929"></rect><rect x="6.2" y="12.19999980926514" width="0.6000000238418579" height="0.6000000238418579" rx="0.300000011920929"></rect><rect x="7.2" y="12.19999980926514" width="0.6000000238418579" height="0.6000000238418579" rx="0.300000011920929"></rect><rect x="9.2" y="12.19999980926514" width="0.6000000238418579" height="0.6000000238418579" rx="0.300000011920929"></rect><rect x="11.2" y="12.19999980926514" width="0.6000000238418579" height="0.6000000238418579" rx="0.300000011920929"></rect><rect x="12.2" y="12.19999980926514" width="0.6000000238418579" height="0.6000000238418579" rx="0.300000011920929"></rect><rect x="13.2" y="12.19999980926514" width="0.6000000238418579" height="0.6000000238418579" rx="0.300000011920929"></rect><rect x="15.2" y="12.19999980926514" width="0.6000000238418579" height="0.6000000238418579" rx="0.300000011920929"></rect><rect x="16.2" y="12.19999980926514" width="0.6000000238418579" height="0.6000000238418579" rx="0.300000011920929"></rect><rect x="19.2" y="12.19999980926514" width="0.6000000238418579" height="0.6000000238418579" rx="0.300000011920929"></rect><rect x="20.2" y="12.19999980926514" width="0.6000000238418579" height="0.6000000238418579" rx="0.300000011920929"></rect><rect x="22.2" y="12.19999980926514" width="0.6000000238418579" height="0.6000000238418579" rx="0.300000011920929"></rect><rect x="23.2" y="12.19999980926514" width="0.6000000238418579" height="0.6000000238418579" rx="0.300000011920929"></rect><rect x="28.2" y="12.19999980926514" width="0.6000000238418579" height="0.6000000238418579" rx="0.300000011920929"></rect><rect x="3.2" y="13.19999980926514" width="0.6000000238418579" height="0.6000000238418579" rx="0.300000011920929"></rect><rect x="5.2" y="13.19999980926514" width="0.6000000238418579" height="0.6000000238418579" rx="0.300000011920929"></rect><rect x="8.2" y="13.19999980926514" width="0.6000000238418579" height="0.6000000238418579" rx="0.300000011920929"></rect><rect x="12.2" y="13.19999980926514" width="0.6000000238418579" height="0.6000000238418579" rx="0.300000011920929"></rect><rect x="16.2" y="13.19999980926514" width="0.6000000238418579" height="0.6000000238418579" rx="0.300000011920929"></rect><rect x="19.2" y="13.19999980926514" width="0.6000000238418579" height="0.6000000238418579" rx="0.300000011920929"></rect><rect x="20.2" y="13.19999980926514" width="0.6000000238418579" height="0.6000000238418579" rx="0.300000011920929"></rect><rect x="22.2" y="13.19999980926514" width="0.6000000238418579" height="0.6000000238418579" rx="0.300000011920929"></rect><rect x="23.2" y="13.19999980926514" width="0.6000000238418579" height="0.6000000238418579" rx="0.300000011920929"></rect><rect x="27.2" y="13.19999980926514" width="0.6000000238418579" height="0.6000000238418579" rx="0.300000011920929"></rect><rect x="28.2" y="13.19999980926514" width="0.6000000238418579" height="0.6000000238418579" rx="0.300000011920929"></rect><rect x="2.2" y="14.19999980926514" width="0.6000000238418579" height="0.6000000238418579" rx="0.300000011920929"></rect><rect x="5.2" y="14.19999980926514" width="0.6000000238418579" height="0.6000000238418579" rx="0.300000011920929"></rect><rect x="6.2" y="14.19999980926514" width="0.6000000238418579" height="0.6000000238418579" rx="0.300000011920929"></rect><rect x="7.2" y="14.19999980926514" width="0.6000000238418579" height="0.6000000238418579" rx="0.300000011920929"></rect><rect x="12.2" y="14.19999980926514" width="0.6000000238418579" height="0.6000000238418579" rx="0.300000011920929"></rect><rect x="13.2" y="14.19999980926514" width="0.6000000238418579" height="0.6000000238418579" rx="0.300000011920929"></rect><rect x="14.2" y="14.19999980926514" width="0.6000000238418579" height="0.6000000238418579" rx="0.300000011920929"></rect><rect x="16.2" y="14.19999980926514" width="0.6000000238418579" height="0.6000000238418579" rx="0.300000011920929"></rect><rect x="17.2" y="14.19999980926514" width="0.6000000238418579" height="0.6000000238418579" rx="0.300000011920929"></rect><rect x="18.2" y="14.19999980926514" width="0.6000000238418579" height="0.6000000238418579" rx="0.300000011920929"></rect><rect x="19.2" y="14.19999980926514" width="0.6000000238418579" height="0.6000000238418579" rx="0.300000011920929"></rect><rect x="21.2" y="14.19999980926514" width="0.6000000238418579" height="0.6000000238418579" rx="0.300000011920929"></rect><rect x="22.2" y="14.19999980926514" width="0.6000000238418579" height="0.6000000238418579" rx="0.300000011920929"></rect><rect x="23.2" y="14.19999980926514" width="0.6000000238418579" height="0.6000000238418579" rx="0.300000011920929"></rect><rect x="24.2" y="14.19999980926514" width="0.6000000238418579" height="0.6000000238418579" rx="0.300000011920929"></rect><rect x="28.2" y="14.19999980926514" width="0.6000000238418579" height="0.6000000238418579" rx="0.300000011920929"></rect><rect x="0.2" y="15.19999980926514" width="0.6000000238418579" height="0.6000000238418579" rx="0.300000011920929"></rect><rect x="4.2" y="15.19999980926514" width="0.6000000238418579" height="0.6000000238418579" rx="0.300000011920929"></rect><rect x="5.2" y="15.19999980926514" width="0.6000000238418579" height="0.6000000238418579" rx="0.300000011920929"></rect><rect x="7.2" y="15.19999980926514" width="0.6000000238418579" height="0.6000000238418579" rx="0.300000011920929"></rect><rect x="8.2" y="15.19999980926514" width="0.6000000238418579" height="0.6000000238418579" rx="0.300000011920929"></rect><rect x="9.2" y="15.19999980926514" width="0.6000000238418579" height="0.6000000238418579" rx="0.300000011920929"></rect><rect x="11.2" y="15.19999980926514" width="0.6000000238418579" height="0.6000000238418579" rx="0.300000011920929"></rect><rect x="12.2" y="15.19999980926514" width="0.6000000238418579" height="0.6000000238418579" rx="0.300000011920929"></rect><rect x="14.2" y="15.19999980926514" width="0.6000000238418579" height="0.6000000238418579" rx="0.300000011920929"></rect><rect x="15.2" y="15.19999980926514" width="0.6000000238418579" height="0.6000000238418579" rx="0.300000011920929"></rect><rect x="16.2" y="15.19999980926514" width="0.6000000238418579" height="0.6000000238418579" rx="0.300000011920929"></rect><rect x="18.2" y="15.19999980926514" width="0.6000000238418579" height="0.6000000238418579" rx="0.300000011920929"></rect><rect x="19.2" y="15.19999980926514" width="0.6000000238418579" height="0.6000000238418579" rx="0.300000011920929"></rect><rect x="20.2" y="15.19999980926514" width="0.6000000238418579" height="0.6000000238418579" rx="0.300000011920929"></rect><rect x="22.2" y="15.19999980926514" width="0.6000000238418579" height="0.6000000238418579" rx="0.300000011920929"></rect><rect x="23.2" y="15.19999980926514" width="0.6000000238418579" height="0.6000000238418579" rx="0.300000011920929"></rect><rect x="3.2" y="16.20000076293945" width="0.6000000238418579" height="0.6000000238418579" rx="0.300000011920929"></rect><rect x="6.2" y="16.20000076293945" width="0.6000000238418579" height="0.6000000238418579" rx="0.300000011920929"></rect><rect x="13.2" y="16.20000076293945" width="0.6000000238418579" height="0.6000000238418579" rx="0.300000011920929"></rect><rect x="14.2" y="16.20000076293945" width="0.6000000238418579" height="0.6000000238418579" rx="0.300000011920929"></rect><rect x="16.2" y="16.20000076293945" width="0.6000000238418579" height="0.6000000238418579" rx="0.300000011920929"></rect><rect x="18.2" y="16.20000076293945" width="0.6000000238418579" height="0.6000000238418579" rx="0.300000011920929"></rect><rect x="20.2" y="16.20000076293945" width="0.6000000238418579" height="0.6000000238418579" rx="0.300000011920929"></rect><rect x="21.2" y="16.20000076293945" width="0.6000000238418579" height="0.6000000238418579" rx="0.300000011920929"></rect><rect x="22.2" y="16.20000076293945" width="0.6000000238418579" height="0.6000000238418579" rx="0.300000011920929"></rect><rect x="28.2" y="16.20000076293945" width="0.6000000238418579" height="0.6000000238418579" rx="0.300000011920929"></rect><rect x="3.2" y="17.20000076293945" width="0.6000000238418579" height="0.6000000238418579" rx="0.300000011920929"></rect><rect x="5.2" y="17.20000076293945" width="0.6000000238418579" height="0.6000000238418579" rx="0.300000011920929"></rect><rect x="7.2" y="17.20000076293945" width="0.6000000238418579" height="0.6000000238418579" rx="0.300000011920929"></rect><rect x="13.2" y="17.20000076293945" width="0.6000000238418579" height="0.6000000238418579" rx="0.300000011920929"></rect><rect x="14.2" y="17.20000076293945" width="0.6000000238418579" height="0.6000000238418579" rx="0.300000011920929"></rect><rect x="17.2" y="17.20000076293945" width="0.6000000238418579" height="0.6000000238418579" rx="0.300000011920929"></rect><rect x="19.2" y="17.20000076293945" width="0.6000000238418579" height="0.6000000238418579" rx="0.300000011920929"></rect><rect x="22.2" y="17.20000076293945" width="0.6000000238418579" height="0.6000000238418579" rx="0.300000011920929"></rect><rect x="23.2" y="17.20000076293945" width="0.6000000238418579" height="0.6000000238418579" rx="0.300000011920929"></rect><rect x="26.2" y="17.20000076293945" width="0.6000000238418579" height="0.6000000238418579" rx="0.300000011920929"></rect><rect x="27.2" y="17.20000076293945" width="0.6000000238418579" height="0.6000000238418579" rx="0.300000011920929"></rect><rect x="28.2" y="17.20000076293945" width="0.6000000238418579" height="0.6000000238418579" rx="0.300000011920929"></rect><rect x="0.2" y="18.20000076293945" width="0.6000000238418579" height="0.6000000238418579" rx="0.300000011920929"></rect><rect x="1.2" y="18.20000076293945" width="0.6000000238418579" height="0.6000000238418579" rx="0.300000011920929"></rect><rect x="2.2" y="18.20000076293945" width="0.6000000238418579" height="0.6000000238418579" rx="0.300000011920929"></rect><rect x="3.2" y="18.20000076293945" width="0.6000000238418579" height="0.6000000238418579" rx="0.300000011920929"></rect><rect x="5.2" y="18.20000076293945" width="0.6000000238418579" height="0.6000000238418579" rx="0.300000011920929"></rect><rect x="6.2" y="18.20000076293945" width="0.6000000238418579" height="0.6000000238418579" rx="0.300000011920929"></rect><rect x="9.2" y="18.20000076293945" width="0.6000000238418579" height="0.6000000238418579" rx="0.300000011920929"></rect><rect x="11.2" y="18.20000076293945" width="0.6000000238418579" height="0.6000000238418579" rx="0.300000011920929"></rect><rect x="15.2" y="18.20000076293945" width="0.6000000238418579" height="0.6000000238418579" rx="0.300000011920929"></rect><rect x="16.2" y="18.20000076293945" width="0.6000000238418579" height="0.6000000238418579" rx="0.300000011920929"></rect><rect x="19.2" y="18.20000076293945" width="0.6000000238418579" height="0.6000000238418579" rx="0.300000011920929"></rect><rect x="24.2" y="18.20000076293945" width="0.6000000238418579" height="0.6000000238418579" rx="0.300000011920929"></rect><rect x="25.2" y="18.20000076293945" width="0.6000000238418579" height="0.6000000238418579" rx="0.300000011920929"></rect><rect x="28.2" y="18.20000076293945" width="0.6000000238418579" height="0.6000000238418579" rx="0.300000011920929"></rect><rect x="3.2" y="19.20000076293945" width="0.6000000238418579" height="0.6000000238418579" rx="0.300000011920929"></rect><rect x="5.2" y="19.20000076293945" width="0.6000000238418579" height="0.6000000238418579" rx="0.300000011920929"></rect><rect x="7.2" y="19.20000076293945" width="0.6000000238418579" height="0.6000000238418579" rx="0.300000011920929"></rect><rect x="8.2" y="19.20000076293945" width="0.6000000238418579" height="0.6000000238418579" rx="0.300000011920929"></rect><rect x="10.2" y="19.20000076293945" width="0.6000000238418579" height="0.6000000238418579" rx="0.300000011920929"></rect><rect x="13.2" y="19.20000076293945" width="0.6000000238418579" height="0.6000000238418579" rx="0.300000011920929"></rect><rect x="15.2" y="19.20000076293945" width="0.6000000238418579" height="0.6000000238418579" rx="0.300000011920929"></rect><rect x="16.2" y="19.20000076293945" width="0.6000000238418579" height="0.6000000238418579" rx="0.300000011920929"></rect><rect x="18.2" y="19.20000076293945" width="0.6000000238418579" height="0.6000000238418579" rx="0.300000011920929"></rect><rect x="20.2" y="19.20000076293945" width="0.6000000238418579" height="0.6000000238418579" rx="0.300000011920929"></rect><rect x="22.2" y="19.20000076293945" width="0.6000000238418579" height="0.6000000238418579" rx="0.300000011920929"></rect><rect x="24.2" y="19.20000076293945" width="0.6000000238418579" height="0.6000000238418579" rx="0.300000011920929"></rect><rect x="0.2" y="20.20000076293945" width="0.6000000238418579" height="0.6000000238418579" rx="0.300000011920929"></rect><rect x="1.2" y="20.20000076293945" width="0.6000000238418579" height="0.6000000238418579" rx="0.300000011920929"></rect><rect x="3.2" y="20.20000076293945" width="0.6000000238418579" height="0.6000000238418579" rx="0.300000011920929"></rect><rect x="4.2" y="20.20000076293945" width="0.6000000238418579" height="0.6000000238418579" rx="0.300000011920929"></rect><rect x="6.2" y="20.20000076293945" width="0.6000000238418579" height="0.6000000238418579" rx="0.300000011920929"></rect><rect x="7.2" y="20.20000076293945" width="0.6000000238418579" height="0.6000000238418579" rx="0.300000011920929"></rect><rect x="9.2" y="20.20000076293945" width="0.6000000238418579" height="0.6000000238418579" rx="0.300000011920929"></rect><rect x="10.2" y="20.20000076293945" width="0.6000000238418579" height="0.6000000238418579" rx="0.300000011920929"></rect><rect x="11.2" y="20.20000076293945" width="0.6000000238418579" height="0.6000000238418579" rx="0.300000011920929"></rect><rect x="12.2" y="20.20000076293945" width="0.6000000238418579" height="0.6000000238418579" rx="0.300000011920929"></rect><rect x="13.2" y="20.20000076293945" width="0.6000000238418579" height="0.6000000238418579" rx="0.300000011920929"></rect><rect x="16.2" y="20.20000076293945" width="0.6000000238418579" height="0.6000000238418579" rx="0.300000011920929"></rect><rect x="17.2" y="20.20000076293945" width="0.6000000238418579" height="0.6000000238418579" rx="0.300000011920929"></rect><rect x="20.2" y="20.20000076293945" width="0.6000000238418579" height="0.6000000238418579" rx="0.300000011920929"></rect><rect x="21.2" y="20.20000076293945" width="0.6000000238418579" height="0.6000000238418579" rx="0.300000011920929"></rect><rect x="22.2" y="20.20000076293945" width="0.6000000238418579" height="0.6000000238418579" rx="0.300000011920929"></rect><rect x="23.2" y="20.20000076293945" width="0.6000000238418579" height="0.6000000238418579" rx="0.300000011920929"></rect><rect x="24.2" y="20.20000076293945" width="0.6000000238418579" height="0.6000000238418579" rx="0.300000011920929"></rect><rect x="25.2" y="20.20000076293945" width="0.6000000238418579" height="0.6000000238418579" rx="0.300000011920929"></rect><rect x="27.2" y="20.20000076293945" width="0.6000000238418579" height="0.6000000238418579" rx="0.300000011920929"></rect><rect x="8.2" y="21.20000076293945" width="0.6000000238418579" height="0.6000000238418579" rx="0.300000011920929"></rect><rect x="9.2" y="21.20000076293945" width="0.6000000238418579" height="0.6000000238418579" rx="0.300000011920929"></rect><rect x="10.2" y="21.20000076293945" width="0.6000000238418579" height="0.6000000238418579" rx="0.300000011920929"></rect><rect x="12.2" y="21.20000076293945" width="0.6000000238418579" height="0.6000000238418579" rx="0.300000011920929"></rect><rect x="15.2" y="21.20000076293945" width="0.6000000238418579" height="0.6000000238418579" rx="0.300000011920929"></rect><rect x="16.2" y="21.20000076293945" width="0.6000000238418579" height="0.6000000238418579" rx="0.300000011920929"></rect><rect x="18.2" y="21.20000076293945" width="0.6000000238418579" height="0.6000000238418579" rx="0.300000011920929"></rect><rect x="20.2" y="21.20000076293945" width="0.6000000238418579" height="0.6000000238418579" rx="0.300000011920929"></rect><rect x="24.2" y="21.20000076293945" width="0.6000000238418579" height="0.6000000238418579" rx="0.300000011920929"></rect><rect x="25.2" y="21.20000076293945" width="0.6000000238418579" height="0.6000000238418579" rx="0.300000011920929"></rect><rect x="26.2" y="21.20000076293945" width="0.6000000238418579" height="0.6000000238418579" rx="0.300000011920929"></rect><rect x="28.2" y="21.20000076293945" width="0.6000000238418579" height="0.6000000238418579" rx="0.300000011920929"></rect><rect x="8.2" y="0.2000000029802322" width="0.6000000238418579" height="0.6000000238418579" rx="0.300000011920929"></rect><rect x="11.2" y="0.2000000029802322" width="0.6000000238418579" height="0.6000000238418579" rx="0.300000011920929"></rect><rect x="12.2" y="0.2000000029802322" width="0.6000000238418579" height="0.6000000238418579" rx="0.300000011920929"></rect><rect x="15.2" y="0.2000000029802322" width="0.6000000238418579" height="0.6000000238418579" rx="0.300000011920929"></rect><rect x="16.2" y="0.2000000029802322" width="0.6000000238418579" height="0.6000000238418579" rx="0.300000011920929"></rect><rect x="19.2" y="0.2000000029802322" width="0.6000000238418579" height="0.6000000238418579" rx="0.300000011920929"></rect><rect x="8.2" y="1.200000047683716" width="0.6000000238418579" height="0.6000000238418579" rx="0.300000011920929"></rect><rect x="9.2" y="1.200000047683716" width="0.6000000238418579" height="0.6000000238418579" rx="0.300000011920929"></rect><rect x="10.2" y="1.200000047683716" width="0.6000000238418579" height="0.6000000238418579" rx="0.300000011920929"></rect><rect x="12.2" y="1.200000047683716" width="0.6000000238418579" height="0.6000000238418579" rx="0.300000011920929"></rect><rect x="13.2" y="1.200000047683716" width="0.6000000238418579" height="0.6000000238418579" rx="0.300000011920929"></rect><rect x="14.2" y="1.200000047683716" width="0.6000000238418579" height="0.6000000238418579" rx="0.300000011920929"></rect><rect x="16.2" y="1.200000047683716" width="0.6000000238418579" height="0.6000000238418579" rx="0.300000011920929"></rect><rect x="17.2" y="1.200000047683716" width="0.6000000238418579" height="0.6000000238418579" rx="0.300000011920929"></rect><rect x="20.2" y="1.200000047683716" width="0.6000000238418579" height="0.6000000238418579" rx="0.300000011920929"></rect><rect x="10.2" y="2.200000047683716" width="0.6000000238418579" height="0.6000000238418579" rx="0.300000011920929"></rect><rect x="11.2" y="2.200000047683716" width="0.6000000238418579" height="0.6000000238418579" rx="0.300000011920929"></rect><rect x="12.2" y="2.200000047683716" width="0.6000000238418579" height="0.6000000238418579" rx="0.300000011920929"></rect><rect x="14.2" y="2.200000047683716" width="0.6000000238418579" height="0.6000000238418579" rx="0.300000011920929"></rect><rect x="15.2" y="2.200000047683716" width="0.6000000238418579" height="0.6000000238418579" rx="0.300000011920929"></rect><rect x="16.2" y="2.200000047683716" width="0.6000000238418579" height="0.6000000238418579" rx="0.300000011920929"></rect><rect x="17.2" y="2.200000047683716" width="0.6000000238418579" height="0.6000000238418579" rx="0.300000011920929"></rect><rect x="18.2" y="2.200000047683716" width="0.6000000238418579" height="0.6000000238418579" rx="0.300000011920929"></rect><rect x="19.2" y="2.200000047683716" width="0.6000000238418579" height="0.6000000238418579" rx="0.300000011920929"></rect><rect x="10.2" y="3.200000047683716" width="0.6000000238418579" height="0.6000000238418579" rx="0.300000011920929"></rect><rect x="14.2" y="3.200000047683716" width="0.6000000238418579" height="0.6000000238418579" rx="0.300000011920929"></rect><rect x="17.2" y="3.200000047683716" width="0.6000000238418579" height="0.6000000238418579" rx="0.300000011920929"></rect><rect x="18.2" y="3.200000047683716" width="0.6000000238418579" height="0.6000000238418579" rx="0.300000011920929"></rect><rect x="20.2" y="3.200000047683716" width="0.6000000238418579" height="0.6000000238418579" rx="0.300000011920929"></rect><rect x="8.2" y="4.199999809265137" width="0.6000000238418579" height="0.6000000238418579" rx="0.300000011920929"></rect><rect x="9.2" y="4.199999809265137" width="0.6000000238418579" height="0.6000000238418579" rx="0.300000011920929"></rect><rect x="10.2" y="4.199999809265137" width="0.6000000238418579" height="0.6000000238418579" rx="0.300000011920929"></rect><rect x="11.2" y="4.199999809265137" width="0.6000000238418579" height="0.6000000238418579" rx="0.300000011920929"></rect><rect x="13.2" y="4.199999809265137" width="0.6000000238418579" height="0.6000000238418579" rx="0.300000011920929"></rect><rect x="14.2" y="4.199999809265137" width="0.6000000238418579" height="0.6000000238418579" rx="0.300000011920929"></rect><rect x="15.2" y="4.199999809265137" width="0.6000000238418579" height="0.6000000238418579" rx="0.300000011920929"></rect><rect x="17.2" y="4.199999809265137" width="0.6000000238418579" height="0.6000000238418579" rx="0.300000011920929"></rect><rect x="18.2" y="4.199999809265137" width="0.6000000238418579" height="0.6000000238418579" rx="0.300000011920929"></rect><rect x="8.2" y="5.199999809265137" width="0.6000000238418579" height="0.6000000238418579" rx="0.300000011920929"></rect><rect x="11.2" y="5.199999809265137" width="0.6000000238418579" height="0.6000000238418579" rx="0.300000011920929"></rect><rect x="15.2" y="5.199999809265137" width="0.6000000238418579" height="0.6000000238418579" rx="0.300000011920929"></rect><rect x="18.2" y="5.199999809265137" width="0.6000000238418579" height="0.6000000238418579" rx="0.300000011920929"></rect><rect x="8.2" y="6.199999809265137" width="0.6000000238418579" height="0.6000000238418579" rx="0.300000011920929"></rect><rect x="10.2" y="6.199999809265137" width="0.6000000238418579" height="0.6000000238418579" rx="0.300000011920929"></rect><rect x="12.2" y="6.199999809265137" width="0.6000000238418579" height="0.6000000238418579" rx="0.300000011920929"></rect><rect x="14.2" y="6.199999809265137" width="0.6000000238418579" height="0.6000000238418579" rx="0.300000011920929"></rect><rect x="16.2" y="6.199999809265137" width="0.6000000238418579" height="0.6000000238418579" rx="0.300000011920929"></rect><rect x="18.2" y="6.199999809265137" width="0.6000000238418579" height="0.6000000238418579" rx="0.300000011920929"></rect><rect x="20.2" y="6.199999809265137" width="0.6000000238418579" height="0.6000000238418579" rx="0.300000011920929"></rect><rect x="10.2" y="22.20000076293945" width="0.6000000238418579" height="0.6000000238418579" rx="0.300000011920929"></rect><rect x="12.2" y="22.20000076293945" width="0.6000000238418579" height="0.6000000238418579" rx="0.300000011920929"></rect><rect x="13.2" y="22.20000076293945" width="0.6000000238418579" height="0.6000000238418579" rx="0.300000011920929"></rect><rect x="14.2" y="22.20000076293945" width="0.6000000238418579" height="0.6000000238418579" rx="0.300000011920929"></rect><rect x="15.2" y="22.20000076293945" width="0.6000000238418579" height="0.6000000238418579" rx="0.300000011920929"></rect><rect x="17.2" y="22.20000076293945" width="0.6000000238418579" height="0.6000000238418579" rx="0.300000011920929"></rect><rect x="18.2" y="22.20000076293945" width="0.6000000238418579" height="0.6000000238418579" rx="0.300000011920929"></rect><rect x="20.2" y="22.20000076293945" width="0.6000000238418579" height="0.6000000238418579" rx="0.300000011920929"></rect><rect x="22.2" y="22.20000076293945" width="0.6000000238418579" height="0.6000000238418579" rx="0.300000011920929"></rect><rect x="24.2" y="22.20000076293945" width="0.6000000238418579" height="0.6000000238418579" rx="0.300000011920929"></rect><rect x="28.2" y="22.20000076293945" width="0.6000000238418579" height="0.6000000238418579" rx="0.300000011920929"></rect><rect x="8.2" y="23.20000076293945" width="0.6000000238418579" height="0.6000000238418579" rx="0.300000011920929"></rect><rect x="9.2" y="23.20000076293945" width="0.6000000238418579" height="0.6000000238418579" rx="0.300000011920929"></rect><rect x="10.2" y="23.20000076293945" width="0.6000000238418579" height="0.6000000238418579" rx="0.300000011920929"></rect><rect x="11.2" y="23.20000076293945" width="0.6000000238418579" height="0.6000000238418579" rx="0.300000011920929"></rect><rect x="12.2" y="23.20000076293945" width="0.6000000238418579" height="0.6000000238418579" rx="0.300000011920929"></rect><rect x="14.2" y="23.20000076293945" width="0.6000000238418579" height="0.6000000238418579" rx="0.300000011920929"></rect><rect x="16.2" y="23.20000076293945" width="0.6000000238418579" height="0.6000000238418579" rx="0.300000011920929"></rect><rect x="18.2" y="23.20000076293945" width="0.6000000238418579" height="0.6000000238418579" rx="0.300000011920929"></rect><rect x="19.2" y="23.20000076293945" width="0.6000000238418579" height="0.6000000238418579" rx="0.300000011920929"></rect><rect x="20.2" y="23.20000076293945" width="0.6000000238418579" height="0.6000000238418579" rx="0.300000011920929"></rect><rect x="24.2" y="23.20000076293945" width="0.6000000238418579" height="0.6000000238418579" rx="0.300000011920929"></rect><rect x="9.2" y="24.20000076293945" width="0.6000000238418579" height="0.6000000238418579" rx="0.300000011920929"></rect><rect x="13.2" y="24.20000076293945" width="0.6000000238418579" height="0.6000000238418579" rx="0.300000011920929"></rect><rect x="14.2" y="24.20000076293945" width="0.6000000238418579" height="0.6000000238418579" rx="0.300000011920929"></rect><rect x="15.2" y="24.20000076293945" width="0.6000000238418579" height="0.6000000238418579" rx="0.300000011920929"></rect><rect x="16.2" y="24.20000076293945" width="0.6000000238418579" height="0.6000000238418579" rx="0.300000011920929"></rect><rect x="17.2" y="24.20000076293945" width="0.6000000238418579" height="0.6000000238418579" rx="0.300000011920929"></rect><rect x="19.2" y="24.20000076293945" width="0.6000000238418579" height="0.6000000238418579" rx="0.300000011920929"></rect><rect x="20.2" y="24.20000076293945" width="0.6000000238418579" height="0.6000000238418579" rx="0.300000011920929"></rect><rect x="21.2" y="24.20000076293945" width="0.6000000238418579" height="0.6000000238418579" rx="0.300000011920929"></rect><rect x="22.2" y="24.20000076293945" width="0.6000000238418579" height="0.6000000238418579" rx="0.300000011920929"></rect><rect x="23.2" y="24.20000076293945" width="0.6000000238418579" height="0.6000000238418579" rx="0.300000011920929"></rect><rect x="24.2" y="24.20000076293945" width="0.6000000238418579" height="0.6000000238418579" rx="0.300000011920929"></rect><rect x="25.2" y="24.20000076293945" width="0.6000000238418579" height="0.6000000238418579" rx="0.300000011920929"></rect><rect x="27.2" y="24.20000076293945" width="0.6000000238418579" height="0.6000000238418579" rx="0.300000011920929"></rect><rect x="28.2" y="24.20000076293945" width="0.6000000238418579" height="0.6000000238418579" rx="0.300000011920929"></rect><rect x="9.2" y="25.20000076293945" width="0.6000000238418579" height="0.6000000238418579" rx="0.300000011920929"></rect><rect x="10.2" y="25.20000076293945" width="0.6000000238418579" height="0.6000000238418579" rx="0.300000011920929"></rect><rect x="13.2" y="25.20000076293945" width="0.6000000238418579" height="0.6000000238418579" rx="0.300000011920929"></rect><rect x="14.2" y="25.20000076293945" width="0.6000000238418579" height="0.6000000238418579" rx="0.300000011920929"></rect><rect x="15.2" y="25.20000076293945" width="0.6000000238418579" height="0.6000000238418579" rx="0.300000011920929"></rect><rect x="16.2" y="25.20000076293945" width="0.6000000238418579" height="0.6000000238418579" rx="0.300000011920929"></rect><rect x="18.2" y="25.20000076293945" width="0.6000000238418579" height="0.6000000238418579" rx="0.300000011920929"></rect><rect x="19.2" y="25.20000076293945" width="0.6000000238418579" height="0.6000000238418579" rx="0.300000011920929"></rect><rect x="20.2" y="25.20000076293945" width="0.6000000238418579" height="0.6000000238418579" rx="0.300000011920929"></rect><rect x="21.2" y="25.20000076293945" width="0.6000000238418579" height="0.6000000238418579" rx="0.300000011920929"></rect><rect x="24.2" y="25.20000076293945" width="0.6000000238418579" height="0.6000000238418579" rx="0.300000011920929"></rect><rect x="25.2" y="25.20000076293945" width="0.6000000238418579" height="0.6000000238418579" rx="0.300000011920929"></rect><rect x="26.2" y="25.20000076293945" width="0.6000000238418579" height="0.6000000238418579" rx="0.300000011920929"></rect><rect x="28.2" y="25.20000076293945" width="0.6000000238418579" height="0.6000000238418579" rx="0.300000011920929"></rect><rect x="8.2" y="26.20000076293945" width="0.6000000238418579" height="0.6000000238418579" rx="0.300000011920929"></rect><rect x="10.2" y="26.20000076293945" width="0.6000000238418579" height="0.6000000238418579" rx="0.300000011920929"></rect><rect x="11.2" y="26.20000076293945" width="0.6000000238418579" height="0.6000000238418579" rx="0.300000011920929"></rect><rect x="15.2" y="26.20000076293945" width="0.6000000238418579" height="0.6000000238418579" rx="0.300000011920929"></rect><rect x="18.2" y="26.20000076293945" width="0.6000000238418579" height="0.6000000238418579" rx="0.300000011920929"></rect><rect x="21.2" y="26.20000076293945" width="0.6000000238418579" height="0.6000000238418579" rx="0.300000011920929"></rect><rect x="24.2" y="26.20000076293945" width="0.6000000238418579" height="0.6000000238418579" rx="0.300000011920929"></rect><rect x="27.2" y="26.20000076293945" width="0.6000000238418579" height="0.6000000238418579" rx="0.300000011920929"></rect><rect x="28.2" y="26.20000076293945" width="0.6000000238418579" height="0.6000000238418579" rx="0.300000011920929"></rect><rect x="8.2" y="27.20000076293945" width="0.6000000238418579" height="0.6000000238418579" rx="0.300000011920929"></rect><rect x="9.2" y="27.20000076293945" width="0.6000000238418579" height="0.6000000238418579" rx="0.300000011920929"></rect><rect x="10.2" y="27.20000076293945" width="0.6000000238418579" height="0.6000000238418579" rx="0.300000011920929"></rect><rect x="13.2" y="27.20000076293945" width="0.6000000238418579" height="0.6000000238418579" rx="0.300000011920929"></rect><rect x="15.2" y="27.20000076293945" width="0.6000000238418579" height="0.6000000238418579" rx="0.300000011920929"></rect><rect x="16.2" y="27.20000076293945" width="0.6000000238418579" height="0.6000000238418579" rx="0.300000011920929"></rect><rect x="20.2" y="27.20000076293945" width="0.6000000238418579" height="0.6000000238418579" rx="0.300000011920929"></rect><rect x="23.2" y="27.20000076293945" width="0.6000000238418579" height="0.6000000238418579" rx="0.300000011920929"></rect><rect x="24.2" y="27.20000076293945" width="0.6000000238418579" height="0.6000000238418579" rx="0.300000011920929"></rect><rect x="25.2" y="27.20000076293945" width="0.6000000238418579" height="0.6000000238418579" rx="0.300000011920929"></rect><rect x="8.2" y="28.20000076293945" width="0.6000000238418579" height="0.6000000238418579" rx="0.300000011920929"></rect><rect x="10.2" y="28.20000076293945" width="0.6000000238418579" height="0.6000000238418579" rx="0.300000011920929"></rect><rect x="11.2" y="28.20000076293945" width="0.6000000238418579" height="0.6000000238418579" rx="0.300000011920929"></rect><rect x="12.2" y="28.20000076293945" width="0.6000000238418579" height="0.6000000238418579" rx="0.300000011920929"></rect><rect x="13.2" y="28.20000076293945" width="0.6000000238418579" height="0.6000000238418579" rx="0.300000011920929"></rect><rect x="15.2" y="28.20000076293945" width="0.6000000238418579" height="0.6000000238418579" rx="0.300000011920929"></rect><rect x="16.2" y="28.20000076293945" width="0.6000000238418579" height="0.6000000238418579" rx="0.300000011920929"></rect><rect x="20.2" y="28.20000076293945" width="0.6000000238418579" height="0.6000000238418579" rx="0.300000011920929"></rect><rect x="24.2" y="28.20000076293945" width="0.6000000238418579" height="0.6000000238418579" rx="0.300000011920929"></rect><rect x="25.2" y="28.20000076293945" width="0.6000000238418579" height="0.6000000238418579" rx="0.300000011920929"></rect><rect x="28.2" y="28.20000076293945" width="0.6000000238418579" height="0.6000000238418579" rx="0.300000011920929"></rect></g><g class="qrRounded qrAlPatterns"><g class="qrDark" fill="#98971a"><rect x="0" y="0" width="7.0" height="7.0" rx="3.5"></rect><rect x="22" y="0" width="7.0" height="7.0" rx="3.5"></rect><rect x="0" y="22" width="7.0" height="7.0" rx="3.5"></rect></g><g class="qrLight" fill="#1d2021"><rect x="1" y="1" width="5.0" height="5.0" rx="2.5"></rect><rect x="23" y="1" width="5.0" height="5.0" rx="2.5"></rect><rect x="1" y="23" width="5.0" height="5.0" rx="2.5"></rect></g><g class="qrDark" fill="#98971a"><rect x="2" y="2" width="3.0" height="3.0" rx="1.5"></rect><rect x="24" y="2" width="3.0" height="3.0" rx="1.5"></rect><rect x="2" y="24" width="3.0" height="3.0" rx="1.5"></rect></g></g></svg>