<svg class="qrCode" id="" version="1.1" xmlns="http://www.w3.org/2000/svg" viewBox="-5 -5 39 39"><path class="qrLight" fill="#1d2021" d="M-5,-5h39v39h-39Z"></path><g fill="#98971a" class="qrDark qrRounded qrModules"><rect x="8.1" y="7.099999904632568" width="0.800000011920929" height="0.800000011920929" rx="0.4000000059604645"></rect><rect x="10.1" y="7.099999904632568" width="0.800000011920929" height="0.800000011920929" rx="0.4000000059604645"></rect><rect x="11.1" y="7.099999904632568" width="0.800000011920929" height="0.800000011920929" rx="0.4000000059604645"></rect><rect x="12.1" y="7.099999904632568" width="0.800000011920929" height="0.800000011920929" rx="0.4000000059604645"></rect><rect x="14.1" y="7.099999904632568" width="0.800000011920929" height="0.800000011920929" rx="0.4000000059604645"></rect><rect x="15.1" y="7.099999904632568" width="0.800000011920929" height="0.800000011920929" rx="0.4000000059604645"></rect><rect x="16.1" y="7.099999904632568" width="0.800000011920929" height="0.800000011920929" rx="0.4000000059604645"></rect><rect x="18.1" y="7.099999904632568" width="0.800000011920929" height="0.800000011920929" rx="0.4000000059604645"></rect><rect x="19.1" y="7.099999904632568" width="0.800000011920929" height="0.800000011920929" rx="0.4000000059604645"></rect><rect x="0.1" y="8.100000381469727" width="0.800000011920929" height="0.800000011920929" rx="0.4000000059604645"></rect><rect x="1.1" y="8.100000381469727" width="0.800000011920929" height="0.800000011920929" rx="0.4000000059604645"></rect><rect x="2.1" y="8.100000381469727" width="0.800000011920929" height="0.800000011920929" rx="0.4000000059604645"></rect><rect x="5.1" y="8.100000381469727" width="0.800000011920929" height="0.800000011920929" rx="0.4000000059604645"></rect><rect x="6.1" y="8.100000381469727" width="0.800000011920929" height="0.800000011920929" rx="0.4000000059604645"></rect><rect x="8.1" y="8.100000381469727" width="0.800000011920929" height="0.800000011920929" rx="0.4000000059604645"></rect><rect x="9.1" y="8.100000381469727" width="0.800000011920929" height="0.800000011920929" rx="0.4000000059604645"></rect><rect x="10.1" y="8.100000381469727" width="0.800000011920929" height="0.800000011920929" rx="0.4000000059604645"></rect><rect x="13.1" y="8.100000381469727" width="0.800000011920929" height="0.800000011920929" rx="0.4000000059604645"></rect><rect x="14.1" y="8.100000381469727" width="0.800000011920929" height="0.800000011920929" rx="0.4000000059604645"></rect><rect x="19.1" y="8.100000381469727" width="0.800000011920929" height="0.800000011920929" rx="0.4000000059604645"></rect><rect x="21.1" y="8.100000381469727" width="0.800000011920929" height="0.800000011920929" rx="0.4000000059604645"></rect><rect x="22.1" y="8.100000381469727" width="0.800000011920929" height="0.800000011920929" rx="0.4000000059604645"></rect><rect x="23.1" y="8.100000381469727" width="0.800000011920929" height="0.800000011920929" rx="0.4000000059604645"></rect><rect x="24.1" y="8.100000381469727" width="0.800000011920929" height="0.800000011920929" rx="0.4000000059604645"></rect><rect x="27.1" y="8.100000381469727" width="0.800000011920929" height="0.800000011920929" rx="0.4000000059604645"></rect><rect x="28.1" y="8.100000381469727" width="0.800000011920929" height="0.800000011920929" rx="0.4000000059604645"></rect><rect x="1.1" y="9.100000381469727" width="0.800000011920929" height="0.800000011920929" rx="0.4000000059604645"></rect><rect x="3.1" y="9.100000381469727" width="0.800000011920929" height="0.800000011920929" rx="0.4000000059604645"></rect><rect x="4.1" y="9.100000381469727" width="0.800000011920929" height="0.800000011920929" rx="0.4000000059604645"></rect><rect x="5.1" y="9.100000381469727" width="0.800000011920929" height="0.800000011920929" rx="0.4000000059604645"></rect><rect x="7.1" y="9.100000381469727" width="0.800000011920929" height="0.800000011920929" rx="0.4000000059604645"></rect><rect x="8.1" y="9.100000381469727" width="0.800000011920929" height="0.800000011920929" rx="0.4000000059604645"></rect><rect x="9.1" y="9.100000381469727" width="0.800000011920929" height="0.800000011920929" rx="0.4000000059604645"></rect><rect x="10.1" y="9.100000381469727" width="0.800000011920929" height="0.800000011920929" rx="0.4000000059604645"></rect><rect x="13.1" y="9.100000381469727" width="0.800000011920929" height="0.800000011920929" rx="0.4000000059604645"></rect><rect x="14.1" y="9.100000381469727" width="0.800000011920929" height="0.800000011920929" rx="0.4000000059604645"></rect><rect x="18.1" y="9.100000381469727" width="0.800000011920929" height="0.800000011920929" rx="0.4000000059604645"></rect><rect x="19.1" y="9.100000381469727" width="0.800000011920929" height="0.800000011920929" rx="0.4000000059604645"></rect><rect x="20.1" y="9.100000381469727" width="0.800000011920929" height="0.800000011920929" rx="0.4000000059604645"></rect><rect x="21.1" y="9.100000381469727" width="0.800000011920929" height="0.800000011920929" rx="0.4000000059604645"></rect><rect x="22.1" y="9.100000381469727" width="0.800000011920929" height="0.800000011920929" rx="0.4000000059604645"></rect><rect x="23.1" y="9.100000381469727" width="0.800000011920929" height="0.800000011920929" rx="0.4000000059604645"></rect><rect x="27.1" y="9.100000381469727" width="0.800000011920929" height="0.800000011920929" rx="0.4000000059604645"></rect><rect x="28.1" y="9.100000381469727" width="0.800000011920929" height="0.800000011920929" rx="0.4000000059604645"></rect><rect x="0.1" y="10.10000038146973" width="0.800000011920929" height="0.800000011920929" rx="0.4000000059604645"></rect><rect x="1.1" y="10.10000038146973" width="0.800000011920929" height="0.800000011920929" rx="0.4000000059604645"></rect><rect x="3.1" y="10.10000038146973" width="0.800000011920929" height="0.800000011920929" rx="0.4000000059604645"></rect><rect x="6.1" y="10.10000038146973" width="0.800000011920929" height="0.800000011920929" rx="0.4000000059604645"></rect><rect x="8.1" y="10.10000038146973" width="0.800000011920929" height="0.800000011920929" rx="0.4000000059604645"></rect><rect x="11.1" y="10.10000038146973" width="0.800000011920929" height="0.800000011920929" rx="0.4000000059604645"></rect><rect x="15.1" y="10.10000038146973" width="0.800000011920929" height="0.800000011920929" rx="0.4000000059604645"></rect><rect x="17.1" y="10.10000038146973" width="0.800000011920929" height="0.800000011920929" rx="0.4000000059604645"></rect><rect x="19.1" y="10.10000038146973" width="0.800000011920929" height="0.800000011920929" rx="0.4000000059604645"></rect><rect x="22.1" y="10.10000038146973" width="0.800000011920929" height="0.800000011920929" rx="0.4000000059604645"></rect><rect x="23.1" y="10.10000038146973" width="0.800000011920929" height="0.800000011920929" rx="0.4000000059604645"></rect><rect x="24.1" y="10.10000038146973" width="0.800000011920929" height="0.800000011920929" rx="0.4000000059604645"></rect><rect x="25.1" y="10.10000038146973" width="0.800000011920929" height="0.800000011920929" rx="0.4000000059604645"></rect><rect x="26.1" y="10.10000038146973" width="0.800000011920929" height="0.800000011920929" rx="0.4000000059604645"></rect><rect x="28.1" y="10.10000038146973" width="0.800000011920929" height="0.800000011920929" rx="0.4000000059604645"></rect><rect x="1.1" y="11.10000038146973" width="0.800000011920929" height="0.800000011920929" rx="0.4000000059604645"></rect><rect x="2.1" y="11.10000038146973" width="0.800000011920929" height="0.800000011920929" rx="0.4000000059604645"></rect><rect x="4.1" y="11.10000038146973" width="0.800000011920929" height="0.800000011920929" rx="0.4000000059604645"></rect><rect x="5.1" y="11.10000038146973" width="0.800000011920929" height="0.800000011920929" rx="0.4000000059604645"></rect><rect x="7.1" y="11.10000038146973" width="0.800000011920929" height="0.800000011920929" rx="0.4000000059604645"></rect><rect x="8.1" y="11.10000038146973" width="0.800000011920929" height="0.800000011920929" rx="0.4000000059604645"></rect><rect x="9.1" y="11.10000038146973" width="0.800000011920929" height="0.800000011920929" rx="0.4000000059604645"></rect><rect x="13.1" y="11.10000038146973" width="0.800000011920929" height="0.800000011920929" rx="0.4000000059604645"></rect><rect x="21.1" y="11.10000038146973" width="0.800000011920929" height="0.800000011920929" rx="0.4000000059604645"></rect><rect x="24.1" y="11.10000038146973" width="0.800000011920929" height="0.800000011920929" rx="0.4000000059604645"></rect><rect x="25.1" y="11.10000038146973" width="0.800000011920929" height="0.800000011920929" rx="0.4000000059604645"></rect><rect x="0.1" y="12.10000038146973" width="0.800000011920929" height="0.800000011920929" rx="0.4000000059604645"></rect><rect x="2.1" y="12.10000038146973" width="0.800000011920929" height="0.800000011920929" rx="0.4000000059604645"></rect><rect x="3.1" y="12.10000038146973" width="0.800000011920929" height="0.800000011920929" rx="0.4000000059604645"></rect><rect x="4.1" y="12.10000038146973" width="0.800000011920929" height="0.800000011920929" rx="0.4000000059604645"></rect><rect x="5.1" y="12.10000038146973" width="0.800000011920929" height="0.800000011920929" rx="0.4000000059604645"></rect><rect x="6.1" y="12.10000038146973" width="0.800000011920929" height="0.800000011920929" rx="0.4000000059604645"></rect><rect x="7.1" y="12.10000038146973" width="0.800000011920929" height="0.800000011920929" rx="0.4000000059604645"></rect><rect x="9.1" y="12.10000038146973" width="0.800000011920929" height="0.800000011920929" rx="0.4000000059604645"></rect><rect x="11.1" y="12.10000038146973" width="0.800000011920929" height="0.800000011920929" rx="0.4000000059604645"></rect><rect x="12.1" y="12.10000038146973" width="0.800000011920929" height="0.800000011920929" rx="0.4000000059604645"></rect><rect x="13.1" y="12.10000038146973" width="0.800000011920929" height="0.800000011920929" rx="0.4000000059604645"></rect><rect x="15.1" y="12.10000038146973" width="0.800000011920929" height="0.800000011920929" rx="0.4000000059604645"></rect><rect x="16.1" y="12.10000038146973" width="0.800000011920929" height="0.800000011920929" rx="0.4000000059604645"></rect><rect x="19.1" y="12.10000038146973" width="0.800000011920929" height="0.800000011920929" rx="0.4000000059604645"></rect><rect x="20.1" y="12.10000038146973" width="0.800000011920929" height="0.800000011920929" rx="0.4000000059604645"></rect><rect x="22.1" y="12.10000038146973" width="0.800000011920929" height="0.800000011920929" rx="0.4000000059604645"></rect><rect x="23.1" y="12.10000038146973" width="0.800000011920929" height="0.800000011920929" rx="0.4000000059604645"></rect><rect x="28.1" y="12.10000038146973" width="0.800000011920929" height="0.800000011920929" rx="0.4000000059604645"></rect><rect x="3.1" y="13.10000038146973" width="0.800000011920929" height="0.800000011920929" rx="0.4000000059604645"></rect><rect x="5.1" y="13.10000038146973" width="0.800000011920929" height="0.800000011920929" rx="0.4000000059604645"></rect><rect x="8.1" y="13.10000038146973" width="0.800000011920929" height="0.800000011920929" rx="0.4000000059604645"></rect><rect x="12.1" y="13.10000038146973" width="0.800000011920929" height="0.800000011920929" rx="0.4000000059604645"></rect><rect x="16.1" y="13.10000038146973" width="0.800000011920929" height="0.800000011920929" rx="0.4000000059604645"></rect><rect x="19.1" y="13.10000038146973" width="0.800000011920929" height="0.800000011920929" rx="0.4000000059604645"></rect><rect x="20.1" y="13.10000038146973" width="0.800000011920929" height="0.800000011920929" rx="0.4000000059604645"></rect><rect x="22.1" y="13.10000038146973" width="0.800000011920929" height="0.800000011920929" rx="0.4000000059604645"></rect><rect x="23.1" y="13.10000038146973" width="0.800000011920929" height="0.800000011920929" rx="0.4000000059604645"></rect><rect x="27.1" y="13.10000038146973" width="0.800000011920929" height="0.800000011920929" rx="0.4000000059604645"></rect><rect x="28.1" y="13.10000038146973" width="0.800000011920929" height="0.800000011920929" rx="0.4000000059604645"></rect><rect x="2.1" y="14.10000038146973" width="0.800000011920929" height="0.800000011920929" rx="0.4000000059604645"></rect><rect x="5.1" y="14.10000038146973" width="0.800000011920929" height="0.800000011920929" rx="0.4000000059604645"></rect><rect x="6.1" y="14.10000038146973" width="0.800000011920929" height="0.800000011920929" rx="0.4000000059604645"></rect><rect x="7.1" y="14.10000038146973" width="0.800000011920929" height="0.800000011920929" rx="0.4000000059604645"></rect><rect x="12.1" y="14.10000038146973" width="0.800000011920929" height="0.800000011920929" rx="0.4000000059604645"></rect><rect x="13.1" y="14.10000038146973" width="0.800000011920929" height="0.800000011920929" rx="0.4000000059604645"></rect><rect x="14.1" y="14.10000038146973" width="0.800000011920929" height="0.800000011920929" rx="0.4000000059604645"></rect><rect x="16.1" y="14.10000038146973" width="0.800000011920929" height="0.800000011920929" rx="0.4000000059604645"></rect><rect x="17.1" y="14.10000038146973" width="0.800000011920929" height="0.800000011920929" rx="0.4000000059604645"></rect><rect x="18.1" y="14.10000038146973" width="0.800000011920929" height="0.800000011920929" rx="0.4000000059604645"></rect><rect x="19.1" y="14.10000038146973" width="0.800000011920929" height="0.800000011920929" rx="0.4000000059604645"></rect><rect x="21.1" y="14.10000038146973" width="0.800000011920929" height="0.800000011920929" rx="0.4000000059604645"></rect><rect x="22.1" y="14.10000038146973" width="0.800000011920929" height="0.800000011920929" rx="0.4000000059604645"></rect><rect x="23.1" y="14.10000038146973" width="0.800000011920929" height="0.800000011920929" rx="0.4000000059604645"></rect><rect x="24.1" y="14.10000038146973" width="0.800000011920929" height="0.800000011920929" rx="0.4000000059604645"></rect><rect x="28.1" y="14.10000038146973" width="0.800000011920929" height="0.800000011920929" rx="0.4000000059604645"></rect><rect x="0.1" y="15.10000038146973" width="0.800000011920929" height="0.800000011920929" rx="0.4000000059604645"></rect><rect x="4.1" y="15.10000038146973" width="0.800000011920929" height="0.800000011920929" rx="0.4000000059604645"></rect><rect x="5.1" y="15.10000038146973" width="0.800000011920929" height="0.800000011920929" rx="0.4000000059604645"></rect><rect x="7.1" y="15.10000038146973" width="0.800000011920929" height="0.800000011920929" rx="0.4000000059604645"></rect><rect x="8.1" y="15.10000038146973" width="0.800000011920929" height="0.800000011920929" rx="0.4000000059604645"></rect><rect x="9.1" y="15.10000038146973" width="0.800000011920929" height="0.800000011920929" rx="0.4000000059604645"></rect><rect x="11.1" y="15.10000038146973" width="0.800000011920929" height="0.800000011920929" rx="0.4000000059604645"></rect><rect x="12.1" y="15.10000038146973" width="0.800000011920929" height="0.800000011920929" rx="0.4000000059604645"></rect><rect x="14.1" y="15.10000038146973" width="0.800000011920929" height="0.800000011920929" rx="0.4000000059604645"></rect><rect x="15.1" y="15.10000038146973" width="0.800000011920929" height="0.800000011920929" rx="0.4000000059604645"></rect><rect x="16.1" y="15.10000038146973" width="0.800000011920929" height="0.800000011920929" rx="0.4000000059604645"></rect><rect x="18.1" y="15.10000038146973" width="0.800000011920929" height="0.800000011920929" rx="0.4000000059604645"></rect><rect x="19.1" y="15.10000038146973" width="0.800000011920929" height="0.800000011920929" rx="0.4000000059604645"></rect><rect x="20.1" y="15.10000038146973" width="0.800000011920929" height="0.800000011920929" rx="0.4000000059604645"></rect><rect x="22.1" y="15.10000038146973" width="0.800000011920929" height="0.800000011920929" rx="0.4000000059604645"></rect><rect x="23.1" y="15.10000038146973" width="0.800000011920929" height="0.800000011920929" rx="0.4000000059604645"></rect><rect x="3.1" y="16.10000038146973" width="0.800000011920929" height="0.800000011920929" rx="0.4000000059604645"></rect><rect x="6.1" y="16.10000038146973" width="0.800000011920929" height="0.800000011920929" rx="0.4000000059604645"></rect><rect x="13.1" y="16.10000038146973" width="0.800000011920929" height="0.800000011920929" rx="0.4000000059604645"></rect><rect x="14.1" y="16.10000038146973" width="0.800000011920929" height="0.800000011920929" rx="0.4000000059604645"></rect><rect x="16.1" y="16.10000038146973" width="0.800000011920929" height="0.800000011920929" rx="0.4000000059604645"></rect><rect x="18.1" y="16.10000038146973" width="0.800000011920929" height="0.800000011920929" rx="0.4000000059604645"></rect><rect x="20.1" y="16.10000038146973" width="0.800000011920929" height="0.800000011920929" rx="0.4000000059604645"></rect><rect x="21.1" y="16.10000038146973" width="0.800000011920929" height="0.800000011920929" rx="0.4000000059604645"></rect><rect x="22.1" y="16.10000038146973" width="0.800000011920929" height="0.800000011920929" rx="0.4000000059604645"></rect><rect x="28.1" y="16.10000038146973" width="0.800000011920929" height="0.800000011920929" rx="0.4000000059604645"></rect><rect x="3.1" y="17.10000038146973" width="0.800000011920929" height="0.800000011920929" rx="0.4000000059604645"></rect><rect x="5.1" y="17.10000038146973" width="0.800000011920929" height="0.800000011920929" rx="0.4000000059604645"></rect><rect x="7.1" y="17.10000038146973" width="0.800000011920929" height="0.800000011920929" rx="0.4000000059604645"></rect><rect x="13.1" y="17.10000038146973" width="0.800000011920929" height="0.800000011920929" rx="0.4000000059604645"></rect><rect x="14.1" y="17.10000038146973" width="0.800000011920929" height="0.800000011920929" rx="0.4000000059604645"></rect><rect x="17.1" y="17.10000038146973" width="0.800000011920929" height="0.800000011920929" rx="0.4000000059604645"></rect><rect x="19.1" y="17.10000038146973" width="0.800000011920929" height="0.800000011920929" rx="0.4000000059604645"></rect><rect x="22.1" y="17.10000038146973" width="0.800000011920929" height="0.800000011920929" rx="0.4000000059604645"></rect><rect x="23.1" y="17.10000038146973" width="0.800000011920929" height="0.800000011920929" rx="0.4000000059604645"></rect><rect x="26.1" y="17.10000038146973" width="0.800000011920929" height="0.800000011920929" rx="0.4000000059604645"></rect><rect x="27.1" y="17.10000038146973" width="0.800000011920929" height="0.800000011920929" rx="0.4000000059604645"></rect><rect x="28.1" y="17.10000038146973" width="0.800000011920929" height="0.800000011920929" rx="0.4000000059604645"></rect><rect x="0.1" y="18.10000038146973" width="0.800000011920929" height="0.800000011920929" rx="0.4000000059604645"></rect><rect x="1.1" y="18.10000038146973" width="0.800000011920929" height="0.800000011920929" rx="0.4000000059604645"></rect><rect x="2.1" y="18.10000038146973" width="0.800000011920929" height="0.800000011920929" rx="0.4000000059604645"></rect><rect x="3.1" y="18.10000038146973" width="0.800000011920929" height="0.800000011920929" rx="0.4000000059604645"></rect><rect x="5.1" y="18.10000038146973" width="0.800000011920929" height="0.800000011920929" rx="0.4000000059604645"></rect><rect x="6.1" y="18.10000038146973" width="0.800000011920929" height="0.800000011920929" rx="0.4000000059604645"></rect><rect x="9.1" y="18.10000038146973" width="0.800000011920929" height="0.800000011920929" rx="0.4000000059604645"></rect><rect x="11.1" y="18.10000038146973" width="0.800000011920929" height="0.800000011920929" rx="0.4000000059604645"></rect><rect x="15.1" y="18.10000038146973" width="0.800000011920929" height="0.800000011920929" rx="0.4000000059604645"></rect><rect x="16.1" y="18.10000038146973" width="0.800000011920929" height="0.800000011920929" rx="0.4000000059604645"></rect><rect x="19.1" y="18.10000038146973" width="0.800000011920929" height="0.800000011920929" rx="0.4000000059604645"></rect><rect x="24.1" y="18.10000038146973" width="0.800000011920929" height="0.800000011920929" rx="0.4000000059604645"></rect><rect x="25.1" y="18.10000038146973" width="0.800000011920929" height="0.800000011920929" rx="0.4000000059604645"></rect><rect x="28.1" y="18.10000038146973" width="0.800000011920929" height="0.800000011920929" rx="0.4000000059604645"></rect><rect x="3.1" y="19.10000038146973" width="0.800000011920929" height="0.800000011920929" rx="0.4000000059604645"></rect><rect x="5.1" y="19.10000038146973" width="0.800000011920929" height="0.800000011920929" rx="0.4000000059604645"></rect><rect x="7.1" y="19.10000038146973" width="0.800000011920929" height="0.800000011920929" rx="0.4000000059604645"></rect><rect x="8.1" y="19.10000038146973" width="0.800000011920929" height="0.800000011920929" rx="0.4000000059604645"></rect><rect x="10.1" y="19.10000038146973" width="0.800000011920929" height="0.800000011920929" rx="0.4000000059604645"></rect><rect x="13.1" y="19.10000038146973" width="0.800000011920929" height="0.800000011920929" rx="0.4000000059604645"></rect><rect x="15.1" y="19.10000038146973" width="0.800000011920929" height="0.800000011920929" rx="0.4000000059604645"></rect><rect x="16.1" y="19.10000038146973" width="0.800000011920929" height="0.800000011920929" rx="0.4000000059604645"></rect><rect x="18.1" y="19.10000038146973" width="0.800000011920929" height="0.800000011920929" rx="0.4000000059604645"></rect><rect x="20.1" y="19.10000038146973" width="0.800000011920929" height="0.800000011920929" rx="0.4000000059604645"></rect><rect x="22.1" y="19.10000038146973" width="0.800000011920929" height="0.800000011920929" rx="0.4000000059604645"></rect><rect x="24.1" y="19.10000038146973" width="0.800000011920929" height="0.800000011920929" rx="0.4000000059604645"></rect><rect x="0.1" y="20.10000038146973" width="0.800000011920929" height="0.800000011920929" rx="0.4000000059604645"></rect><rect x="1.1" y="20.10000038146973" width="0.800000011920929" height="0.800000011920929" rx="0.4000000059604645"></rect><rect x="3.1" y="20.10000038146973" width="0.800000011920929" height="0.800000011920929" rx="0.4000000059604645"></rect><rect x="4.1" y="20.10000038146973" width="0.800000011920929" height="0.800000011920929" rx="0.4000000059604645"></rect><rect x="6.1" y="20.10000038146973" width="0.800000011920929" height="0.800000011920929" rx="0.4000000059604645"></rect><rect x="7.1" y="20.10000038146973" width="0.800000011920929" height="0.800000011920929" rx="0.4000000059604645"></rect><rect x="9.1" y="20.10000038146973" width="0.800000011920929" height="0.800000011920929" rx="0.4000000059604645"></rect><rect x="10.1" y="20.10000038146973" width="0.800000011920929" height="0.800000011920929" rx="0.4000000059604645"></rect><rect x="11.1" y="20.10000038146973" width="0.800000011920929" height="0.800000011920929" rx="0.4000000059604645"></rect><rect x="12.1" y="20.10000038146973" width="0.800000011920929" height="0.800000011920929" rx="0.4000000059604645"></rect><rect x="13.1" y="20.10000038146973" width="0.800000011920929" height="0.800000011920929" rx="0.4000000059604645"></rect><rect x="16.1" y="20.10000038146973" width="0.800000011920929" height="0.800000011920929" rx="0.4000000059604645"></rect><rect x="17.1" y="20.10000038146973" width="0.800000011920929" height="0.800000011920929" rx="0.4000000059604645"></rect><rect x="20.1" y="20.10000038146973" width="0.800000011920929" height="0.800000011920929" rx="0.4000000059604645"></rect><rect x="21.1" y="20.10000038146973" width="0.800000011920929" height="0.800000011920929" rx="0.4000000059604645"></rect><rect x="22.1" y="20.10000038146973" width="0.800000011920929" height="0.800000011920929" rx="0.4000000059604645"></rect><rect x="23.1" y="20.10000038146973" width="0.800000011920929" height="0.800000011920929" rx="0.4000000059604645"></rect><rect x="24.1" y="20.10000038146973" width="0.800000011920929" height="0.800000011920929" rx="0.4000000059604645"></rect><rect x="25.1" y="20.10000038146973" width="0.800000011920929" height="0.800000011920929" rx="0.4000000059604645"></rect><rect x="27.1" y="20.10000038146973" width="0.800000011920929" height="0.800000011920929" rx="0.4000000059604645"></rect><rect x="8.1" y="21.10000038146973" width="0.800000011920929" height="0.800000011920929" rx="0.4000000059604645"></rect><rect x="9.1" y="21.10000038146973" width="0.800000011920929" height="0.800000011920929" rx="0.4000000059604645"></rect><rect x="10.1" y="21.10000038146973" width="0.800000011920929" height="0.800000011920929" rx="0.4000000059604645"></rect><rect x="12.1" y="21.10000038146973" width="0.800000011920929" height="0.800000011920929" rx="0.4000000059604645"></rect><rect x="15.1" y="21.10000038146973" width="0.800000011920929" height="0.800000011920929" rx="0.4000000059604645"></rect><rect x="16.1" y="21.10000038146973" width="0.800000011920929" height="0.800000011920929" rx="0.4000000059604645"></rect><rect x="18.1" y="21.10000038146973" width="0.800000011920929" height="0.800000011920929" rx="0.4000000059604645"></rect><rect x="20.1" y="21.10000038146973" width="0.800000011920929" height="0.800000011920929" rx="0.4000000059604645"></rect><rect x="24.1" y="21.10000038146973" width="0.800000011920929" height="0.800000011920929" rx="0.4000000059604645"></rect><rect x="25.1" y="21.10000038146973" width="0.800000011920929" height="0.800000011920929" rx="0.4000000059604645"></rect><rect x="26.1" y="21.10000038146973" width="0.800000011920929" height="0.800000011920929" rx="0.4000000059604645"></rect><rect x="28.1" y="21.10000038146973" width="0.800000011920929" height="0.800000011920929" rx="0.4000000059604645"></rect><rect x="8.1" y="0.1000000014901161" width="0.800000011920929" height="0.800000011920929" rx="0.4000000059604645"></rect><rect x="11.1" y="0.1000000014901161" width="0.800000011920929" height="0.800000011920929" rx="0.4000000059604645"></rect><rect x="12.1" y="0.1000000014901161" width="0.800000011920929" height="0.800000011920929" rx="0.4000000059604645"></rect><rect x="15.1" y="0.1000000014901161" width="0.800000011920929" height="0.800000011920929" rx="0.4000000059604645"></rect><rect x="16.1" y="0.1000000014901161" width="0.800000011920929" height="0.800000011920929" rx="0.4000000059604645"></rect><rect x="19.1" y="0.1000000014901161" width="0.800000011920929" height="0.800000011920929" rx="0.4000000059604645"></rect><rect x="8.1" y="1.100000023841858" width="0.800000011920929" height="0.800000011920929" rx="0.4000000059604645"></rect><rect x="9.1" y="1.100000023841858" width="0.800000011920929" height="0.800000011920929" rx="0.4000000059604645"></rect><rect x="10.1" y="1.100000023841858" width="0.800000011920929" height="0.800000011920929" rx="0.4000000059604645"></rect><rect x="12.1" y="1.100000023841858" width="0.800000011920929" height="0.800000011920929" rx="0.4000000059604645"></rect><rect x="13.1" y="1.100000023841858" width="0.800000011920929" height="0.800000011920929" rx="0.4000000059604645"></rect><rect x="14.1" y="1.100000023841858" width="0.800000011920929" height="0.800000011920929" rx="0.4000000059604645"></rect><rect x="16.1" y="1.100000023841858" width="0.800000011920929" height="0.800000011920929" rx="0.4000000059604645"></rect><rect x="17.1" y="1.100000023841858" width="0.800000011920929" height="0.800000011920929" rx="0.4000000059604645"></rect><rect x="20.1" y="1.100000023841858" width="0.800000011920929" height="0.800000011920929" rx="0.4000000059604645"></rect><rect x="10.1" y="2.099999904632568" width="0.800000011920929" height="0.800000011920929" rx="0.4000000059604645"></rect><rect x="11.1" y="2.099999904632568" width="0.800000011920929" height="0.800000011920929" rx="0.4000000059604645"></rect><rect x="12.1" y="2.099999904632568" width="0.800000011920929" height="0.800000011920929" rx="0.4000000059604645"></rect><rect x="14.1" y="2.099999904632568" width="0.800000011920929" height="0.800000011920929" rx="0.4000000059604645"></rect><rect x="15.1" y="2.099999904632568" width="0.800000011920929" height="0.800000011920929" rx="0.4000000059604645"></rect><rect x="16.1" y="2.099999904632568" width="0.800000011920929" height="0.800000011920929" rx="0.4000000059604645"></rect><rect x="17.1" y="2.099999904632568" width="0.800000011920929" height="0.800000011920929" rx="0.4000000059604645"></rect><rect x="18.1" y="2.099999904632568" width="0.800000011920929" height="0.800000011920929" rx="0.4000000059604645"></rect><rect x="19.1" y="2.099999904632568" width="0.800000011920929" height="0.800000011920929" rx="0.4000000059604645"></rect><rect x="10.1" y="3.099999904632568" width="0.800000011920929" height="0.800000011920929" rx="0.4000000059604645"></rect><rect x="14.1" y="3.099999904632568" width="0.800000011920929" height="0.800000011920929" rx="0.4000000059604645"></rect><rect x="17.1" y="3.099999904632568" width="0.800000011920929" height="0.800000011920929" rx="0.4000000059604645"></rect><rect x="18.1" y="3.099999904632568" width="0.800000011920929" height="0.800000011920929" rx="0.4000000059604645"></rect><rect x="20.1" y="3.099999904632568" width="0.800000011920929" height="0.800000011920929" rx="0.4000000059604645"></rect><rect x="8.1" y="4.099999904632568" width="0.800000011920929" height="0.800000011920929" rx="0.4000000059604645"></rect><rect x="9.1" y="4.099999904632568" width="0.800000011920929" height="0.800000011920929" rx="0.4000000059604645"></rect><rect x="10.1" y="4.099999904632568" width="0.800000011920929" height="0.800000011920929" rx="0.4000000059604645"></rect><rect x="11.1" y="4.099999904632568" width="0.800000011920929" height="0.800000011920929" rx="0.4000000059604645"></rect><rect x="13.1" y="4.099999904632568" width="0.800000011920929" height="0.800000011920929" rx="0.4000000059604645"></rect><rect x="14.1" y="4.099999904632568" width="0.800000011920929" height="0.800000011920929" rx="0.4000000059604645"></rect><rect x="15.1" y="4.099999904632568" width="0.800000011920929" height="0.800000011920929" rx="0.4000000059604645"></rect><rect x="17.1" y="4.099999904632568" width="0.800000011920929" height="0.800000011920929" rx="0.4000000059604645"></rect><rect x="18.1" y="4.099999904632568" width="0.800000011920929" height="0.800000011920929" rx="0.4000000059604645"></rect><rect x="8.1" y="5.099999904632568" width="0.800000011920929" height="0.800000011920929" rx="0.4000000059604645"></rect><rect x="11.1" y="5.099999904632568" width="0.800000011920929" height="0.800000011920929" rx="0.4000000059604645"></rect><rect x="15.1" y="5.099999904632568" width="0.800000011920929" height="0.800000011920929" rx="0.4000000059604645"></rect><rect x="18.1" y="5.099999904632568" width="0.800000011920929" height="0.800000011920929" rx="0.4000000059604645"></rect><rect x="8.1" y="6.099999904632568" width="0.800000011920929" height="0.800000011920929" rx="0.4000000059604645"></rect><rect x="10.1" y="6.099999904632568" width="0.800000011920929" height="0.800000011920929" rx="0.4000000059604645"></rect><rect x="12.1" y="6.099999904632568" width="0.800000011920929" height="0.800000011920929" rx="0.4000000059604645"></rect><rect x="14.1" y="6.099999904632568" width="0.800000011920929" height="0.800000011920929" rx="0.4000000059604645"></rect><rect x="16.1" y="6.099999904632568" width="0.800000011920929" height="0.800000011920929" rx="0.4000000059604645"></rect><rect x="18.1" y="6.099999904632568" width="0.800000011920929" height="0.800000011920929" rx="0.4000000059604645"></rect><rect x="20.1" y="6.099999904632568" width="0.800000011920929" height="0.800000011920929" rx="0.4000000059604645"></rect><rect x="10.1" y="22.10000038146973" width="0.800000011920929" height="0.800000011920929" rx="0.4000000059604645"></rect><rect x="12.1" y="22.10000038146973" width="0.800000011920929" height="0.800000011920929" rx="0.4000000059604645"></rect><rect x="13.1" y="22.10000038146973" width="0.800000011920929" height="0.800000011920929" rx="0.4000000059604645"></rect><rect x="14.1" y="22.10000038146973" width="0.800000011920929" height="0.800000011920929" rx="0.4000000059604645"></rect><rect x="15.1" y="22.10000038146973" width="0.800000011920929" height="0.800000011920929" rx="0.4000000059604645"></rect><rect x="17.1" y="22.10000038146973" width="0.800000011920929" height="0.800000011920929" rx="0.4000000059604645"></rect><rect x="18.1" y="22.10000038146973" width="0.800000011920929" height="0.800000011920929" rx="0.4000000059604645"></rect><rect x="20.1" y="22.10000038146973" width="0.800000011920929" height="0.800000011920929" rx="0.4000000059604645"></rect><rect x="22.1" y="22.10000038146973" width="0.800000011920929" height="0.800000011920929" rx="0.4000000059604645"></rect><rect x="24.1" y="22.10000038146973" width="0.800000011920929" height="0.800000011920929" rx="0.4000000059604645"></rect><rect x="28.1" y="22.10000038146973" width="0.800000011920929" height="0.800000011920929" rx="0.4000000059604645"></rect><rect x="8.1" y="23.10000038146973" width="0.800000011920929" height="0.800000011920929" rx="0.4000000059604645"></rect><rect x="9.1" y="23.10000038146973" width="0.800000011920929" height="0.800000011920929" rx="0.4000000059604645"></rect><rect x="10.1" y="23.10000038146973" width="0.800000011920929" height="0.800000011920929" rx="0.4000000059604645"></rect><rect x="11.1" y="23.10000038146973" width="0.800000011920929" height="0.800000011920929" rx="0.4000000059604645"></rect><rect x="12.1" y="23.10000038146973" width="0.800000011920929" height="0.800000011920929" rx="0.4000000059604645"></rect><rect x="14.1" y="23.10000038146973" width="0.800000011920929" height="0.800000011920929" rx="0.4000000059604645"></rect><rect x="16.1" y="23.10000038146973" width="0.800000011920929" height="0.800000011920929" rx="0.4000000059604645"></rect><rect x="18.1" y="23.10000038146973" width="0.800000011920929" height="0.800000011920929" rx="0.4000000059604645"></rect><rect x="19.1" y="23.10000038146973" width="0.800000011920929" height="0.800000011920929" rx="0.4000000059604645"></rect><rect x="20.1" y="23.10000038146973" width="0.800000011920929" height="0.800000011920929" rx="0.4000000059604645"></rect><rect x="24.1" y="23.10000038146973" width="0.800000011920929" height="0.800000011920929" rx="0.4000000059604645"></rect><rect x="9.1" y="24.10000038146973" width="0.800000011920929" height="0.800000011920929" rx="0.4000000059604645"></rect><rect x="13.1" y="24.10000038146973" width="0.800000011920929" height="0.800000011920929" rx="0.4000000059604645"></rect><rect x="14.1" y="24.10000038146973" width="0.800000011920929" height="0.800000011920929" rx="0.4000000059604645"></rect><rect x="15.1" y="24.10000038146973" width="0.800000011920929" height="0.800000011920929" rx="0.4000000059604645"></rect><rect x="16.1" y="24.10000038146973" width="0.800000011920929" height="0.800000011920929" rx="0.4000000059604645"></rect><rect x="17.1" y="24.10000038146973" width="0.800000011920929" height="0.800000011920929" rx="0.4000000059604645"></rect><rect x="19.1" y="24.10000038146973" width="0.800000011920929" height="0.800000011920929" rx="0.4000000059604645"></rect><rect x="20.1" y="24.10000038146973" width="0.800000011920929" height="0.800000011920929" rx="0.4000000059604645"></rect><rect x="21.1" y="24.10000038146973" width="0.800000011920929" height="0.800000011920929" rx="0.4000000059604645"></rect><rect x="22.1" y="24.10000038146973" width="0.800000011920929" height="0.800000011920929" rx="0.4000000059604645"></rect><rect x="23.1" y="24.10000038146973" width="0.800000011920929" height="0.800000011920929" rx="0.4000000059604645"></rect><rect x="24.1" y="24.10000038146973" width="0.800000011920929" height="0.800000011920929" rx="0.4000000059604645"></rect><rect x="25.1" y="24.10000038146973" width="0.800000011920929" height="0.800000011920929" rx="0.4000000059604645"></rect><rect x="27.1" y="24.10000038146973" width="0.800000011920929" height="0.800000011920929" rx="0.4000000059604645"></rect><rect x="28.1" y="24.10000038146973" width="0.800000011920929" height="0.800000011920929" rx="0.4000000059604645"></rect><rect x="9.1" y="25.10000038146973" width="0.800000011920929" height="0.800000011920929" rx="0.4000000059604645"></rect><rect x="10.1" y="25.10000038146973" width="0.800000011920929" height="0.800000011920929" rx="0.4000000059604645"></rect><rect x="13.1" y="25.10000038146973" width="0.800000011920929" height="0.800000011920929" rx="0.4000000059604645"></rect><rect x="14.1" y="25.10000038146973" width="0.800000011920929" height="0.800000011920929" rx="0.4000000059604645"></rect><rect x="15.1" y="25.10000038146973" width="0.800000011920929" height="0.800000011920929" rx="0.4000000059604645"></rect><rect x="16.1" y="25.10000038146973" width="0.800000011920929" height="0.800000011920929" rx="0.4000000059604645"></rect><rect x="18.1" y="25.10000038146973" width="0.800000011920929" height="0.800000011920929" rx="0.4000000059604645"></rect><rect x="19.1" y="25.10000038146973" width="0.800000011920929" height="0.800000011920929" rx="0.4000000059604645"></rect><rect x="20.1" y="25.10000038146973" width="0.800000011920929" height="0.800000011920929" rx="0.4000000059604645"></rect><rect x="21.1" y="25.10000038146973" width="0.800000011920929" height="0.800000011920929" rx="0.4000000059604645"></rect><rect x="24.1" y="25.10000038146973" width="0.800000011920929" height="0.800000011920929" rx="0.4000000059604645"></rect><rect x="25.1" y="25.10000038146973" width="0.800000011920929" height="0.800000011920929" rx="0.4000000059604645"></rect><rect x="26.1" y="25.10000038146973" width="0.800000011920929" height="0.800000011920929" rx="0.4000000059604645"></rect><rect x="28.1" y="25.10000038146973" width="0.800000011920929" height="0.800000011920929" rx="0.4000000059604645"></rect><rect x="8.1" y="26.10000038146973" width="0.800000011920929" height="0.800000011920929" rx="0.4000000059604645"></rect><rect x="10.1" y="26.10000038146973" width="0.800000011920929" height="0.800000011920929" rx="0.4000000059604645"></rect><rect x="11.1" y="26.10000038146973" width="0.800000011920929" height="0.800000011920929" rx="0.4000000059604645"></rect><rect x="15.1" y="26.10000038146973" width="0.800000011920929" height="0.800000011920929" rx="0.4000000059604645"></rect><rect x="18.1" y="26.10000038146973" width="0.800000011920929" height="0.800000011920929" rx="0.4000000059604645"></rect><rect x="21.1" y="26.10000038146973" width="0.800000011920929" height="0.800000011920929" rx="0.4000000059604645"></rect><rect x="24.1" y="26.10000038146973" width="0.800000011920929" height="0.800000011920929" rx="0.4000000059604645"></rect><rect x="27.1" y="26.10000038146973" width="0.800000011920929" height="0.800000011920929" rx="0.4000000059604645"></rect><rect x="28.1" y="26.10000038146973" width="0.800000011920929" height="0.800000011920929" rx="0.4000000059604645"></rect><rect x="8.1" y="27.10000038146973" width="0.800000011920929" height="0.800000011920929" rx="0.4000000059604645"></rect><rect x="9.1" y="27.10000038146973" width="0.800000011920929" height="0.800000011920929" rx="0.4000000059604645"></rect><rect x="10.1" y="27.10000038146973" width="0.800000011920929" height="0.800000011920929" rx="0.4000000059604645"></rect><rect x="13.1" y="27.10000038146973" width="0.800000011920929" height="0.800000011920929" rx="0.4000000059604645"></rect><rect x="15.1" y="27.10000038146973" width="0.800000011920929" height="0.800000011920929" rx="0.4000000059604645"></rect><rect x="16.1" y="27.10000038146973" width="0.800000011920929" height="0.800000011920929" rx="0.4000000059604645"></rect><rect x="20.1" y="27.10000038146973" width="0.800000011920929" height="0.800000011920929" rx="0.4000000059604645"></rect><rect x="23.1" y="27.10000038146973" width="0.800000011920929" height="0.800000011920929" rx="0.4000000059604645"></rect><rect x="24.1" y="27.10000038146973" width="0.800000011920929" height="0.800000011920929" rx="0.4000000059604645"></rect><rect x="25.1" y="27.10000038146973" width="0.800000011920929" height="0.800000011920929" rx="0.4000000059604645"></rect><rect x="8.1" y="28.10000038146973" width="0.800000011920929" height="0.800000011920929" rx="0.4000000059604645"></rect><rect x="10.1" y="28.10000038146973" width="0.800000011920929" height="0.800000011920929" rx="0.4000000059604645"></rect><rect x="11.1" y="28.10000038146973" width="0.800000011920929" height="0.800000011920929" rx="0.4000000059604645"></rect><rect x="12.1" y="28.10000038146973" width="0.800000011920929" height="0.800000011920929" rx="0.4000000059604645"></rect><rect x="13.1" y="28.10000038146973" width="0.800000011920929" height="0.800000011920929" rx="0.4000000059604645"></rect><rect x="15.1" y="28.10000038146973" width="0.800000011920929" height="0.800000011920929" rx="0.4000000059604645"></rect><rect x="16.1" y="28.10000038146973" width="0.800000011920929" height="0.800000011920929" rx="0.4000000059604645"></rect><rect x="20.1" y="28.10000038146973" width="0.800000011920929" height="0.800000011920929" rx="0.4000000059604645"></rect><rect x="24.1" y="28.10000038146973" width="0.800000011920929" height="0.800000011920929" rx="0.4000000059604645"></rect><rect x="25.1" y="28.10000038146973" width="0.800000011920929" height="0.800000011920929" rx="0.4000000059604645"></rect><rect x="28.1" y="28.10000038146973" width="0.800000011920929" height="0.800000011920929" rx="0.4000000059604645"></rect></g><g class="qrRounded qrAlPatterns"><g class="qrDark" fill="#98971a"><rect x="0" y="0" width="7.0" height="7.0" rx="3.5"></rect><rect x="22" y="0" width="7.0" height="7.0" rx="3.5"></rect><rect x="0" y="22" width="7.0" height="7.0" rx="3.5"></rect></g><g class="qrLight" fill="#1d2021"><rect x="1" y="1" width="5.0" height="5.0" rx="2.5"></rect><rect x="23" y="1" width="5.0" height="5.0" rx="2.5"></rect><rect x="1" y="23" width="5.0" height="5.0" rx="2.5"></rect></g><g class="qrDark" fill="#98971a"><rect x="2" y="2" width="3.0" height="3.0" rx="1.5"></rect><rect x="24" y="2" width="3.0" height="3.0" rx="1.5"></rect><rect x="2" y="24" width="3.0" height="3.0" rx="1.5"></rect></g></g></svg>